<svg width="60" height="60" fill="none" xmlns="http://www.w3.org/2000/svg"><circle cx="30" cy="30" r="30" fill="#fff"/><path d="M34.835 40.485c-.85 0-1.276-.5-1.276-1.5v-16.32c0-1.712.282-2.913.845-3.602.574-.701 1.568-1.051 2.981-1.051h11.289c1.045 0 1.568.419 1.568 1.258 0 .85-.523 1.275-1.568 1.275H37.627c-.598 0-1.006.115-1.224.345-.207.218-.31.643-.31 1.275v16.82c0 1-.42 1.5-1.258 1.5Z" fill="#56BCEC"/><path d="M9.862 40.87c-.805-.322-1.046-.879-.724-1.671l8.324-20.2c.287-.666.759-.999 1.413-.999h.087c.654.035 1.103.368 1.344 1l8.41 20.199c.322.792.092 1.35-.69 1.671-.792.31-1.343.08-1.654-.69l-2.016-4.825h-10.91L11.5 40.181c-.322.781-.867 1.011-1.637.69Zm4.584-8.048h8.876l-4.498-10.806-4.378 10.806Z" fill="#282828"/></svg>