<svg width="102" height="103" fill="none" xmlns="http://www.w3.org/2000/svg"><rect y=".5" width="102" height="102" rx="51" fill="#746FBB"/><g clip-path="url(#a)"><path d="M57.087 31.099H47.45c-9.328 0-16.852 7.567-16.852 16.961v7.27c0 6.56 3.74 12.524 9.636 15.312v8.121c0 .41.374.785.847.785a.857.857 0 0 0 .56-.22l6.964-7.049h8.48c9.34 0 16.863-7.567 16.863-16.96v-7.27c0-9.383-7.524-16.95-16.862-16.95Zm6.335 31.787-2.409 2.423c-2.596 2.534-9.261-.376-15.157-6.406-5.896-6.03-8.514-12.857-6.028-15.39l2.409-2.423c.968-.897 2.486-.852 3.443.077l3.487 3.651c.89.974.89 2.423-.077 3.397-.264.265-.561.41-.891.564-1.221.376-1.848 1.56-1.551 2.8.594 2.688 3.96 6.04 6.523 6.704 1.188.299 2.409-.376 2.816-1.527.407-1.194 1.737-1.858 3.002-1.449.374.11.671.376.968.597l3.487 3.652c.87.874.87 2.367-.022 3.33Zm-8.997-20.27c-.264 0-.484 0-.704.078-.407.077-.847-.266-.891-.741-.044-.476.264-.852.704-.897.297-.077.593-.077.89-.077 4.444 0 8.008 3.651 8.074 8.055 0 .298 0 .597-.077.896-.077.41-.407.785-.89.708-.485-.078-.782-.41-.705-.896 0-.266.077-.487.077-.708-.033-3.508-2.926-6.418-6.478-6.418Zm4.817 6.484c-.077.41-.407.786-.89.708-.375-.077-.705-.376-.705-.708 0-1.748-1.44-3.209-3.19-3.209-.407.078-.846-.298-.89-.74-.077-.41.297-.853.703-.897h.11c2.783 0 4.862 2.157 4.862 4.846Zm6.15 2.567a.858.858 0 0 1-.892.675c-.407-.033-.704-.487-.67-.896v-.111c.186-.708.263-1.45.263-2.235 0-5.333-4.334-9.692-9.636-9.692h-.703c-.407.077-.847-.299-.847-.742-.077-.409.297-.851.704-.851.297 0 .594-.078.847-.078 6.192 0 11.263 5.067 11.263 11.33a14.609 14.609 0 0 1-.33 2.6Z" fill="#fff"/></g><defs><clipPath id="a"><path fill="#fff" transform="translate(30.6 31.099)" d="M0 0h43.35v48.45H0z"/></clipPath></defs></svg>