<svg width="102" height="103" fill="none" xmlns="http://www.w3.org/2000/svg"><rect y=".5" width="102" height="102" rx="51" fill="#39CB59"/><g clip-path="url(#a)"><path d="M51 29.06c-12.388 0-22.44 10.051-22.44 22.44 0 4.96 1.606 9.529 4.321 13.25l-2.859 8.459 8.916-2.781A22.39 22.39 0 0 0 51 73.939c12.388 0 22.44-10.051 22.44-22.44 0-12.388-10.052-22.44-22.44-22.44Zm10.274 34.475c-4.073 1.632-8.93.053-14.242-3.981-5.313-4.034-8.812-9.712-9.047-13.929-.235-4.216 3.198-6.344 5.065-6.331 1.867.013 3.916 5.979 3.942 6.893.027.926-2.284 2.571-2.375 3.354-.092.784 3.146 4.648 4.516 5.692 1.358 1.031 4.164 3.016 5.613 2.833 1.436-.196 2.39-3.081 3.303-3.264.914-.182 5.9 2.298 6.397 2.937.496.653.444 4.36-3.172 5.796Z" fill="#fff"/></g><defs><clipPath id="a"><path fill="#fff" transform="translate(28.56 29.06)" d="M0 0h44.88v44.88H0z"/></clipPath></defs></svg>