<svg width="207" height="82" viewBox="0 0 207 82" fill="none" xmlns="http://www.w3.org/2000/svg">
<g clip-path="url(#clip0_98_88)">
<g filter="url(#filter0_d_98_88)">
<mask id="path-1-inside-1_98_88" fill="white">
<path d="M1.69979 27.6003C1.19979 27.6003 0.899786 27.5003 0.499786 27.2003C0.199786 26.9003 -0.000213623 26.6003 -0.000213623 26.2003C-0.000213623 25.8003 -0.000213623 25.5003 0.0997864 25.2003L9.69979 1.00026H13.2998L22.7998 25.1003C22.8998 25.4003 22.8998 25.7003 22.8998 26.1003C22.8998 26.5003 22.6998 26.8003 22.3998 27.1003C22.0998 27.4003 21.6998 27.5003 21.1998 27.5003C20.3998 27.5003 19.7998 27.1003 19.4998 26.2003L16.7998 19.3003H6.09979L3.39979 26.2003C2.99979 27.1003 2.49979 27.6003 1.69979 27.6003ZM7.39979 16.0003H15.4998L11.3998 6.00026L7.39979 16.0003ZM43.6998 27.2003C42.5998 27.2003 41.9998 26.5003 41.9998 25.2003V11.4003H34.0998C33.1998 11.4003 32.5998 11.5003 32.2998 11.7003C31.9998 11.9003 31.8998 12.4003 31.8998 13.0003V21.5003C31.8998 22.8003 31.6998 23.8003 31.3998 24.6003C31.0998 25.4003 30.4998 26.0003 29.7998 26.4003C28.9998 26.8003 27.9998 27.0003 26.8998 27.0003C26.1998 27.0003 25.5998 26.9003 25.1998 26.6003C24.7998 26.3003 24.4998 25.9003 24.4998 25.3003C24.4998 24.2003 25.1998 23.6003 26.5998 23.6003C27.2998 23.6003 27.7998 23.5003 28.0998 23.3003C28.3998 23.1003 28.4998 22.7003 28.4998 22.0003V13.5003C28.4998 12.1003 28.6998 11.0003 28.9998 10.2003C29.2998 9.40026 29.7998 8.90026 30.5998 8.50026C31.2998 8.20026 32.3998 8.00026 33.6998 8.00026H45.2998V25.2003C45.2998 26.5003 44.7998 27.2003 43.6998 27.2003ZM60.6998 26.9003C58.0998 26.9003 56.0998 26.7003 54.5998 26.2003C53.0998 25.7003 51.9998 25.0003 51.2998 23.9003C50.5998 22.8003 50.2998 21.4003 50.2998 19.5003V15.3003C50.2998 13.5003 50.5998 12.0003 51.2998 10.9003C51.9998 9.80026 53.0998 9.10026 54.5998 8.60026C56.0998 8.20026 58.0998 8.00026 60.6998 8.00026H61.8998C64.4998 8.00026 66.4998 8.20026 67.9998 8.70026C69.4998 9.20026 70.5998 9.90026 71.1998 11.0003C71.8998 12.1003 72.1998 13.5003 72.1998 15.3003V17.5003H53.6998V19.4003C53.6998 20.6003 53.8998 21.5003 54.1998 22.1003C54.4998 22.7003 55.1998 23.1003 56.1998 23.3003C57.1998 23.5003 58.6998 23.6003 60.6998 23.6003H66.8998C67.4998 23.6003 67.8998 23.5003 68.0998 23.3003C68.2998 23.1003 68.3998 22.6003 68.3998 22.0003C68.3998 21.3003 68.4998 20.8003 68.7998 20.4003C69.0998 20.0003 69.4998 19.8003 70.0998 19.8003C70.5998 19.8003 71.0998 20.0003 71.2998 20.4003C71.5998 20.8003 71.6998 21.3003 71.6998 22.1003C71.6998 23.2003 71.4998 24.1003 71.1998 24.9003C70.8998 25.6003 70.3998 26.2003 69.6998 26.5003C68.9998 26.8003 68.1998 27.0003 67.0998 27.0003H60.6998V26.9003ZM53.6998 14.2003H68.7998C68.6998 13.0003 68.1998 12.3003 67.3998 12.0003C66.8998 11.8003 66.1998 11.7003 65.2998 11.6003C64.3998 11.5003 63.1998 11.5003 61.8998 11.5003H60.6998C59.2998 11.5003 58.0998 11.6003 57.0998 11.7003C56.1998 11.8003 55.4998 11.9003 54.9998 12.1003C54.2998 12.3003 53.7998 13.0003 53.6998 14.2003ZM78.5998 27.2003C78.0998 27.2003 77.6998 27.0003 77.3998 26.7003C77.0998 26.4003 76.9998 25.9003 76.9998 25.4003V9.60026C76.9998 9.00026 77.1998 8.60026 77.4998 8.30026C77.7998 8.00026 78.1998 7.80026 78.7998 7.80026C79.2998 7.80026 79.6998 8.00026 79.9998 8.30026C80.2998 8.60026 80.3998 9.10026 80.3998 9.60026V15.8003H84.1998C84.4998 15.8003 84.7998 15.6003 85.1998 15.2003C85.5998 14.8003 86.0998 14.1003 86.7998 13.0003C87.2998 12.2003 87.9998 11.4003 88.6998 10.6003C89.3998 9.80026 90.2998 9.10026 91.3998 8.50026C92.3998 8.00026 93.6998 7.70026 94.9998 7.70026C95.5998 7.70026 96.0998 7.80026 96.4998 8.10026C96.8998 8.40026 97.0998 8.80026 97.0998 9.30026C97.0998 9.90026 96.8998 10.3003 96.5998 10.6003C96.1998 10.9003 95.6998 11.0003 94.9998 11.0003C94.2998 11.0003 93.5998 11.3003 92.9998 11.8003C92.2998 12.3003 91.4998 13.3003 90.5998 14.6003C90.3998 14.9003 90.0998 15.2003 89.8998 15.5003C89.6998 15.8003 89.4998 16.0003 89.2998 16.3003C89.0998 16.5003 88.8998 16.7003 88.6998 16.9003C89.6998 17.4003 90.6998 18.0003 91.4998 18.8003C92.3998 19.6003 92.8998 20.4003 93.1998 21.2003C93.4998 22.0003 93.7998 22.7003 94.0998 23.1003C94.3998 23.5003 94.6998 23.7003 94.8998 23.7003C95.4998 23.7003 95.9998 23.9003 96.3998 24.2003C96.7998 24.5003 96.9998 24.9003 96.9998 25.4003C96.9998 26.5003 96.2998 27.1003 94.8998 27.1003C93.9998 27.1003 93.1998 27.0003 92.4998 26.7003C91.7998 26.4003 91.2998 26.0003 90.8998 25.4003C90.4998 24.9003 90.1998 24.3003 89.8998 23.8003C89.5998 23.3003 89.3998 22.8003 88.9998 22.2003C88.6998 21.7003 88.1998 21.1003 87.4998 20.5003C86.3998 19.5003 84.4998 19.0003 81.7998 19.0003H80.1998V25.3003C80.1998 25.8003 79.9998 26.3003 79.6998 26.6003C79.5998 27.0003 79.0998 27.2003 78.5998 27.2003ZM111.1 26.9003C108.5 26.9003 106.5 26.7003 105 26.2003C103.5 25.7003 102.4 25.0003 101.7 23.9003C101 22.8003 100.7 21.4003 100.7 19.5003V15.3003C100.7 13.5003 101 12.0003 101.7 10.9003C102.4 9.80026 103.5 9.10026 105 8.60026C106.5 8.10026 108.6 7.90026 111.1 7.90026H116.7C117.8 7.90026 118.6 8.10026 119.3 8.40026C120 8.70026 120.5 9.30026 120.8 10.0003C121.1 10.7003 121.3 11.6003 121.3 12.8003C121.3 13.5003 121.2 14.1003 120.9 14.5003C120.6 14.9003 120.2 15.1003 119.7 15.1003C119.2 15.1003 118.8 14.9003 118.5 14.6003C118.2 14.2003 118.1 13.7003 118.1 13.1003C118.1 12.4003 118 12.0003 117.8 11.7003C117.6 11.5003 117.2 11.3003 116.6 11.3003H111.2C109.2 11.3003 107.7 11.4003 106.7 11.6003C105.7 11.8003 105 12.2003 104.7 12.8003C104.4 13.4003 104.2 14.3003 104.2 15.5003V19.5003C104.2 20.7003 104.4 21.6003 104.7 22.2003C105 22.8003 105.7 23.2003 106.7 23.4003C107.7 23.6003 109.2 23.7003 111.2 23.7003H116.6C117.2 23.7003 117.6 23.6003 117.8 23.4003C118 23.2003 118.1 22.7003 118.1 22.1003C118.1 21.5003 118.2 21.0003 118.5 20.6003C118.8 20.2003 119.2 20.0003 119.7 20.0003C120.2 20.0003 120.6 20.2003 120.9 20.6003C121.2 21.0003 121.4 21.5003 121.4 22.3003C121.4 23.4003 121.2 24.3003 120.9 25.1003C120.6 25.8003 120.1 26.4003 119.4 26.7003C118.7 27.0003 117.9 27.2003 116.8 27.2003H111.1V26.9003ZM136.1 26.9003C133.5 26.9003 131.5 26.7003 130 26.2003C128.5 25.7003 127.4 25.0003 126.7 23.9003C126 22.8003 125.7 21.4003 125.7 19.5003V15.3003C125.7 13.5003 126 12.0003 126.7 10.9003C127.4 9.80026 128.5 9.10026 130 8.60026C131.5 8.10026 133.6 7.90026 136.1 7.90026H137.3C139.9 7.90026 141.9 8.10026 143.4 8.60026C144.9 9.10026 146 9.80026 146.6 10.9003C147.3 12.0003 147.6 13.4003 147.6 15.2003V17.4003H129.1V19.3003C129.1 20.5003 129.3 21.4003 129.6 22.0003C129.9 22.6003 130.6 23.0003 131.6 23.2003C132.6 23.4003 134.1 23.5003 136.1 23.5003H142.3C142.9 23.5003 143.3 23.4003 143.5 23.2003C143.7 23.0003 143.8 22.5003 143.8 21.9003C143.8 21.2003 143.9 20.7003 144.2 20.3003C144.5 19.9003 144.9 19.7003 145.5 19.7003C146 19.7003 146.5 19.9003 146.7 20.3003C147 20.7003 147.1 21.2003 147.1 22.0003C147.1 23.1003 146.9 24.0003 146.6 24.8003C146.3 25.5003 145.8 26.1003 145.1 26.4003C144.4 26.7003 143.6 26.9003 142.5 26.9003H136.1ZM129.1 14.2003H144.2C144.1 13.0003 143.6 12.3003 142.8 12.0003C142.3 11.8003 141.6 11.7003 140.7 11.6003C139.8 11.5003 138.6 11.5003 137.3 11.5003H136.1C134.7 11.5003 133.5 11.6003 132.5 11.7003C131.6 11.8003 130.9 11.9003 130.4 12.1003C129.6 12.3003 129.2 13.0003 129.1 14.2003ZM170.9 27.2003C169.8 27.2003 169.2 26.5003 169.2 25.1003V12.8003L155.5 27.0003H152.4V9.70026C152.4 8.40026 153 7.70026 154.1 7.70026C155.2 7.70026 155.8 8.40026 155.8 9.80026V22.3003L169.6 8.00026H172.6V25.2003C172.6 26.5003 172 27.2003 170.9 27.2003ZM160.2 7.00026C158.6 7.00026 157.5 6.60026 156.9 5.80026C156.3 5.00026 155.9 3.60026 155.9 1.70026V0.000259399H159.3V2.40026C159.3 3.00026 159.4 3.40026 159.5 3.50026C159.6 3.60026 160 3.70026 160.5 3.70026H164.6C165.1 3.70026 165.5 3.60026 165.6 3.50026C165.7 3.40026 165.8 3.00026 165.8 2.40026V0.000259399H169.2V1.70026C169.2 3.70026 168.9 5.00026 168.2 5.80026C167.6 6.60026 166.5 7.00026 164.9 7.00026H160.2Z"/>
</mask>
<path d="M1.69979 27.6003C1.19979 27.6003 0.899786 27.5003 0.499786 27.2003C0.199786 26.9003 -0.000213623 26.6003 -0.000213623 26.2003C-0.000213623 25.8003 -0.000213623 25.5003 0.0997864 25.2003L9.69979 1.00026H13.2998L22.7998 25.1003C22.8998 25.4003 22.8998 25.7003 22.8998 26.1003C22.8998 26.5003 22.6998 26.8003 22.3998 27.1003C22.0998 27.4003 21.6998 27.5003 21.1998 27.5003C20.3998 27.5003 19.7998 27.1003 19.4998 26.2003L16.7998 19.3003H6.09979L3.39979 26.2003C2.99979 27.1003 2.49979 27.6003 1.69979 27.6003ZM7.39979 16.0003H15.4998L11.3998 6.00026L7.39979 16.0003ZM43.6998 27.2003C42.5998 27.2003 41.9998 26.5003 41.9998 25.2003V11.4003H34.0998C33.1998 11.4003 32.5998 11.5003 32.2998 11.7003C31.9998 11.9003 31.8998 12.4003 31.8998 13.0003V21.5003C31.8998 22.8003 31.6998 23.8003 31.3998 24.6003C31.0998 25.4003 30.4998 26.0003 29.7998 26.4003C28.9998 26.8003 27.9998 27.0003 26.8998 27.0003C26.1998 27.0003 25.5998 26.9003 25.1998 26.6003C24.7998 26.3003 24.4998 25.9003 24.4998 25.3003C24.4998 24.2003 25.1998 23.6003 26.5998 23.6003C27.2998 23.6003 27.7998 23.5003 28.0998 23.3003C28.3998 23.1003 28.4998 22.7003 28.4998 22.0003V13.5003C28.4998 12.1003 28.6998 11.0003 28.9998 10.2003C29.2998 9.40026 29.7998 8.90026 30.5998 8.50026C31.2998 8.20026 32.3998 8.00026 33.6998 8.00026H45.2998V25.2003C45.2998 26.5003 44.7998 27.2003 43.6998 27.2003ZM60.6998 26.9003C58.0998 26.9003 56.0998 26.7003 54.5998 26.2003C53.0998 25.7003 51.9998 25.0003 51.2998 23.9003C50.5998 22.8003 50.2998 21.4003 50.2998 19.5003V15.3003C50.2998 13.5003 50.5998 12.0003 51.2998 10.9003C51.9998 9.80026 53.0998 9.10026 54.5998 8.60026C56.0998 8.20026 58.0998 8.00026 60.6998 8.00026H61.8998C64.4998 8.00026 66.4998 8.20026 67.9998 8.70026C69.4998 9.20026 70.5998 9.90026 71.1998 11.0003C71.8998 12.1003 72.1998 13.5003 72.1998 15.3003V17.5003H53.6998V19.4003C53.6998 20.6003 53.8998 21.5003 54.1998 22.1003C54.4998 22.7003 55.1998 23.1003 56.1998 23.3003C57.1998 23.5003 58.6998 23.6003 60.6998 23.6003H66.8998C67.4998 23.6003 67.8998 23.5003 68.0998 23.3003C68.2998 23.1003 68.3998 22.6003 68.3998 22.0003C68.3998 21.3003 68.4998 20.8003 68.7998 20.4003C69.0998 20.0003 69.4998 19.8003 70.0998 19.8003C70.5998 19.8003 71.0998 20.0003 71.2998 20.4003C71.5998 20.8003 71.6998 21.3003 71.6998 22.1003C71.6998 23.2003 71.4998 24.1003 71.1998 24.9003C70.8998 25.6003 70.3998 26.2003 69.6998 26.5003C68.9998 26.8003 68.1998 27.0003 67.0998 27.0003H60.6998V26.9003ZM53.6998 14.2003H68.7998C68.6998 13.0003 68.1998 12.3003 67.3998 12.0003C66.8998 11.8003 66.1998 11.7003 65.2998 11.6003C64.3998 11.5003 63.1998 11.5003 61.8998 11.5003H60.6998C59.2998 11.5003 58.0998 11.6003 57.0998 11.7003C56.1998 11.8003 55.4998 11.9003 54.9998 12.1003C54.2998 12.3003 53.7998 13.0003 53.6998 14.2003ZM78.5998 27.2003C78.0998 27.2003 77.6998 27.0003 77.3998 26.7003C77.0998 26.4003 76.9998 25.9003 76.9998 25.4003V9.60026C76.9998 9.00026 77.1998 8.60026 77.4998 8.30026C77.7998 8.00026 78.1998 7.80026 78.7998 7.80026C79.2998 7.80026 79.6998 8.00026 79.9998 8.30026C80.2998 8.60026 80.3998 9.10026 80.3998 9.60026V15.8003H84.1998C84.4998 15.8003 84.7998 15.6003 85.1998 15.2003C85.5998 14.8003 86.0998 14.1003 86.7998 13.0003C87.2998 12.2003 87.9998 11.4003 88.6998 10.6003C89.3998 9.80026 90.2998 9.10026 91.3998 8.50026C92.3998 8.00026 93.6998 7.70026 94.9998 7.70026C95.5998 7.70026 96.0998 7.80026 96.4998 8.10026C96.8998 8.40026 97.0998 8.80026 97.0998 9.30026C97.0998 9.90026 96.8998 10.3003 96.5998 10.6003C96.1998 10.9003 95.6998 11.0003 94.9998 11.0003C94.2998 11.0003 93.5998 11.3003 92.9998 11.8003C92.2998 12.3003 91.4998 13.3003 90.5998 14.6003C90.3998 14.9003 90.0998 15.2003 89.8998 15.5003C89.6998 15.8003 89.4998 16.0003 89.2998 16.3003C89.0998 16.5003 88.8998 16.7003 88.6998 16.9003C89.6998 17.4003 90.6998 18.0003 91.4998 18.8003C92.3998 19.6003 92.8998 20.4003 93.1998 21.2003C93.4998 22.0003 93.7998 22.7003 94.0998 23.1003C94.3998 23.5003 94.6998 23.7003 94.8998 23.7003C95.4998 23.7003 95.9998 23.9003 96.3998 24.2003C96.7998 24.5003 96.9998 24.9003 96.9998 25.4003C96.9998 26.5003 96.2998 27.1003 94.8998 27.1003C93.9998 27.1003 93.1998 27.0003 92.4998 26.7003C91.7998 26.4003 91.2998 26.0003 90.8998 25.4003C90.4998 24.9003 90.1998 24.3003 89.8998 23.8003C89.5998 23.3003 89.3998 22.8003 88.9998 22.2003C88.6998 21.7003 88.1998 21.1003 87.4998 20.5003C86.3998 19.5003 84.4998 19.0003 81.7998 19.0003H80.1998V25.3003C80.1998 25.8003 79.9998 26.3003 79.6998 26.6003C79.5998 27.0003 79.0998 27.2003 78.5998 27.2003ZM111.1 26.9003C108.5 26.9003 106.5 26.7003 105 26.2003C103.5 25.7003 102.4 25.0003 101.7 23.9003C101 22.8003 100.7 21.4003 100.7 19.5003V15.3003C100.7 13.5003 101 12.0003 101.7 10.9003C102.4 9.80026 103.5 9.10026 105 8.60026C106.5 8.10026 108.6 7.90026 111.1 7.90026H116.7C117.8 7.90026 118.6 8.10026 119.3 8.40026C120 8.70026 120.5 9.30026 120.8 10.0003C121.1 10.7003 121.3 11.6003 121.3 12.8003C121.3 13.5003 121.2 14.1003 120.9 14.5003C120.6 14.9003 120.2 15.1003 119.7 15.1003C119.2 15.1003 118.8 14.9003 118.5 14.6003C118.2 14.2003 118.1 13.7003 118.1 13.1003C118.1 12.4003 118 12.0003 117.8 11.7003C117.6 11.5003 117.2 11.3003 116.6 11.3003H111.2C109.2 11.3003 107.7 11.4003 106.7 11.6003C105.7 11.8003 105 12.2003 104.7 12.8003C104.4 13.4003 104.2 14.3003 104.2 15.5003V19.5003C104.2 20.7003 104.4 21.6003 104.7 22.2003C105 22.8003 105.7 23.2003 106.7 23.4003C107.7 23.6003 109.2 23.7003 111.2 23.7003H116.6C117.2 23.7003 117.6 23.6003 117.8 23.4003C118 23.2003 118.1 22.7003 118.1 22.1003C118.1 21.5003 118.2 21.0003 118.5 20.6003C118.8 20.2003 119.2 20.0003 119.7 20.0003C120.2 20.0003 120.6 20.2003 120.9 20.6003C121.2 21.0003 121.4 21.5003 121.4 22.3003C121.4 23.4003 121.2 24.3003 120.9 25.1003C120.6 25.8003 120.1 26.4003 119.4 26.7003C118.7 27.0003 117.9 27.2003 116.8 27.2003H111.1V26.9003ZM136.1 26.9003C133.5 26.9003 131.5 26.7003 130 26.2003C128.5 25.7003 127.4 25.0003 126.7 23.9003C126 22.8003 125.7 21.4003 125.7 19.5003V15.3003C125.7 13.5003 126 12.0003 126.7 10.9003C127.4 9.80026 128.5 9.10026 130 8.60026C131.5 8.10026 133.6 7.90026 136.1 7.90026H137.3C139.9 7.90026 141.9 8.10026 143.4 8.60026C144.9 9.10026 146 9.80026 146.6 10.9003C147.3 12.0003 147.6 13.4003 147.6 15.2003V17.4003H129.1V19.3003C129.1 20.5003 129.3 21.4003 129.6 22.0003C129.9 22.6003 130.6 23.0003 131.6 23.2003C132.6 23.4003 134.1 23.5003 136.1 23.5003H142.3C142.9 23.5003 143.3 23.4003 143.5 23.2003C143.7 23.0003 143.8 22.5003 143.8 21.9003C143.8 21.2003 143.9 20.7003 144.2 20.3003C144.5 19.9003 144.9 19.7003 145.5 19.7003C146 19.7003 146.5 19.9003 146.7 20.3003C147 20.7003 147.1 21.2003 147.1 22.0003C147.1 23.1003 146.9 24.0003 146.6 24.8003C146.3 25.5003 145.8 26.1003 145.1 26.4003C144.4 26.7003 143.6 26.9003 142.5 26.9003H136.1ZM129.1 14.2003H144.2C144.1 13.0003 143.6 12.3003 142.8 12.0003C142.3 11.8003 141.6 11.7003 140.7 11.6003C139.8 11.5003 138.6 11.5003 137.3 11.5003H136.1C134.7 11.5003 133.5 11.6003 132.5 11.7003C131.6 11.8003 130.9 11.9003 130.4 12.1003C129.6 12.3003 129.2 13.0003 129.1 14.2003ZM170.9 27.2003C169.8 27.2003 169.2 26.5003 169.2 25.1003V12.8003L155.5 27.0003H152.4V9.70026C152.4 8.40026 153 7.70026 154.1 7.70026C155.2 7.70026 155.8 8.40026 155.8 9.80026V22.3003L169.6 8.00026H172.6V25.2003C172.6 26.5003 172 27.2003 170.9 27.2003ZM160.2 7.00026C158.6 7.00026 157.5 6.60026 156.9 5.80026C156.3 5.00026 155.9 3.60026 155.9 1.70026V0.000259399H159.3V2.40026C159.3 3.00026 159.4 3.40026 159.5 3.50026C159.6 3.60026 160 3.70026 160.5 3.70026H164.6C165.1 3.70026 165.5 3.60026 165.6 3.50026C165.7 3.40026 165.8 3.00026 165.8 2.40026V0.000259399H169.2V1.70026C169.2 3.70026 168.9 5.00026 168.2 5.80026C167.6 6.60026 166.5 7.00026 164.9 7.00026H160.2Z" fill="#282828"/>
<path d="M1.69979 27.6003C1.19979 27.6003 0.899786 27.5003 0.499786 27.2003C0.199786 26.9003 -0.000213623 26.6003 -0.000213623 26.2003C-0.000213623 25.8003 -0.000213623 25.5003 0.0997864 25.2003L9.69979 1.00026H13.2998L22.7998 25.1003C22.8998 25.4003 22.8998 25.7003 22.8998 26.1003C22.8998 26.5003 22.6998 26.8003 22.3998 27.1003C22.0998 27.4003 21.6998 27.5003 21.1998 27.5003C20.3998 27.5003 19.7998 27.1003 19.4998 26.2003L16.7998 19.3003H6.09979L3.39979 26.2003C2.99979 27.1003 2.49979 27.6003 1.69979 27.6003ZM7.39979 16.0003H15.4998L11.3998 6.00026L7.39979 16.0003ZM43.6998 27.2003C42.5998 27.2003 41.9998 26.5003 41.9998 25.2003V11.4003H34.0998C33.1998 11.4003 32.5998 11.5003 32.2998 11.7003C31.9998 11.9003 31.8998 12.4003 31.8998 13.0003V21.5003C31.8998 22.8003 31.6998 23.8003 31.3998 24.6003C31.0998 25.4003 30.4998 26.0003 29.7998 26.4003C28.9998 26.8003 27.9998 27.0003 26.8998 27.0003C26.1998 27.0003 25.5998 26.9003 25.1998 26.6003C24.7998 26.3003 24.4998 25.9003 24.4998 25.3003C24.4998 24.2003 25.1998 23.6003 26.5998 23.6003C27.2998 23.6003 27.7998 23.5003 28.0998 23.3003C28.3998 23.1003 28.4998 22.7003 28.4998 22.0003V13.5003C28.4998 12.1003 28.6998 11.0003 28.9998 10.2003C29.2998 9.40026 29.7998 8.90026 30.5998 8.50026C31.2998 8.20026 32.3998 8.00026 33.6998 8.00026H45.2998V25.2003C45.2998 26.5003 44.7998 27.2003 43.6998 27.2003ZM60.6998 26.9003C58.0998 26.9003 56.0998 26.7003 54.5998 26.2003C53.0998 25.7003 51.9998 25.0003 51.2998 23.9003C50.5998 22.8003 50.2998 21.4003 50.2998 19.5003V15.3003C50.2998 13.5003 50.5998 12.0003 51.2998 10.9003C51.9998 9.80026 53.0998 9.10026 54.5998 8.60026C56.0998 8.20026 58.0998 8.00026 60.6998 8.00026H61.8998C64.4998 8.00026 66.4998 8.20026 67.9998 8.70026C69.4998 9.20026 70.5998 9.90026 71.1998 11.0003C71.8998 12.1003 72.1998 13.5003 72.1998 15.3003V17.5003H53.6998V19.4003C53.6998 20.6003 53.8998 21.5003 54.1998 22.1003C54.4998 22.7003 55.1998 23.1003 56.1998 23.3003C57.1998 23.5003 58.6998 23.6003 60.6998 23.6003H66.8998C67.4998 23.6003 67.8998 23.5003 68.0998 23.3003C68.2998 23.1003 68.3998 22.6003 68.3998 22.0003C68.3998 21.3003 68.4998 20.8003 68.7998 20.4003C69.0998 20.0003 69.4998 19.8003 70.0998 19.8003C70.5998 19.8003 71.0998 20.0003 71.2998 20.4003C71.5998 20.8003 71.6998 21.3003 71.6998 22.1003C71.6998 23.2003 71.4998 24.1003 71.1998 24.9003C70.8998 25.6003 70.3998 26.2003 69.6998 26.5003C68.9998 26.8003 68.1998 27.0003 67.0998 27.0003H60.6998V26.9003ZM53.6998 14.2003H68.7998C68.6998 13.0003 68.1998 12.3003 67.3998 12.0003C66.8998 11.8003 66.1998 11.7003 65.2998 11.6003C64.3998 11.5003 63.1998 11.5003 61.8998 11.5003H60.6998C59.2998 11.5003 58.0998 11.6003 57.0998 11.7003C56.1998 11.8003 55.4998 11.9003 54.9998 12.1003C54.2998 12.3003 53.7998 13.0003 53.6998 14.2003ZM78.5998 27.2003C78.0998 27.2003 77.6998 27.0003 77.3998 26.7003C77.0998 26.4003 76.9998 25.9003 76.9998 25.4003V9.60026C76.9998 9.00026 77.1998 8.60026 77.4998 8.30026C77.7998 8.00026 78.1998 7.80026 78.7998 7.80026C79.2998 7.80026 79.6998 8.00026 79.9998 8.30026C80.2998 8.60026 80.3998 9.10026 80.3998 9.60026V15.8003H84.1998C84.4998 15.8003 84.7998 15.6003 85.1998 15.2003C85.5998 14.8003 86.0998 14.1003 86.7998 13.0003C87.2998 12.2003 87.9998 11.4003 88.6998 10.6003C89.3998 9.80026 90.2998 9.10026 91.3998 8.50026C92.3998 8.00026 93.6998 7.70026 94.9998 7.70026C95.5998 7.70026 96.0998 7.80026 96.4998 8.10026C96.8998 8.40026 97.0998 8.80026 97.0998 9.30026C97.0998 9.90026 96.8998 10.3003 96.5998 10.6003C96.1998 10.9003 95.6998 11.0003 94.9998 11.0003C94.2998 11.0003 93.5998 11.3003 92.9998 11.8003C92.2998 12.3003 91.4998 13.3003 90.5998 14.6003C90.3998 14.9003 90.0998 15.2003 89.8998 15.5003C89.6998 15.8003 89.4998 16.0003 89.2998 16.3003C89.0998 16.5003 88.8998 16.7003 88.6998 16.9003C89.6998 17.4003 90.6998 18.0003 91.4998 18.8003C92.3998 19.6003 92.8998 20.4003 93.1998 21.2003C93.4998 22.0003 93.7998 22.7003 94.0998 23.1003C94.3998 23.5003 94.6998 23.7003 94.8998 23.7003C95.4998 23.7003 95.9998 23.9003 96.3998 24.2003C96.7998 24.5003 96.9998 24.9003 96.9998 25.4003C96.9998 26.5003 96.2998 27.1003 94.8998 27.1003C93.9998 27.1003 93.1998 27.0003 92.4998 26.7003C91.7998 26.4003 91.2998 26.0003 90.8998 25.4003C90.4998 24.9003 90.1998 24.3003 89.8998 23.8003C89.5998 23.3003 89.3998 22.8003 88.9998 22.2003C88.6998 21.7003 88.1998 21.1003 87.4998 20.5003C86.3998 19.5003 84.4998 19.0003 81.7998 19.0003H80.1998V25.3003C80.1998 25.8003 79.9998 26.3003 79.6998 26.6003C79.5998 27.0003 79.0998 27.2003 78.5998 27.2003ZM111.1 26.9003C108.5 26.9003 106.5 26.7003 105 26.2003C103.5 25.7003 102.4 25.0003 101.7 23.9003C101 22.8003 100.7 21.4003 100.7 19.5003V15.3003C100.7 13.5003 101 12.0003 101.7 10.9003C102.4 9.80026 103.5 9.10026 105 8.60026C106.5 8.10026 108.6 7.90026 111.1 7.90026H116.7C117.8 7.90026 118.6 8.10026 119.3 8.40026C120 8.70026 120.5 9.30026 120.8 10.0003C121.1 10.7003 121.3 11.6003 121.3 12.8003C121.3 13.5003 121.2 14.1003 120.9 14.5003C120.6 14.9003 120.2 15.1003 119.7 15.1003C119.2 15.1003 118.8 14.9003 118.5 14.6003C118.2 14.2003 118.1 13.7003 118.1 13.1003C118.1 12.4003 118 12.0003 117.8 11.7003C117.6 11.5003 117.2 11.3003 116.6 11.3003H111.2C109.2 11.3003 107.7 11.4003 106.7 11.6003C105.7 11.8003 105 12.2003 104.7 12.8003C104.4 13.4003 104.2 14.3003 104.2 15.5003V19.5003C104.2 20.7003 104.4 21.6003 104.7 22.2003C105 22.8003 105.7 23.2003 106.7 23.4003C107.7 23.6003 109.2 23.7003 111.2 23.7003H116.6C117.2 23.7003 117.6 23.6003 117.8 23.4003C118 23.2003 118.1 22.7003 118.1 22.1003C118.1 21.5003 118.2 21.0003 118.5 20.6003C118.8 20.2003 119.2 20.0003 119.7 20.0003C120.2 20.0003 120.6 20.2003 120.9 20.6003C121.2 21.0003 121.4 21.5003 121.4 22.3003C121.4 23.4003 121.2 24.3003 120.9 25.1003C120.6 25.8003 120.1 26.4003 119.4 26.7003C118.7 27.0003 117.9 27.2003 116.8 27.2003H111.1V26.9003ZM136.1 26.9003C133.5 26.9003 131.5 26.7003 130 26.2003C128.5 25.7003 127.4 25.0003 126.7 23.9003C126 22.8003 125.7 21.4003 125.7 19.5003V15.3003C125.7 13.5003 126 12.0003 126.7 10.9003C127.4 9.80026 128.5 9.10026 130 8.60026C131.5 8.10026 133.6 7.90026 136.1 7.90026H137.3C139.9 7.90026 141.9 8.10026 143.4 8.60026C144.9 9.10026 146 9.80026 146.6 10.9003C147.3 12.0003 147.6 13.4003 147.6 15.2003V17.4003H129.1V19.3003C129.1 20.5003 129.3 21.4003 129.6 22.0003C129.9 22.6003 130.6 23.0003 131.6 23.2003C132.6 23.4003 134.1 23.5003 136.1 23.5003H142.3C142.9 23.5003 143.3 23.4003 143.5 23.2003C143.7 23.0003 143.8 22.5003 143.8 21.9003C143.8 21.2003 143.9 20.7003 144.2 20.3003C144.5 19.9003 144.9 19.7003 145.5 19.7003C146 19.7003 146.5 19.9003 146.7 20.3003C147 20.7003 147.1 21.2003 147.1 22.0003C147.1 23.1003 146.9 24.0003 146.6 24.8003C146.3 25.5003 145.8 26.1003 145.1 26.4003C144.4 26.7003 143.6 26.9003 142.5 26.9003H136.1ZM129.1 14.2003H144.2C144.1 13.0003 143.6 12.3003 142.8 12.0003C142.3 11.8003 141.6 11.7003 140.7 11.6003C139.8 11.5003 138.6 11.5003 137.3 11.5003H136.1C134.7 11.5003 133.5 11.6003 132.5 11.7003C131.6 11.8003 130.9 11.9003 130.4 12.1003C129.6 12.3003 129.2 13.0003 129.1 14.2003ZM170.9 27.2003C169.8 27.2003 169.2 26.5003 169.2 25.1003V12.8003L155.5 27.0003H152.4V9.70026C152.4 8.40026 153 7.70026 154.1 7.70026C155.2 7.70026 155.8 8.40026 155.8 9.80026V22.3003L169.6 8.00026H172.6V25.2003C172.6 26.5003 172 27.2003 170.9 27.2003ZM160.2 7.00026C158.6 7.00026 157.5 6.60026 156.9 5.80026C156.3 5.00026 155.9 3.60026 155.9 1.70026V0.000259399H159.3V2.40026C159.3 3.00026 159.4 3.40026 159.5 3.50026C159.6 3.60026 160 3.70026 160.5 3.70026H164.6C165.1 3.70026 165.5 3.60026 165.6 3.50026C165.7 3.40026 165.8 3.00026 165.8 2.40026V0.000259399H169.2V1.70026C169.2 3.70026 168.9 5.00026 168.2 5.80026C167.6 6.60026 166.5 7.00026 164.9 7.00026H160.2Z" stroke="black" stroke-width="2" mask="url(#path-1-inside-1_98_88)"/>
</g>
<path d="M3.99979 74.2003C2.89979 74.2003 2.29979 73.6003 2.29979 72.3003V53.6003C2.29979 51.6003 2.59979 50.1003 3.29979 49.3003C4.09979 48.4003 5.29979 48.0003 6.99979 48.0003H20.3998C21.7998 48.0003 22.3998 48.6003 22.3998 49.7003C22.3998 50.8003 21.6998 51.4003 20.3998 51.4003H7.19979C6.59979 51.4003 6.19979 51.5003 5.89979 51.7003C5.69979 51.9003 5.59979 52.4003 5.59979 53.0003V72.3003C5.69979 73.6003 5.09979 74.2003 3.99979 74.2003ZM35.5998 73.9003C32.9998 73.9003 30.9998 73.7003 29.4998 73.2003C27.9998 72.7003 26.8998 72.0003 26.1998 70.9003C25.4998 69.8003 25.1998 68.4003 25.1998 66.5003V62.3003C25.1998 60.5003 25.4998 59.0003 26.1998 57.9003C26.8998 56.8003 27.9998 56.1003 29.4998 55.6003C30.9998 55.1003 33.0998 54.9003 35.5998 54.9003H36.7998C39.3998 54.9003 41.3998 55.1003 42.8998 55.6003C44.3998 56.1003 45.4998 56.8003 46.0998 57.9003C46.7998 59.0003 47.0998 60.4003 47.0998 62.2003V66.4003C47.0998 68.2003 46.7998 69.7003 46.0998 70.8003C45.3998 71.9003 44.3998 72.6003 42.8998 73.1003C41.3998 73.6003 39.3998 73.8003 36.7998 73.8003H35.5998V73.9003ZM35.5998 70.6003H36.7998C38.7998 70.6003 40.2998 70.5003 41.2998 70.3003C42.2998 70.1003 42.9998 69.7003 43.2998 69.1003C43.5998 68.5003 43.7998 67.6003 43.7998 66.4003V62.4003C43.7998 61.2003 43.5998 60.3003 43.2998 59.7003C42.9998 59.1003 42.2998 58.7003 41.2998 58.5003C40.2998 58.3003 38.7998 58.2003 36.7998 58.2003H35.5998C33.5998 58.2003 32.0998 58.3003 31.0998 58.5003C30.0998 58.7003 29.3998 59.1003 29.0998 59.7003C28.7998 60.3003 28.5998 61.2003 28.5998 62.4003V66.4003C28.5998 67.6003 28.7998 68.5003 29.0998 69.1003C29.3998 69.7003 30.0998 70.1003 31.0998 70.3003C32.0998 70.5003 33.5998 70.6003 35.5998 70.6003ZM53.6998 81.2003C52.5998 81.2003 52.0998 80.5003 52.0998 79.2003V56.6003C52.0998 55.3003 52.6998 54.7003 53.7998 54.7003C54.3998 54.7003 54.7998 54.9003 54.9998 55.3003C55.1998 55.7003 55.3998 56.3003 55.3998 57.2003V58.4003L54.7998 57.6003C55.5998 56.7003 56.6998 56.0003 57.9998 55.6003C59.2998 55.2003 60.7998 55.0003 62.4998 55.0003H63.6998C66.2998 55.0003 68.2998 55.2003 69.7998 55.7003C71.2998 56.2003 72.3998 56.9003 72.9998 58.0003C73.6998 59.1003 73.9998 60.5003 73.9998 62.3003V66.5003C73.9998 68.3003 73.6998 69.8003 72.9998 70.9003C72.2998 72.0003 71.2998 72.7003 69.7998 73.2003C68.2998 73.7003 66.2998 73.9003 63.7998 73.9003H55.4998V79.1003C55.3998 80.5003 54.8998 81.2003 53.6998 81.2003ZM55.3998 70.6003H63.6998C65.6998 70.6003 67.0998 70.5003 68.0998 70.3003C69.0998 70.1003 69.6998 69.7003 69.9998 69.1003C70.2998 68.5003 70.4998 67.6003 70.4998 66.4003V62.4003C70.4998 61.2003 70.2998 60.3003 69.9998 59.7003C69.6998 59.1003 68.9998 58.7003 67.9998 58.5003C66.9998 58.3003 65.4998 58.2003 63.4998 58.2003H62.2998C59.8998 58.2003 58.0998 58.7003 56.9998 59.7003C55.8998 60.7003 55.2998 62.2003 55.2998 64.3003V70.6003H55.3998ZM97.4998 74.2003C96.3998 74.2003 95.7998 73.5003 95.7998 72.1003V59.8003L82.0998 73.9003H78.9998V56.7003C78.9998 55.4003 79.5998 54.7003 80.6998 54.7003C81.7998 54.7003 82.3998 55.4003 82.3998 56.8003V69.3003L96.0998 55.0003H99.0998V72.2003C99.1998 73.5003 98.5998 74.2003 97.4998 74.2003ZM104.7 73.9003V56.6003C104.7 55.3003 105.3 54.7003 106.4 54.7003C107.5 54.7003 108.1 55.3003 108.1 56.6003V70.5003H113.8V56.6003C113.8 55.3003 114.4 54.7003 115.5 54.7003C116.6 54.7003 117.2 55.3003 117.2 56.6003V70.5003H122.9V56.6003C122.9 55.3003 123.5 54.7003 124.6 54.7003C125.7 54.7003 126.3 55.3003 126.3 56.6003V73.9003H104.7ZM133.5 74.2003C132.4 74.2003 131.8 73.6003 131.8 72.3003V56.7003C131.8 55.4003 132.3 54.7003 133.4 54.7003C134.6 54.7003 135.2 55.4003 135.2 56.7003V62.3003H148.7V56.7003C148.7 55.4003 149.3 54.7003 150.4 54.7003C151.5 54.7003 152.1 55.4003 152.1 56.7003V72.3003C152.1 73.6003 151.5 74.2003 150.4 74.2003C149.3 74.2003 148.7 73.6003 148.7 72.3003V65.6003H135.2V72.3003C135.2 73.6003 134.6 74.2003 133.5 74.2003ZM157.6 73.9003V56.7003C157.6 55.4003 158.2 54.7003 159.3 54.7003C160.4 54.7003 161 55.4003 161 56.7003V62.5003H169.6C171.1 62.5003 172.4 62.7003 173.5 63.2003C174.6 63.6003 175.4 64.3003 175.9 65.1003C176.5 65.9003 176.7 67.0003 176.7 68.2003C176.7 69.4003 176.4 70.4003 175.9 71.3003C175.4 72.1003 174.5 72.8003 173.5 73.2003C172.4 73.6003 171.1 73.9003 169.6 73.9003H157.6ZM160.9 70.6003H169.1C170.2 70.6003 171.1 70.5003 172 70.2003C172.9 69.9003 173.3 69.3003 173.3 68.4003C173.3 67.7003 173.1 67.1003 172.8 66.8003C172.5 66.4003 172 66.2003 171.4 66.1003C170.8 66.0003 170 65.9003 169.1 65.9003H160.9V70.6003ZM179.4 74.8003C178.3 74.8003 177.8 74.2003 177.8 72.9003V56.1003C177.8 55.5003 177.9 55.0003 178.2 54.7003C178.5 54.3003 178.9 54.2003 179.4 54.2003C179.9 54.2003 180.3 54.4003 180.6 54.7003C180.9 55.0003 181.1 55.5003 181.1 56.1003V72.9003C181.1 74.2003 180.6 74.8003 179.4 74.8003ZM205.2 74.2003C204.1 74.2003 203.5 73.5003 203.5 72.1003V59.8003L189.8 74.0003H186.7V56.7003C186.7 55.4003 187.3 54.7003 188.4 54.7003C189.5 54.7003 190.1 55.4003 190.1 56.8003V69.3003L203.9 55.0003H206.9V72.2003C206.9 73.5003 206.3 74.2003 205.2 74.2003ZM194.4 54.0003C192.8 54.0003 191.7 53.6003 191.1 52.8003C190.5 52.0003 190.1 50.6003 190.1 48.7003V47.0003H193.5V49.4003C193.5 50.0003 193.6 50.4003 193.7 50.5003C193.8 50.6003 194.2 50.7003 194.7 50.7003H198.8C199.3 50.7003 199.7 50.6003 199.8 50.5003C199.9 50.4003 200 50.0003 200 49.4003V47.0003H203.4V48.7003C203.4 50.7003 203.1 52.0003 202.4 52.8003C201.8 53.6003 200.7 54.0003 199.1 54.0003H194.4Z" fill="#56BCEC"/>
</g>
<defs>
<filter id="filter0_d_98_88" x="-4.00021" y="0.000259399" width="180.6" height="35.6" filterUnits="userSpaceOnUse" color-interpolation-filters="sRGB">
<feFlood flood-opacity="0" result="BackgroundImageFix"/>
<feColorMatrix in="SourceAlpha" type="matrix" values="0 0 0 0 0 0 0 0 0 0 0 0 0 0 0 0 0 0 127 0" result="hardAlpha"/>
<feOffset dy="4"/>
<feGaussianBlur stdDeviation="2"/>
<feComposite in2="hardAlpha" operator="out"/>
<feColorMatrix type="matrix" values="0 0 0 0 0 0 0 0 0 0 0 0 0 0 0 0 0 0 0.25 0"/>
<feBlend mode="normal" in2="BackgroundImageFix" result="effect1_dropShadow_98_88"/>
<feBlend mode="normal" in="SourceGraphic" in2="effect1_dropShadow_98_88" result="shape"/>
</filter>
<clipPath id="clip0_98_88">
<rect width="206.9" height="81.2" fill="white" transform="translate(-0.000213623 0.000259399)"/>
</clipPath>
</defs>
</svg>
