<svg width="207" height="82" fill="none" xmlns="http://www.w3.org/2000/svg"><g clip-path="url(#a)"><g filter="url(#b)"><mask id="c" fill="#fff"><path d="M1.7 27.6c-.5 0-.8-.1-1.2-.4-.3-.3-.5-.6-.5-1s0-.7.1-1L9.7 1h3.6l9.5 24.1c.1.3.1.6.1 1s-.2.7-.5 1c-.3.3-.7.4-1.2.4-.8 0-1.4-.4-1.7-1.3l-2.7-6.9H6.1l-2.7 6.9c-.4.9-.9 1.4-1.7 1.4ZM7.4 16h8.1L11.4 6l-4 10Zm36.3 11.2c-1.1 0-1.7-.7-1.7-2V11.4h-7.9c-.9 0-1.5.1-1.8.3-.3.2-.4.7-.4 1.3v8.5c0 1.3-.2 2.3-.5 3.1-.3.8-.9 1.4-1.6 1.8-.8.4-1.8.6-2.9.6-.7 0-1.3-.1-1.7-.4-.4-.3-.7-.7-.7-1.3 0-1.1.7-1.7 2.1-1.7.7 0 1.2-.1 1.5-.3.3-.2.4-.6.4-1.3v-8.5c0-1.4.2-2.5.5-3.3.3-.8.8-1.3 1.6-1.7.7-.3 1.8-.5 3.1-.5h11.6v17.2c0 1.3-.5 2-1.6 2Zm17-.3c-2.6 0-4.6-.2-6.1-.7-1.5-.5-2.6-1.2-3.3-2.3-.7-1.1-1-2.5-1-4.4v-4.2c0-1.8.3-3.3 1-4.4.7-1.1 1.8-1.8 3.3-2.3 1.5-.4 3.5-.6 6.1-.6h1.2c2.6 0 4.6.2 6.1.7 1.5.5 2.6 1.2 3.2 2.3.7 1.1 1 2.5 1 4.3v2.2H53.7v1.9c0 1.2.2 2.1.5 2.7.3.6 1 1 2 1.2 1 .2 2.5.3 4.5.3h6.2c.6 0 1-.1 1.2-.3.2-.2.3-.7.3-1.3 0-.7.1-1.2.4-1.6.3-.4.7-.6 1.3-.6.5 0 1 .2 1.2.6.3.4.4.9.4 1.7 0 1.1-.2 2-.5 2.8-.3.7-.8 1.3-1.5 1.6-.7.3-1.5.5-2.6.5h-6.4v-.1Zm-7-12.7h15.1c-.1-1.2-.6-1.9-1.4-2.2-.5-.2-1.2-.3-2.1-.4-.9-.1-2.1-.1-3.4-.1h-1.2c-1.4 0-2.6.1-3.6.2-.9.1-1.6.2-2.1.4-.7.2-1.2.9-1.3 2.1Zm24.9 13c-.5 0-.9-.2-1.2-.5-.3-.3-.4-.8-.4-1.3V9.6c0-.6.2-1 .5-1.3.3-.3.7-.5 1.3-.5.5 0 .9.2 1.2.5.3.3.4.8.4 1.3v6.2h3.8c.3 0 .6-.2 1-.6.4-.4.9-1.1 1.6-2.2.5-.8 1.2-1.6 1.9-2.4.7-.8 1.6-1.5 2.7-2.1 1-.5 2.3-.8 3.6-.8.6 0 1.1.1 1.5.4.4.3.6.7.6 1.2 0 .6-.2 1-.5 1.3-.4.3-.9.4-1.6.4-.7 0-1.4.3-2 .8-.7.5-1.5 1.5-2.4 2.8-.2.3-.5.6-.7.9-.2.3-.4.5-.6.8l-.6.6c1 .5 2 1.1 2.8 1.9.9.8 1.4 1.6 1.7 2.4.3.8.6 1.5.9 1.9.3.4.6.6.8.6.6 0 1.1.2 1.5.5.4.3.6.7.6 1.2 0 1.1-.7 1.7-2.1 1.7-.9 0-1.7-.1-2.4-.4-.7-.3-1.2-.7-1.6-1.3-.4-.5-.7-1.1-1-1.6-.3-.5-.5-1-.9-1.6-.3-.5-.8-1.1-1.5-1.7-1.1-1-3-1.5-5.7-1.5h-1.6v6.3c0 .5-.2 1-.5 1.3-.1.4-.6.6-1.1.6Zm32.5-.3c-2.6 0-4.6-.2-6.1-.7-1.5-.5-2.6-1.2-3.3-2.3-.7-1.1-1-2.5-1-4.4v-4.2c0-1.8.3-3.3 1-4.4.7-1.1 1.8-1.8 3.3-2.3 1.5-.5 3.6-.7 6.1-.7h5.6c1.1 0 1.9.2 2.6.5.7.3 1.2.9 1.5 1.6.3.7.5 1.6.5 2.8 0 .7-.1 1.3-.4 1.7-.3.4-.7.6-1.2.6s-.9-.2-1.2-.5c-.3-.4-.4-.9-.4-1.5 0-.7-.1-1.1-.3-1.4-.2-.2-.6-.4-1.2-.4h-5.4c-2 0-3.5.1-4.5.3-1 .2-1.7.6-2 1.2-.3.6-.5 1.5-.5 2.7v4c0 1.2.2 2.1.5 2.7.3.6 1 1 2 1.2 1 .2 2.5.3 4.5.3h5.4c.6 0 1-.1 1.2-.3.2-.2.3-.7.3-1.3 0-.6.1-1.1.4-1.5.3-.4.7-.6 1.2-.6s.9.2 1.2.6c.3.4.5.9.5 1.7 0 1.1-.2 2-.5 2.8-.3.7-.8 1.3-1.5 1.6-.7.3-1.5.5-2.6.5h-5.7v-.3Zm25 0c-2.6 0-4.6-.2-6.1-.7-1.5-.5-2.6-1.2-3.3-2.3-.7-1.1-1-2.5-1-4.4v-4.2c0-1.8.3-3.3 1-4.4.7-1.1 1.8-1.8 3.3-2.3 1.5-.5 3.6-.7 6.1-.7h1.2c2.6 0 4.6.2 6.1.7 1.5.5 2.6 1.2 3.2 2.3.7 1.1 1 2.5 1 4.3v2.2h-18.5v1.9c0 1.2.2 2.1.5 2.7.3.6 1 1 2 1.2 1 .2 2.5.3 4.5.3h6.2c.6 0 1-.1 1.2-.3.2-.2.3-.7.3-1.3 0-.7.1-1.2.4-1.6.3-.4.7-.6 1.3-.6.5 0 1 .2 1.2.6.3.4.4.9.4 1.7 0 1.1-.2 2-.5 2.8-.3.7-.8 1.3-1.5 1.6-.7.3-1.5.5-2.6.5h-6.4Zm-7-12.7h15.1c-.1-1.2-.6-1.9-1.4-2.2-.5-.2-1.2-.3-2.1-.4-.9-.1-2.1-.1-3.4-.1h-1.2c-1.4 0-2.6.1-3.6.2-.9.1-1.6.2-2.1.4-.8.2-1.2.9-1.3 2.1Zm41.8 13c-1.1 0-1.7-.7-1.7-2.1V12.8L155.5 27h-3.1V9.7c0-1.3.6-2 1.7-2s1.7.7 1.7 2.1v12.5L169.6 8h3v17.2c0 1.3-.6 2-1.7 2ZM160.2 7c-1.6 0-2.7-.4-3.3-1.2-.6-.8-1-2.2-1-4.1V0h3.4v2.4c0 .6.1 1 .2 1.1.1.1.5.2 1 .2h4.1c.5 0 .9-.1 1-.2.1-.1.2-.5.2-1.1V0h3.4v1.7c0 2-.3 3.3-1 4.1-.6.8-1.7 1.2-3.3 1.2h-4.7Z"/></mask><path d="M1.7 27.6c-.5 0-.8-.1-1.2-.4-.3-.3-.5-.6-.5-1s0-.7.1-1L9.7 1h3.6l9.5 24.1c.1.3.1.6.1 1s-.2.7-.5 1c-.3.3-.7.4-1.2.4-.8 0-1.4-.4-1.7-1.3l-2.7-6.9H6.1l-2.7 6.9c-.4.9-.9 1.4-1.7 1.4ZM7.4 16h8.1L11.4 6l-4 10Zm36.3 11.2c-1.1 0-1.7-.7-1.7-2V11.4h-7.9c-.9 0-1.5.1-1.8.3-.3.2-.4.7-.4 1.3v8.5c0 1.3-.2 2.3-.5 3.1-.3.8-.9 1.4-1.6 1.8-.8.4-1.8.6-2.9.6-.7 0-1.3-.1-1.7-.4-.4-.3-.7-.7-.7-1.3 0-1.1.7-1.7 2.1-1.7.7 0 1.2-.1 1.5-.3.3-.2.4-.6.4-1.3v-8.5c0-1.4.2-2.5.5-3.3.3-.8.8-1.3 1.6-1.7.7-.3 1.8-.5 3.1-.5h11.6v17.2c0 1.3-.5 2-1.6 2Zm17-.3c-2.6 0-4.6-.2-6.1-.7-1.5-.5-2.6-1.2-3.3-2.3-.7-1.1-1-2.5-1-4.4v-4.2c0-1.8.3-3.3 1-4.4.7-1.1 1.8-1.8 3.3-2.3 1.5-.4 3.5-.6 6.1-.6h1.2c2.6 0 4.6.2 6.1.7 1.5.5 2.6 1.2 3.2 2.3.7 1.1 1 2.5 1 4.3v2.2H53.7v1.9c0 1.2.2 2.1.5 2.7.3.6 1 1 2 1.2 1 .2 2.5.3 4.5.3h6.2c.6 0 1-.1 1.2-.3.2-.2.3-.7.3-1.3 0-.7.1-1.2.4-1.6.3-.4.7-.6 1.3-.6.5 0 1 .2 1.2.6.3.4.4.9.4 1.7 0 1.1-.2 2-.5 2.8-.3.7-.8 1.3-1.5 1.6-.7.3-1.5.5-2.6.5h-6.4v-.1Zm-7-12.7h15.1c-.1-1.2-.6-1.9-1.4-2.2-.5-.2-1.2-.3-2.1-.4-.9-.1-2.1-.1-3.4-.1h-1.2c-1.4 0-2.6.1-3.6.2-.9.1-1.6.2-2.1.4-.7.2-1.2.9-1.3 2.1Zm24.9 13c-.5 0-.9-.2-1.2-.5-.3-.3-.4-.8-.4-1.3V9.6c0-.6.2-1 .5-1.3.3-.3.7-.5 1.3-.5.5 0 .9.2 1.2.5.3.3.4.8.4 1.3v6.2h3.8c.3 0 .6-.2 1-.6.4-.4.9-1.1 1.6-2.2.5-.8 1.2-1.6 1.9-2.4.7-.8 1.6-1.5 2.7-2.1 1-.5 2.3-.8 3.6-.8.6 0 1.1.1 1.5.4.4.3.6.7.6 1.2 0 .6-.2 1-.5 1.3-.4.3-.9.4-1.6.4-.7 0-1.4.3-2 .8-.7.5-1.5 1.5-2.4 2.8-.2.3-.5.6-.7.9-.2.3-.4.5-.6.8l-.6.6c1 .5 2 1.1 2.8 1.9.9.8 1.4 1.6 1.7 2.4.3.8.6 1.5.9 1.9.3.4.6.6.8.6.6 0 1.1.2 1.5.5.4.3.6.7.6 1.2 0 1.1-.7 1.7-2.1 1.7-.9 0-1.7-.1-2.4-.4-.7-.3-1.2-.7-1.6-1.3-.4-.5-.7-1.1-1-1.6-.3-.5-.5-1-.9-1.6-.3-.5-.8-1.1-1.5-1.7-1.1-1-3-1.5-5.7-1.5h-1.6v6.3c0 .5-.2 1-.5 1.3-.1.4-.6.6-1.1.6Zm32.5-.3c-2.6 0-4.6-.2-6.1-.7-1.5-.5-2.6-1.2-3.3-2.3-.7-1.1-1-2.5-1-4.4v-4.2c0-1.8.3-3.3 1-4.4.7-1.1 1.8-1.8 3.3-2.3 1.5-.5 3.6-.7 6.1-.7h5.6c1.1 0 1.9.2 2.6.5.7.3 1.2.9 1.5 1.6.3.7.5 1.6.5 2.8 0 .7-.1 1.3-.4 1.7-.3.4-.7.6-1.2.6s-.9-.2-1.2-.5c-.3-.4-.4-.9-.4-1.5 0-.7-.1-1.1-.3-1.4-.2-.2-.6-.4-1.2-.4h-5.4c-2 0-3.5.1-4.5.3-1 .2-1.7.6-2 1.2-.3.6-.5 1.5-.5 2.7v4c0 1.2.2 2.1.5 2.7.3.6 1 1 2 1.2 1 .2 2.5.3 4.5.3h5.4c.6 0 1-.1 1.2-.3.2-.2.3-.7.3-1.3 0-.6.1-1.1.4-1.5.3-.4.7-.6 1.2-.6s.9.2 1.2.6c.3.4.5.9.5 1.7 0 1.1-.2 2-.5 2.8-.3.7-.8 1.3-1.5 1.6-.7.3-1.5.5-2.6.5h-5.7v-.3Zm25 0c-2.6 0-4.6-.2-6.1-.7-1.5-.5-2.6-1.2-3.3-2.3-.7-1.1-1-2.5-1-4.4v-4.2c0-1.8.3-3.3 1-4.4.7-1.1 1.8-1.8 3.3-2.3 1.5-.5 3.6-.7 6.1-.7h1.2c2.6 0 4.6.2 6.1.7 1.5.5 2.6 1.2 3.2 2.3.7 1.1 1 2.5 1 4.3v2.2h-18.5v1.9c0 1.2.2 2.1.5 2.7.3.6 1 1 2 1.2 1 .2 2.5.3 4.5.3h6.2c.6 0 1-.1 1.2-.3.2-.2.3-.7.3-1.3 0-.7.1-1.2.4-1.6.3-.4.7-.6 1.3-.6.5 0 1 .2 1.2.6.3.4.4.9.4 1.7 0 1.1-.2 2-.5 2.8-.3.7-.8 1.3-1.5 1.6-.7.3-1.5.5-2.6.5h-6.4Zm-7-12.7h15.1c-.1-1.2-.6-1.9-1.4-2.2-.5-.2-1.2-.3-2.1-.4-.9-.1-2.1-.1-3.4-.1h-1.2c-1.4 0-2.6.1-3.6.2-.9.1-1.6.2-2.1.4-.8.2-1.2.9-1.3 2.1Zm41.8 13c-1.1 0-1.7-.7-1.7-2.1V12.8L155.5 27h-3.1V9.7c0-1.3.6-2 1.7-2s1.7.7 1.7 2.1v12.5L169.6 8h3v17.2c0 1.3-.6 2-1.7 2ZM160.2 7c-1.6 0-2.7-.4-3.3-1.2-.6-.8-1-2.2-1-4.1V0h3.4v2.4c0 .6.1 1 .2 1.1.1.1.5.2 1 .2h4.1c.5 0 .9-.1 1-.2.1-.1.2-.5.2-1.1V0h3.4v1.7c0 2-.3 3.3-1 4.1-.6.8-1.7 1.2-3.3 1.2h-4.7Z" fill="#282828"/><path d="M1.7 27.6c-.5 0-.8-.1-1.2-.4-.3-.3-.5-.6-.5-1s0-.7.1-1L9.7 1h3.6l9.5 24.1c.1.3.1.6.1 1s-.2.7-.5 1c-.3.3-.7.4-1.2.4-.8 0-1.4-.4-1.7-1.3l-2.7-6.9H6.1l-2.7 6.9c-.4.9-.9 1.4-1.7 1.4ZM7.4 16h8.1L11.4 6l-4 10Zm36.3 11.2c-1.1 0-1.7-.7-1.7-2V11.4h-7.9c-.9 0-1.5.1-1.8.3-.3.2-.4.7-.4 1.3v8.5c0 1.3-.2 2.3-.5 3.1-.3.8-.9 1.4-1.6 1.8-.8.4-1.8.6-2.9.6-.7 0-1.3-.1-1.7-.4-.4-.3-.7-.7-.7-1.3 0-1.1.7-1.7 2.1-1.7.7 0 1.2-.1 1.5-.3.3-.2.4-.6.4-1.3v-8.5c0-1.4.2-2.5.5-3.3.3-.8.8-1.3 1.6-1.7.7-.3 1.8-.5 3.1-.5h11.6v17.2c0 1.3-.5 2-1.6 2Zm17-.3c-2.6 0-4.6-.2-6.1-.7-1.5-.5-2.6-1.2-3.3-2.3-.7-1.1-1-2.5-1-4.4v-4.2c0-1.8.3-3.3 1-4.4.7-1.1 1.8-1.8 3.3-2.3 1.5-.4 3.5-.6 6.1-.6h1.2c2.6 0 4.6.2 6.1.7 1.5.5 2.6 1.2 3.2 2.3.7 1.1 1 2.5 1 4.3v2.2H53.7v1.9c0 1.2.2 2.1.5 2.7.3.6 1 1 2 1.2 1 .2 2.5.3 4.5.3h6.2c.6 0 1-.1 1.2-.3.2-.2.3-.7.3-1.3 0-.7.1-1.2.4-1.6.3-.4.7-.6 1.3-.6.5 0 1 .2 1.2.6.3.4.4.9.4 1.7 0 1.1-.2 2-.5 2.8-.3.7-.8 1.3-1.5 1.6-.7.3-1.5.5-2.6.5h-6.4v-.1Zm-7-12.7h15.1c-.1-1.2-.6-1.9-1.4-2.2-.5-.2-1.2-.3-2.1-.4-.9-.1-2.1-.1-3.4-.1h-1.2c-1.4 0-2.6.1-3.6.2-.9.1-1.6.2-2.1.4-.7.2-1.2.9-1.3 2.1Zm24.9 13c-.5 0-.9-.2-1.2-.5-.3-.3-.4-.8-.4-1.3V9.6c0-.6.2-1 .5-1.3.3-.3.7-.5 1.3-.5.5 0 .9.2 1.2.5.3.3.4.8.4 1.3v6.2h3.8c.3 0 .6-.2 1-.6.4-.4.9-1.1 1.6-2.2.5-.8 1.2-1.6 1.9-2.4.7-.8 1.6-1.5 2.7-2.1 1-.5 2.3-.8 3.6-.8.6 0 1.1.1 1.5.4.4.3.6.7.6 1.2 0 .6-.2 1-.5 1.3-.4.3-.9.4-1.6.4-.7 0-1.4.3-2 .8-.7.5-1.5 1.5-2.4 2.8-.2.3-.5.6-.7.9-.2.3-.4.5-.6.8l-.6.6c1 .5 2 1.1 2.8 1.9.9.8 1.4 1.6 1.7 2.4.3.8.6 1.5.9 1.9.3.4.6.6.8.6.6 0 1.1.2 1.5.5.4.3.6.7.6 1.2 0 1.1-.7 1.7-2.1 1.7-.9 0-1.7-.1-2.4-.4-.7-.3-1.2-.7-1.6-1.3-.4-.5-.7-1.1-1-1.6-.3-.5-.5-1-.9-1.6-.3-.5-.8-1.1-1.5-1.7-1.1-1-3-1.5-5.7-1.5h-1.6v6.3c0 .5-.2 1-.5 1.3-.1.4-.6.6-1.1.6Zm32.5-.3c-2.6 0-4.6-.2-6.1-.7-1.5-.5-2.6-1.2-3.3-2.3-.7-1.1-1-2.5-1-4.4v-4.2c0-1.8.3-3.3 1-4.4.7-1.1 1.8-1.8 3.3-2.3 1.5-.5 3.6-.7 6.1-.7h5.6c1.1 0 1.9.2 2.6.5.7.3 1.2.9 1.5 1.6.3.7.5 1.6.5 2.8 0 .7-.1 1.3-.4 1.7-.3.4-.7.6-1.2.6s-.9-.2-1.2-.5c-.3-.4-.4-.9-.4-1.5 0-.7-.1-1.1-.3-1.4-.2-.2-.6-.4-1.2-.4h-5.4c-2 0-3.5.1-4.5.3-1 .2-1.7.6-2 1.2-.3.6-.5 1.5-.5 2.7v4c0 1.2.2 2.1.5 2.7.3.6 1 1 2 1.2 1 .2 2.5.3 4.5.3h5.4c.6 0 1-.1 1.2-.3.2-.2.3-.7.3-1.3 0-.6.1-1.1.4-1.5.3-.4.7-.6 1.2-.6s.9.2 1.2.6c.3.4.5.9.5 1.7 0 1.1-.2 2-.5 2.8-.3.7-.8 1.3-1.5 1.6-.7.3-1.5.5-2.6.5h-5.7v-.3Zm25 0c-2.6 0-4.6-.2-6.1-.7-1.5-.5-2.6-1.2-3.3-2.3-.7-1.1-1-2.5-1-4.4v-4.2c0-1.8.3-3.3 1-4.4.7-1.1 1.8-1.8 3.3-2.3 1.5-.5 3.6-.7 6.1-.7h1.2c2.6 0 4.6.2 6.1.7 1.5.5 2.6 1.2 3.2 2.3.7 1.1 1 2.5 1 4.3v2.2h-18.5v1.9c0 1.2.2 2.1.5 2.7.3.6 1 1 2 1.2 1 .2 2.5.3 4.5.3h6.2c.6 0 1-.1 1.2-.3.2-.2.3-.7.3-1.3 0-.7.1-1.2.4-1.6.3-.4.7-.6 1.3-.6.5 0 1 .2 1.2.6.3.4.4.9.4 1.7 0 1.1-.2 2-.5 2.8-.3.7-.8 1.3-1.5 1.6-.7.3-1.5.5-2.6.5h-6.4Zm-7-12.7h15.1c-.1-1.2-.6-1.9-1.4-2.2-.5-.2-1.2-.3-2.1-.4-.9-.1-2.1-.1-3.4-.1h-1.2c-1.4 0-2.6.1-3.6.2-.9.1-1.6.2-2.1.4-.8.2-1.2.9-1.3 2.1Zm41.8 13c-1.1 0-1.7-.7-1.7-2.1V12.8L155.5 27h-3.1V9.7c0-1.3.6-2 1.7-2s1.7.7 1.7 2.1v12.5L169.6 8h3v17.2c0 1.3-.6 2-1.7 2ZM160.2 7c-1.6 0-2.7-.4-3.3-1.2-.6-.8-1-2.2-1-4.1V0h3.4v2.4c0 .6.1 1 .2 1.1.1.1.5.2 1 .2h4.1c.5 0 .9-.1 1-.2.1-.1.2-.5.2-1.1V0h3.4v1.7c0 2-.3 3.3-1 4.1-.6.8-1.7 1.2-3.3 1.2h-4.7Z" stroke="#000" stroke-width="2" mask="url(#c)"/></g><path d="M4 74.2c-1.1 0-1.7-.6-1.7-1.9V53.6c0-2 .3-3.5 1-4.3.8-.9 2-1.3 3.7-1.3h13.4c1.4 0 2 .6 2 1.7s-.7 1.7-2 1.7H7.2c-.6 0-1 .1-1.3.3-.2.2-.3.7-.3 1.3v19.3c.1 1.3-.5 1.9-1.6 1.9Zm31.6-.3c-2.6 0-4.6-.2-6.1-.7-1.5-.5-2.6-1.2-3.3-2.3-.7-1.1-1-2.5-1-4.4v-4.2c0-1.8.3-3.3 1-4.4.7-1.1 1.8-1.8 3.3-2.3 1.5-.5 3.6-.7 6.1-.7h1.2c2.6 0 4.6.2 6.1.7 1.5.5 2.6 1.2 3.2 2.3.7 1.1 1 2.5 1 4.3v4.2c0 1.8-.3 3.3-1 4.4-.7 1.1-1.7 1.8-3.2 2.3-1.5.5-3.5.7-6.1.7h-1.2v.1Zm0-3.3h1.2c2 0 3.5-.1 4.5-.3 1-.2 1.7-.6 2-1.2.3-.6.5-1.5.5-2.7v-4c0-1.2-.2-2.1-.5-2.7-.3-.6-1-1-2-1.2-1-.2-2.5-.3-4.5-.3h-1.2c-2 0-3.5.1-4.5.3-1 .2-1.7.6-2 1.2-.3.6-.5 1.5-.5 2.7v4c0 1.2.2 2.1.5 2.7.3.6 1 1 2 1.2 1 .2 2.5.3 4.5.3Zm18.1 10.6c-1.1 0-1.6-.7-1.6-2V56.6c0-1.3.6-1.9 1.7-1.9.6 0 1 .2 1.2.6.2.4.4 1 .4 1.9v1.2l-.6-.8c.8-.9 1.9-1.6 3.2-2 1.3-.4 2.8-.6 4.5-.6h1.2c2.6 0 4.6.2 6.1.7 1.5.5 2.6 1.2 3.2 2.3.7 1.1 1 2.5 1 4.3v4.2c0 1.8-.3 3.3-1 4.4-.7 1.1-1.7 1.8-3.2 2.3-1.5.5-3.5.7-6 .7h-8.3v5.2c-.1 1.4-.6 2.1-1.8 2.1Zm1.7-10.6h8.3c2 0 3.4-.1 4.4-.3 1-.2 1.6-.6 1.9-1.2.3-.6.5-1.5.5-2.7v-4c0-1.2-.2-2.1-.5-2.7-.3-.6-1-1-2-1.2-1-.2-2.5-.3-4.5-.3h-1.2c-2.4 0-4.2.5-5.3 1.5-1.1 1-1.7 2.5-1.7 4.6v6.3h.1Zm42.1 3.6c-1.1 0-1.7-.7-1.7-2.1V59.8L82.1 73.9H79V56.7c0-1.3.6-2 1.7-2s1.7.7 1.7 2.1v12.5L96.1 55h3v17.2c.1 1.3-.5 2-1.6 2Zm7.2-.3V56.6c0-1.3.6-1.9 1.7-1.9s1.7.6 1.7 1.9v13.9h5.7V56.6c0-1.3.6-1.9 1.7-1.9s1.7.6 1.7 1.9v13.9h5.7V56.6c0-1.3.6-1.9 1.7-1.9s1.7.6 1.7 1.9v17.3h-21.6Zm28.8.3c-1.1 0-1.7-.6-1.7-1.9V56.7c0-1.3.5-2 1.6-2 1.2 0 1.8.7 1.8 2v5.6h13.5v-5.6c0-1.3.6-2 1.7-2s1.7.7 1.7 2v15.6c0 1.3-.6 1.9-1.7 1.9s-1.7-.6-1.7-1.9v-6.7h-13.5v6.7c0 1.3-.6 1.9-1.7 1.9Zm24.1-.3V56.7c0-1.3.6-2 1.7-2s1.7.7 1.7 2v5.8h8.6c1.5 0 2.8.2 3.9.7 1.1.4 1.9 1.1 2.4 1.9.6.8.8 1.9.8 3.1 0 1.2-.3 2.2-.8 3.1-.5.8-1.4 1.5-2.4 1.9-1.1.4-2.4.7-3.9.7h-12Zm3.3-3.3h8.2c1.1 0 2-.1 2.9-.4.9-.3 1.3-.9 1.3-1.8 0-.7-.2-1.3-.5-1.6-.3-.4-.8-.6-1.4-.7-.6-.1-1.4-.2-2.3-.2h-8.2v4.7Zm18.5 4.2c-1.1 0-1.6-.6-1.6-1.9V56.1c0-.6.1-1.1.4-1.4.3-.4.7-.5 1.2-.5s.9.2 1.2.5c.3.3.5.8.5 1.4v16.8c0 1.3-.5 1.9-1.7 1.9Zm25.8-.6c-1.1 0-1.7-.7-1.7-2.1V59.8L189.8 74h-3.1V56.7c0-1.3.6-2 1.7-2s1.7.7 1.7 2.1v12.5L203.9 55h3v17.2c0 1.3-.6 2-1.7 2ZM194.4 54c-1.6 0-2.7-.4-3.3-1.2-.6-.8-1-2.2-1-4.1V47h3.4v2.4c0 .6.1 1 .2 1.1.1.1.5.2 1 .2h4.1c.5 0 .9-.1 1-.2.1-.1.2-.5.2-1.1V47h3.4v1.7c0 2-.3 3.3-1 4.1-.6.8-1.7 1.2-3.3 1.2h-4.7Z" fill="#56BCEC"/></g><defs><clipPath id="a"><path fill="#fff" d="M0 0h206.9v81.2H0z"/></clipPath><filter id="b" x="-4" y="0" width="180.6" height="35.6" filterUnits="userSpaceOnUse" color-interpolation-filters="sRGB"><feFlood flood-opacity="0" result="BackgroundImageFix"/><feColorMatrix in="SourceAlpha" values="0 0 0 0 0 0 0 0 0 0 0 0 0 0 0 0 0 0 127 0" result="hardAlpha"/><feOffset dy="4"/><feGaussianBlur stdDeviation="2"/><feComposite in2="hardAlpha" operator="out"/><feColorMatrix values="0 0 0 0 0 0 0 0 0 0 0 0 0 0 0 0 0 0 0.25 0"/><feBlend in2="BackgroundImageFix" result="effect1_dropShadow_98_88"/><feBlend in="SourceGraphic" in2="effect1_dropShadow_98_88" result="shape"/></filter></defs></svg>