<svg width="270" height="175" fill="none" xmlns="http://www.w3.org/2000/svg"><path fill="#fff" d="M0 0h270v175H0z"/><path d="M154.402 104.169c.421-.913.913-1.861 1.053-2.072v-.035c.141-.211.878-.421 1.581-.421 1.264-.035 1.334.035 1.791 1.65.281.913.597 1.826.737 2.037.141.176 1.089 2.81 2.107 5.795 1.054 2.985 2.213 6.391 2.634 7.55.386 1.159.808 2.248.913 2.458.141.176.492 1.229.808 2.283.351 1.054.808 2.493 1.089 3.161.28.667.983 2.633 1.615 4.389.632 1.721 1.334 3.828 1.615 4.636.246.843.352 1.44.176 1.37-.14-.106-1.756-.562-3.582-1.089a223.284 223.284 0 0 0-7.024-1.756l-.843 1.229c-.456.667-1.791 2.564-2.914 4.214-1.124 1.651-2.178 3.056-2.389 3.091-.21.07-.561-.492-.807-1.229-.281-.738-.773-2.213-1.124-3.266-.351-1.054-1.229-3.512-1.932-5.444-.702-1.931-1.58-4.389-1.931-5.443a286.933 286.933 0 0 0-2.107-5.97 751.153 751.153 0 0 1-2.88-8.077c-.772-2.213-1.51-4.355-1.615-4.706-.246-.667-.211-.667.878-.105.632.316 1.475.597 1.861.597.386 0 1.089-.422 1.545-.984.457-.527 1.229-1.369 2.494-2.879l1.931.561c1.054.316 2.283.457 2.704.352.527-.141 1.089-.843 1.616-1.897Z" fill="url(#a)"/><path d="M111.417 104.451c.316-1.054.737-2.143.878-2.353v-.035c.14-.211.878-.422 1.615-.422 1.335 0 1.44.07 1.932 1.475.281.843.913 1.896 1.405 2.388.913.878.913.878 5.478-.175l1.545 1.826c.948 1.088 1.862 1.861 2.283 1.861.386 0 1.159-.246 1.756-.527.983-.491 1.053-.491 1.053.07 0 .352-.105.773-.245.949-.141.175-.597 1.264-1.019 2.458a602.089 602.089 0 0 1-1.861 5.478c-.632 1.826-2.002 5.795-3.091 8.78-1.053 2.985-2.036 5.759-2.212 6.146-.176.386-1.054 2.914-1.967 5.618-.913 2.705-1.72 4.987-1.826 5.093-.07.105-.21 0-.281-.176-.07-.211-1.088-1.686-2.247-3.336-1.124-1.651-2.529-3.582-3.056-4.32-.667-.878-1.159-1.229-1.51-1.088-.281.105-1.931.597-3.687 1.088a139.577 139.577 0 0 0-4.46 1.264c-.738.246-1.405.352-1.51.246-.141-.105.456-2.142 1.264-4.565.808-2.423 1.651-4.881 1.896-5.443.246-.562.949-2.494 1.51-4.215.597-1.72 1.827-5.232 2.705-7.726a479.497 479.497 0 0 1 2.317-6.496c.387-1.054.984-2.81 1.335-3.863Z" fill="url(#b)"/><path d="M131.119 32.458c.702 0 1.474-.386 2.388-1.229h-.036c.738-.667 1.546-1.229 1.756-1.229.246 0 1.124.562 1.932 1.23.948.772 1.896 1.228 2.458 1.228.562 0 1.616-.316 2.388-.702.773-.386 1.616-.703 1.826-.703.246 0 1.194.843 3.688 3.688l2.247-.492c1.23-.245 2.459-.386 2.669-.245.246.105.843 1.088 1.335 2.142.597 1.334 1.124 2.001 1.651 2.107.456.105 1.685.21 4.635.351l.422 2.107c.281 1.264.702 2.283 1.088 2.564.351.245 1.019.526 1.51.632.492.105 1.335.28 1.932.421.983.246 1.053.386 1.159 2.178.035 1.053.14 2.282.246 2.704.105.562.807 1.123 2.212 1.79 1.686.808 2.002 1.124 1.932 1.827-.036.492-.176 1.65-.562 4.39l3.792 3.3-2.107 4.285.703 1.23c.386.702 1.053 1.615 1.51 2.001.421.421.772.878.772 1.018 0 .176-.632 1.124-1.404 2.108-.808 1.018-1.44 2.107-1.405 2.388 0 .28.386 1.264.878 2.212.492.913.843 1.861.808 2.142-.071.246-.808 1.019-1.686 1.686-1.475 1.124-1.58 1.3-1.545 2.774.035.843.175 2.107.316 2.775.246 1.194.211 1.229-1.264 1.86-.843.352-1.897.984-2.353 1.406-.668.632-.773 1.123-.773 2.95 0 1.966-.105 2.247-.773 2.528-.456.21-1.404.421-2.107.527-.737.14-1.65.562-2.037.983-.351.457-.737 1.51-.842 2.388-.106.878-.387 1.791-.633 2.002-.304.304-.983.374-2.036.21-1.159-.175-1.827-.07-2.529.352-.562.316-1.334 1.334-1.721 2.247-.421.949-.948 1.791-1.159 1.932-.21.105-1.159 0-2.142-.316-.948-.281-2.107-.422-2.528-.316-.457.105-1.335.913-1.932 1.756-.632.878-1.299 1.65-1.51 1.756-.211.105-1.089-.211-2.002-.703-.948-.456-2.037-.843-2.458-.843-.457-.035-1.51.527-2.388 1.229-.878.668-1.791 1.23-2.002 1.23-.246 0-1.124-.562-1.931-1.23-.949-.772-1.897-1.229-2.459-1.229s-1.721.422-4.214 1.932l-1.791-2.002c-1.018-1.124-2.072-2.037-2.353-2.037-.281 0-1.37.246-2.353.527-1.475.421-1.931.421-2.177.07-.176-.21-.667-1.194-1.124-2.142-.527-1.089-1.159-1.861-1.721-2.037-.491-.175-1.51-.246-2.283-.175-.772.105-1.65.07-1.931-.106-.281-.14-.632-1.053-.773-2.072-.175-1.053-.562-2.072-.983-2.493-.386-.386-1.299-.808-2.002-.913-.737-.106-1.685-.316-2.107-.527-.702-.28-.808-.562-.737-2.177.035-.984-.035-2.178-.176-2.634-.176-.492-.913-1.089-2.177-1.65-1.054-.492-2.002-1.02-2.107-1.23-.106-.21.07-1.159.351-2.107.281-.983.421-2.037.316-2.388-.141-.316-1.019-1.335-3.828-3.828l1.018-1.896c.703-1.3.949-2.178.808-2.775-.105-.491-.772-1.545-1.44-2.352C96.562 70 96 69.263 96 69.156c0-.106.632-.913 1.405-1.826.843-.984 1.404-2.037 1.404-2.564 0-.492-.386-1.51-.877-2.283-.457-.772-.878-1.615-.878-1.826 0-.246.667-.948 1.51-1.545.807-.597 1.65-1.405 1.896-1.826.316-.597.316-1.194-.105-2.774-.281-1.124-.422-2.213-.316-2.389.105-.175 1.053-.737 2.107-1.229 1.053-.491 2.037-1.159 2.177-1.475.141-.35.246-1.58.281-4.81l2.107-.492c1.159-.246 2.318-.668 2.564-.878.246-.246.597-.984.772-1.651.141-.667.387-1.65.492-2.177.211-.948.316-.984 2.318-.984 1.159 0 2.423-.175 2.809-.35.387-.176 1.089-1.23 1.581-2.284.491-1.088 1.123-1.931 1.404-1.931.281 0 1.3.21 2.248.456 1.405.352 1.896.352 2.564-.035.456-.245 1.229-1.088 1.791-1.86.526-.738 1.194-1.37 1.475-1.37.281 0 1.159.316 1.931.702.773.386 1.861.702 2.459.702Z" fill="url(#c)"/><path d="M128.133 37.867c.176-.07 1.054-.246 1.932-.422.878-.175 3.547-.28 5.97-.21 2.423.07 5.022.245 5.795.456.772.175 1.791.421 2.282.527.492.105 1.194.316 1.581.421.386.14 2.142.913 3.863 1.791 1.72.843 4.179 2.353 5.443 3.336 1.264.984 2.739 2.283 3.336 2.88a47.504 47.504 0 0 1 2.283 2.634c.667.843 1.58 2.072 2.002 2.774.421.738 1.053 1.756 1.369 2.353.316.597 1.019 2.318 1.581 3.863.527 1.545 1.053 3.266 1.159 3.863.105.597.281 1.44.421 1.932.105.491.176 2.915.176 5.443 0 3.547-.176 5.162-.738 7.2a94.017 94.017 0 0 1-.843 2.984c-.07.211-.21.668-.386 1.054-.14.386-.702 1.58-1.194 2.634-.527 1.053-1.405 2.634-2.002 3.511-.562.878-1.264 1.862-1.545 2.213-.281.386-1.405 1.545-2.458 2.669-1.089 1.089-2.81 2.634-3.863 3.406-1.054.808-3.266 2.108-4.917 2.915-1.65.808-3.301 1.546-3.687 1.616-.387.07-.703.14-.703.175 0 .035-.246.106-.526.211-.281.07-1.475.351-2.634.632-1.37.316-3.758.457-6.848.386-2.599-.035-5.198-.21-5.795-.351a65.205 65.205 0 0 0-1.405-.316c-.175-.035-1.229-.351-2.282-.702-1.054-.351-2.95-1.16-4.215-1.756a68.848 68.848 0 0 1-3.336-1.791c-.597-.386-2.072-1.475-3.336-2.493-1.264-.984-2.739-2.389-3.301-3.161-.597-.738-1.124-1.44-1.23-1.545-.14-.106-.702-.878-1.299-1.756s-1.721-2.95-2.528-4.671c-.808-1.686-1.651-3.793-1.862-4.74-.21-.914-.456-1.968-.526-2.354-.106-.386-.281-1.58-.422-2.634-.105-1.053-.211-2.739-.211-3.687 0-.983.106-2.634.246-3.688.106-1.053.281-2.282.387-2.739.105-.421.316-1.124.421-1.58.105-.422.246-1.018.316-1.3.07-.28.14-.561.14-.632.036-.035.106-.175.141-.35.07-.141.246-.563.386-.949.141-.386.738-1.72 1.37-2.985.632-1.264 1.58-2.985 2.142-3.863.597-.878 2.248-2.774 3.688-4.25 1.475-1.474 3.863-3.476 5.302-4.46 1.44-.983 3.196-2.001 3.863-2.282a55.14 55.14 0 0 1 1.932-.773c.386-.175.773-.316.878-.35.105-.036.421-.141.702-.282.281-.105.984-.316 1.581-.456s1.229-.281 1.404-.352Z" fill="#fff"/><path d="M126.026 41.238c.773-.28 2.283-.667 3.336-.913 1.23-.28 3.723-.421 6.849-.351 4.46.105 5.232.21 8.252 1.23 1.827.631 4.355 1.72 5.619 2.457 1.265.738 3.231 2.143 4.39 3.09 1.159.984 2.985 2.916 4.074 4.355 1.124 1.44 2.564 3.758 3.266 5.163.702 1.37 1.58 3.687 1.967 5.057.421 1.404.807 4.214.948 6.25.14 2.53.035 4.637-.351 6.673-.281 1.65-1.019 4.25-1.651 5.795-.597 1.545-1.791 3.828-2.599 5.092-.843 1.264-2.282 3.126-3.231 4.179-.948 1.019-2.669 2.599-3.828 3.477-1.159.878-3.371 2.177-4.916 2.915-1.545.737-4.074 1.685-5.619 2.107-2.037.526-3.933.737-6.848.737-2.95.035-4.847-.175-7.024-.702-1.651-.386-3.863-1.089-4.917-1.545-1.053-.457-3.09-1.58-4.495-2.494-1.369-.913-3.441-2.564-4.565-3.652-1.124-1.124-2.704-3.055-3.582-4.32-.843-1.264-1.967-3.23-2.529-4.39-.527-1.158-1.299-3.37-1.685-4.916-.387-1.545-.808-4.144-.914-5.794-.14-2.037-.035-4.04.352-6.216.316-1.792.948-4.32 1.44-5.62.491-1.334 1.58-3.511 2.388-4.846.772-1.334 2.563-3.617 3.933-5.057 1.334-1.404 3.336-3.16 4.39-3.898 1.053-.702 2.879-1.79 4.038-2.353 1.159-.597 2.74-1.264 3.512-1.51Z" fill="url(#d)"/><defs><linearGradient id="a" x1="155.928" y1="101.635" x2="155.928" y2="142.665" gradientUnits="userSpaceOnUse"><stop stop-color="#016593"/><stop offset="1" stop-color="#014973"/></linearGradient><linearGradient id="b" x1="114.866" y1="101.641" x2="114.866" y2="143.123" gradientUnits="userSpaceOnUse"><stop stop-color="#016593"/><stop offset="1" stop-color="#014973"/></linearGradient><linearGradient id="c" x1="135.333" y1="30" x2="135.333" y2="108.314" gradientUnits="userSpaceOnUse"><stop stop-color="#CECECE"/><stop offset="1" stop-color="#686868"/></linearGradient><linearGradient id="d" x1="135.35" y1="39.956" x2="135.35" y2="98.555" gradientUnits="userSpaceOnUse"><stop stop-color="#CECECE"/><stop offset="1" stop-color="#686868"/></linearGradient></defs></svg>