<svg width="270" height="175" fill="none" xmlns="http://www.w3.org/2000/svg"><path fill="#fff" d="M0 0h270v175H0z"/><path d="M181.739 53H194v68h-12.261V53Z" fill="#D0D0D0"/><path d="M75 95.68h12.26v24.597H75V95.681Z" fill="#AAA"/><path d="M75 95.68h12.26v24.597H75V95.681Z" fill="url(#a)"/><path d="M93.03 88.447h12.261v31.83h-12.26v-31.83Z" fill="#AAA"/><path d="M93.03 88.447h12.261v31.83h-12.26v-31.83Z" fill="url(#b)"/><path d="M110.339 81.213h12.982v39.064h-12.982V81.213Z" fill="#AAA"/><path d="M110.339 81.213h12.982v39.064h-12.982V81.213Z" fill="url(#c)"/><path d="M128.37 73.979h12.26v46.298h-12.26V73.979Z" fill="#AAA"/><path d="M128.37 73.979h12.26v46.298h-12.26V73.979Z" fill="url(#d)"/><path d="M145.679 66.745h12.982v53.532h-12.982V66.745Z" fill="#AAA"/><path d="M145.679 66.745h12.982v53.532h-12.982V66.745Z" fill="url(#e)"/><path d="M163.709 59.51h12.261v60.767h-12.261V59.511Z" fill="#AAA"/><path d="M163.709 59.51h12.261v60.767h-12.261V59.511ZM181.741 53h12.261v68h-12.261V53Z" fill="#D0D0D0"/><path d="M163.711 59.51h12.261v60.767h-12.261V59.511Z" fill="#AAA"/><path d="M163.711 59.51h12.261v60.767h-12.261V59.511Z" fill="#D0D0D0"/><defs><linearGradient id="a" x1="194" y1="96.404" x2="75" y2="96.404" gradientUnits="userSpaceOnUse"><stop stop-color="#40C1FF"/><stop offset="1" stop-color="#959595"/></linearGradient><linearGradient id="b" x1="194" y1="96.404" x2="75" y2="96.404" gradientUnits="userSpaceOnUse"><stop stop-color="#40C1FF"/><stop offset="1" stop-color="#959595"/></linearGradient><linearGradient id="c" x1="194" y1="96.404" x2="75" y2="96.404" gradientUnits="userSpaceOnUse"><stop stop-color="#40C1FF"/><stop offset="1" stop-color="#959595"/></linearGradient><linearGradient id="d" x1="194" y1="96.404" x2="75" y2="96.404" gradientUnits="userSpaceOnUse"><stop stop-color="#40C1FF"/><stop offset="1" stop-color="#959595"/></linearGradient><linearGradient id="e" x1="194" y1="96.404" x2="75" y2="96.404" gradientUnits="userSpaceOnUse"><stop stop-color="#40C1FF"/><stop offset="1" stop-color="#959595"/></linearGradient></defs></svg>