<svg width="270" height="175" fill="none" xmlns="http://www.w3.org/2000/svg"><path fill="#fff" d="M0 0h270v175H0z"/><path d="M134.131 97.7c-1.4 0-2.1-.7-2.1-2.1 0-1.767.3-3.183.9-4.25.617-1.067 1.35-1.908 2.2-2.525a23.966 23.966 0 0 1 2.35-1.525c.734-.433 1.35-.833 1.85-1.2.517-.367.9-.817 1.15-1.35.267-.533.4-1.267.4-2.2 0-1.983-.35-3.317-1.05-4-.683-.7-2.016-1.05-4-1.05h-3.35c-1.966 0-3.3.358-4 1.075-.7.717-1.05 2.042-1.05 3.975 0 1.4-.7 2.1-2.1 2.1-1.4 0-2.1-.7-2.1-2.1 0-3.1.767-5.417 2.3-6.95 1.534-1.533 3.85-2.3 6.95-2.3h3.35c3.134 0 5.459.758 6.975 2.275 1.517 1.517 2.275 3.842 2.275 6.975 0 1.767-.308 3.183-.925 4.25-.6 1.067-1.325 1.908-2.175 2.525a23.848 23.848 0 0 1-2.35 1.525 27.24 27.24 0 0 0-1.875 1.2c-.5.367-.883.817-1.15 1.35-.25.533-.375 1.267-.375 2.2 0 1.4-.7 2.1-2.1 2.1Zm-.6 8.3c-1.333 0-2-.667-2-2v-1.25c0-1.3.667-1.95 2-1.95h1.2c1.267 0 1.9.65 1.9 1.95V104c0 1.333-.633 2-1.9 2h-1.2Z" fill="#40C1FF"/></svg>