<svg width="270" height="175" fill="none" xmlns="http://www.w3.org/2000/svg"><rect width="270" height="175" rx="25" fill="#fff"/><path fill-rule="evenodd" clip-rule="evenodd" d="M132.686 37.02c-.224.013-.956.066-1.626.118-11.88.922-22.961 6.036-31.43 14.504-7.87 7.868-12.875 18.043-14.258 28.982-.308 2.434-.372 3.541-.372 6.384 0 2.842.064 3.95.372 6.384 1.383 10.939 6.389 21.114 14.257 28.981 7.869 7.867 18.045 12.872 28.986 14.255 2.435.307 3.542.372 6.385.372s3.95-.065 6.385-.372c10.941-1.383 21.117-6.388 28.986-14.255 7.868-7.867 12.874-18.042 14.257-28.981.307-2.435.372-3.542.372-6.384 0-2.843-.065-3.95-.372-6.384-1.383-10.94-6.389-21.114-14.257-28.982-8.461-8.459-19.299-13.472-31.368-14.508-1.098-.095-5.353-.172-6.317-.114Zm5.848 4.118c6.227.51 11.758 2.06 17.295 4.846 5.835 2.937 11.218 7.353 15.327 12.571a45.857 45.857 0 0 1 9.149 20.417c.499 2.844.688 5.048.688 8.036 0 2.988-.189 5.192-.688 8.035-1.44 8.208-5.09 15.826-10.651 22.231-.851.98-3.257 3.44-3.365 3.44-.037 0-.33-.179-.651-.397-.982-.667-2.032-1.257-3.627-2.038-1.767-.865-2.385-1.131-5.992-2.578-3.724-1.494-5.137-2.124-6.54-2.914-2.089-1.178-3.585-2.599-4.316-4.102a3.166 3.166 0 0 1-.314-1.209l-.027-.489a91.444 91.444 0 0 1-.064-1.232c-.001-.123-.021-.119 1.5-.3 5.27-.628 9.783-1.857 11.811-3.218.875-.587 1.438-1.305 1.463-1.864.011-.245-.019-.312-.253-.578-1.075-1.221-1.654-3.664-1.891-7.972-.037-.67-.093-4.428-.124-8.348-.054-6.716-.086-8.043-.249-10.413-.492-7.146-1.871-12.035-4.305-15.258-.518-.687-1.704-1.845-2.387-2.33-1.858-1.322-4.339-2.048-7.007-2.048h-.165a1.79 1.79 0 0 1-1.043-.335c-1.331-.955-3.11-1.575-5.231-1.824-.989-.116-1.808-.116-2.878.002-6.847.756-11.855 3.496-15.161 8.298-2.502 3.635-4.041 8.576-4.726 15.177-.278 2.676-.401 5.023-.532 10.106-.104 4.079-.139 5.094-.225 6.535-.266 4.511-.94 7.224-2.14 8.624-.157.183-.177.247-.143.459.293 1.834 4.262 3.558 10.606 4.607.915.152 3.504.506 3.696.506.021 0 .031.063.02.14-.01.078-.052.643-.094 1.257-.074 1.103-.078 1.122-.318 1.62-.387.8-.783 1.342-1.521 2.079-1.01 1.009-2.111 1.757-3.925 2.666-1.327.665-2.298 1.081-5.686 2.437-5.284 2.116-7.336 3.1-9.458 4.536a.99.99 0 0 1-1.259-.122l-.711-.715a44.288 44.288 0 0 1-3.578-4.019 45.857 45.857 0 0 1-9.15-20.416c-.498-2.844-.687-5.048-.687-8.036 0-7.39 1.62-14.186 4.963-20.826 2.937-5.834 7.354-11.217 12.573-15.324 6.536-5.145 14.335-8.424 22.521-9.47a68.834 68.834 0 0 1 4.185-.368c.955-.047 4.134.024 5.285.118Z" fill="#111" fill-opacity=".2"/></svg>