<svg width="82" height="50" fill="none" xmlns="http://www.w3.org/2000/svg"><path d="M65.122.307c-3.785 0-8.3 2.359-8.3 13.61v21.779c0 11.251 4.515 13.61 8.3 13.61 3.784 0 8.3-2.359 8.3-13.61V13.918c0-11.252-4.516-13.611-8.3-13.611ZM17.764.307c-3.784 0-8.3 2.359-8.3 13.61v21.779c0 11.251 4.516 13.61 8.3 13.61 3.785 0 8.3-2.359 8.3-13.61V13.918c0-11.252-4.515-13.611-8.3-13.611ZM56.822 21.866H26.064v5.39h30.758v-5.39ZM79.188 36.44c-1.476 0-2.7-1.23-2.7-2.71V15.662c0-1.481 1.224-2.71 2.7-2.71 1.476 0 2.7 1.229 2.7 2.71V33.73c0 1.482-1.224 2.71-2.7 2.71ZM3.587 36.44c-1.476 0-2.7-1.23-2.7-2.71V15.662c0-1.481 1.224-2.71 2.7-2.71 1.476 0 2.7 1.229 2.7 2.71V33.73c0 1.482-1.224 2.71-2.7 2.71Z" fill="#3E98C4"/></svg>