<svg width="82" height="50" viewBox="0 0 82 50" fill="none" xmlns="http://www.w3.org/2000/svg">
<path d="M65.1218 0.306641C61.3372 0.306641 56.8223 2.6659 56.8223 13.9178V35.6955C56.8223 46.9474 61.3372 49.3066 65.1218 49.3066C68.9064 49.3066 73.4214 46.9474 73.4214 35.6955V13.9178C73.4214 2.6659 68.9064 0.306641 65.1218 0.306641Z" fill="#3E98C4"/>
<path d="M17.7644 0.306641C13.9798 0.306641 9.46484 2.6659 9.46484 13.9178V35.6955C9.46484 46.9474 13.9798 49.3066 17.7644 49.3066C21.549 49.3066 26.064 46.9474 26.064 35.6955V13.9178C26.064 2.6659 21.549 0.306641 17.7644 0.306641Z" fill="#3E98C4"/>
<path d="M56.8216 21.8662H26.0645V27.2562H56.8216V21.8662Z" fill="#3E98C4"/>
<path d="M79.1883 36.4392C77.7123 36.4392 76.4883 35.2107 76.4883 33.7293V15.6631C76.4883 14.1816 77.7123 12.9531 79.1883 12.9531C80.6643 12.9531 81.8883 14.1816 81.8883 15.6631V33.7293C81.8883 35.2107 80.6643 36.4392 79.1883 36.4392Z" fill="#3E98C4"/>
<path d="M3.58675 36.4392C2.11073 36.4392 0.886719 35.2107 0.886719 33.7293V15.6631C0.886719 14.1816 2.11073 12.9531 3.58675 12.9531C5.06276 12.9531 6.28678 14.1816 6.28678 15.6631V33.7293C6.28678 35.2107 5.06276 36.4392 3.58675 36.4392Z" fill="#3E98C4"/>
</svg>
