<svg width="38" height="38" fill="none" xmlns="http://www.w3.org/2000/svg"><rect x="2" y="2" width="34" height="34" rx="17" fill="#40C1FF" stroke="#F9F9F9" stroke-width="4"/><path d="m23.822 16.106-.881-.92a.585.585 0 0 0-.436-.186.585.585 0 0 0-.436.186l-2.341 2.444a2.619 2.619 0 0 1-3.787-.005.585.585 0 0 0-.436-.186.585.585 0 0 0-.436.186l-.88.92A.608.608 0 0 0 14 19c0 .176.06.33.178.455l2.337 2.44.881.919a.586.586 0 0 0 .436.186.585.585 0 0 0 .435-.186l.881-.92 4.674-4.878A.639.639 0 0 0 24 16.56c0-.176-.06-.331-.178-.455Z" fill="#fff"/></svg>