<svg width="270" height="175" viewBox="0 0 270 175" fill="none" xmlns="http://www.w3.org/2000/svg">
<rect width="270" height="175" rx="25" transform="matrix(-1 0 0 1 270 0)" fill="white"/>
<path fill-rule="evenodd" clip-rule="evenodd" d="M132.196 37.025C132.045 37.039 131.49 37.0834 130.963 37.1236C120.195 37.9461 109.815 42.4146 101.648 49.7432C100.52 50.7553 98.4785 52.8038 97.5341 53.8712C86.693 66.1247 82.5584 82.8465 86.4139 98.8457C90.7089 116.668 104.835 130.928 122.689 135.464C128.966 137.059 135.494 137.415 141.99 136.517C157.011 134.442 170.454 125.41 178.229 112.17C178.998 110.861 180.425 108.03 181.01 106.655C183.144 101.637 184.392 96.5914 184.879 91.0168C185.04 89.1764 185.04 84.7973 184.88 82.9745C184.494 78.5854 183.721 74.8577 182.371 70.8771C178.87 60.5494 171.904 51.4797 162.812 45.4122C155.74 40.6921 148.192 38.0142 139.525 37.1499C138.501 37.0479 132.966 36.9535 132.196 37.025ZM137.401 41.4058C139.375 41.4809 141.89 41.7923 144.077 42.2324C154.335 44.2972 163.544 49.8259 170.253 57.9473C178.083 67.4259 181.726 79.697 180.376 92.0446C179.589 99.2384 177.098 106.106 173.061 112.204C171.733 114.211 169.77 116.682 168.241 118.272L168.199 118.316C167.853 118.675 167.3 118.735 166.885 118.458C165.207 117.338 163.003 116.22 160.586 115.262C159.027 114.644 158.606 114.489 155.721 113.472C150.314 111.565 148.231 110.526 146.871 109.057C146.178 108.308 146.087 108.089 146.002 106.962C145.962 106.436 145.929 104.899 145.929 103.547L145.929 101.791C145.929 101.34 146.095 100.904 146.395 100.567C148.419 98.3008 150.082 95.33 150.896 92.5271L150.947 92.3513C151.052 91.989 151.278 91.6735 151.587 91.4566C152.917 90.5224 153.888 88.9578 154.421 86.8913C155.147 84.0724 154.979 81.9083 153.903 80.2264L153.854 80.1493C153.688 79.8891 153.643 79.5694 153.731 79.2734C154.107 78.0112 154.633 75.5716 154.896 73.8737C155.376 70.7701 155.44 67.4019 155.067 64.9007C154.507 61.1391 152.989 58.1454 150.661 56.2066C149.316 55.0867 147.57 54.225 145.792 53.8036C145.294 53.6858 145.259 53.6632 144.662 53.0855C142.651 51.1401 139.672 50.1345 135.586 50.0225C132.047 49.9253 128.462 50.5002 125.586 51.6258C120.719 53.5308 117.405 57.1967 115.971 62.2632C115.304 64.6156 115.067 66.7494 115.128 69.8332C115.186 72.7289 115.523 75.3702 116.264 78.7335L116.379 79.2546C116.44 79.531 116.386 79.8203 116.23 80.0562C115.887 80.5728 115.535 81.3584 115.369 81.9795C115.166 82.7405 115.125 84.1825 115.277 85.2129C115.728 88.2608 116.873 90.4667 118.57 91.5552C118.908 91.7716 118.922 91.7944 119.074 92.3489C119.813 95.0543 121.732 98.5204 123.593 100.511C123.963 100.906 124.164 101.429 124.155 101.97L124.124 103.806C124.099 105.279 124.05 106.819 124.014 107.228C123.952 107.935 123.935 107.993 123.666 108.406C123.291 108.982 122.442 109.783 121.663 110.297C120.844 110.837 119 111.737 117.572 112.295C116.951 112.537 115.256 113.159 113.805 113.676C108.153 115.69 105.595 116.843 103.151 118.477C102.788 118.72 102.466 118.918 102.435 118.918C102.359 118.918 101.115 117.578 100.207 116.52C98.7899 114.868 96.9582 112.312 95.8126 110.389C89.3277 99.5024 87.6528 86.4654 91.1699 74.2518C94.04 64.2856 100.34 55.4965 108.885 49.5361C115.714 44.773 123.674 41.9792 131.956 41.4384C133.861 41.314 134.837 41.3082 137.401 41.4058Z" fill="#111111" fill-opacity="0.2"/>
</svg>
