<svg width="117" height="14" fill="none" xmlns="http://www.w3.org/2000/svg"><path d="m21.944 10 2.768-5.744L27.48 10h-.784l-1.984-4.192L22.728 10h-.784Zm6.238.064V6h.68v2.672l2.896-2.736V10h-.68V7.368l-2.896 2.696Zm6.725 0c-.586 0-1.077-.197-1.472-.592-.389-.4-.584-.89-.584-1.472 0-.581.195-1.07.584-1.464.395-.4.886-.6 1.472-.6.608 0 1.118.21 1.528.632l-.44.48a1.49 1.49 0 0 0-1.088-.464c-.389 0-.712.136-.968.408-.25.267-.376.603-.376 1.008s.126.744.376 1.016c.256.267.579.4.968.4a1.49 1.49 0 0 0 1.088-.464l.44.48c-.41.421-.92.632-1.528.632ZM38.216 10V6.624h-1.264V6h3.264v.624h-1.32V10h-.68Zm5.822 0v-.4c-.341.31-.765.464-1.272.464-.587 0-1.075-.197-1.464-.592-.384-.395-.576-.885-.576-1.472s.192-1.077.576-1.472c.39-.395.877-.592 1.464-.592.507 0 .93.155 1.272.464V6h.688v4h-.688Zm-1.256-.584c.277 0 .525-.059.744-.176.219-.117.39-.275.512-.472V7.232a1.328 1.328 0 0 0-.512-.472 1.549 1.549 0 0 0-.744-.176c-.39 0-.712.136-.968.408-.25.267-.376.603-.376 1.008s.125.744.376 1.016c.256.267.579.4.968.4Zm3.306.648V6h.68v2.672l2.895-2.736V10h-.68V7.368l-2.895 2.696Zm2.6-5.744h.551c-.01.405-.13.715-.36.928-.229.213-.533.32-.911.32-.385 0-.691-.107-.92-.32-.224-.219-.342-.528-.352-.928h.544c.005.261.072.461.2.6.133.133.309.2.528.2a.677.677 0 0 0 .511-.2c.129-.133.198-.333.209-.6ZM51.82 10V6.624h-1.264V6h3.264v.624H52.5V10h-.68Zm4.558.064c-.587 0-1.077-.197-1.472-.592-.39-.4-.584-.89-.584-1.472 0-.581.195-1.07.584-1.464.39-.4.864-.6 1.424-.6.57 0 1.035.2 1.392.6.363.395.55.939.56 1.632h-3.248c.032.373.176.675.432.904.261.23.566.344.912.344.459 0 .848-.16 1.168-.48l.44.48c-.41.432-.947.648-1.608.648Zm-.088-3.496c-.272 0-.525.085-.76.256-.234.165-.386.413-.456.744h2.432c-.048-.32-.184-.568-.408-.744a1.232 1.232 0 0 0-.808-.256ZM61.461 10V6h1.697c.448 0 .792.096 1.032.288.24.187.36.45.36.792 0 .352-.141.619-.424.8.459.165.688.488.688.968 0 .347-.125.627-.376.84-.246.208-.61.312-1.096.312h-1.88Zm.689-2.328h1.088a.666.666 0 0 0 .416-.128c.117-.09.176-.224.176-.4 0-.176-.059-.31-.176-.4a.66.66 0 0 0-.416-.136H62.15v1.064Zm0 1.72h1.248c.202 0 .368-.05.496-.152.128-.101.192-.25.192-.448a.519.519 0 0 0-.192-.432.775.775 0 0 0-.496-.152H62.15v1.184Zm3.098.608 2.112-4.064L69.48 10h-.784l-1.328-2.656L66.016 10h-.768Zm6.67.064c-.587 0-1.078-.197-1.472-.592-.39-.4-.584-.89-.584-1.472 0-.581.194-1.07.584-1.464.389-.4.864-.6 1.424-.6.57 0 1.034.2 1.392.6.362.395.549.939.56 1.632h-3.248c.032.373.176.675.432.904.261.23.565.344.912.344.458 0 .848-.16 1.168-.48l.44.48c-.411.432-.947.648-1.608.648Zm-.088-3.496c-.272 0-.526.085-.76.256-.235.165-.387.413-.456.744h2.432c-.048-.32-.184-.568-.408-.744a1.232 1.232 0 0 0-.808-.256ZM74.84 10V6h1.696c.448 0 .792.096 1.032.288.24.187.36.45.36.792 0 .352-.141.619-.424.8.459.165.688.488.688.968 0 .347-.125.627-.376.84-.245.208-.61.312-1.096.312h-1.88Zm.688-2.328h1.088a.666.666 0 0 0 .416-.128c.118-.09.176-.224.176-.4 0-.176-.058-.31-.176-.4a.66.66 0 0 0-.416-.136h-1.088v1.064Zm0 1.72h1.248c.203 0 .368-.05.496-.152.128-.101.192-.25.192-.448a.519.519 0 0 0-.192-.432.775.775 0 0 0-.496-.152h-1.248v1.184Zm5.562.672c-.598 0-1.094-.197-1.488-.592-.395-.4-.592-.89-.592-1.472 0-.581.197-1.07.592-1.464.394-.4.89-.6 1.488-.6.592 0 1.085.2 1.48.6.394.395.592.883.592 1.464s-.198 1.072-.592 1.472c-.395.395-.888.592-1.48.592Zm-.984-1.048c.256.267.584.4.984.4s.725-.133.976-.4c.256-.272.384-.61.384-1.016 0-.405-.128-.741-.384-1.008-.25-.272-.576-.408-.976-.408s-.728.136-.984.408c-.256.267-.384.603-.384 1.008s.128.744.384 1.016Zm3.732.984 2.752-5.68h.648L84.486 10h-.648Zm4.154 0V6h1.696c.448 0 .792.096 1.032.288.24.187.36.45.36.792 0 .352-.141.619-.424.8.459.165.688.488.688.968 0 .347-.125.627-.376.84-.245.208-.61.312-1.096.312h-1.88Zm.688-2.328h1.088a.666.666 0 0 0 .416-.128c.118-.09.176-.224.176-.4 0-.176-.058-.31-.176-.4a.66.66 0 0 0-.416-.136H88.68v1.064Zm0 1.72h1.248c.203 0 .368-.05.496-.152.128-.101.192-.25.192-.448a.519.519 0 0 0-.192-.432.775.775 0 0 0-.496-.152H88.68v1.184Zm3.746.608V6h3.432v4h-.688V6.624h-2.056V10h-.688Zm4.792-4h.688v.4c.326-.31.75-.464 1.272-.464.587 0 1.072.197 1.456.592.39.395.584.885.584 1.472s-.194 1.077-.584 1.472c-.384.395-.869.592-1.456.592-.522 0-.946-.155-1.272-.464v1.872h-.688V6Zm1.944 3.416c.39 0 .71-.133.96-.4.256-.272.384-.61.384-1.016 0-.405-.128-.741-.384-1.008a1.246 1.246 0 0 0-.96-.408 1.54 1.54 0 0 0-.752.184 1.29 1.29 0 0 0-.504.464v1.536c.118.192.286.35.504.472.224.117.475.176.752.176Zm6.202.584v-.4c-.341.31-.765.464-1.272.464-.587 0-1.075-.197-1.464-.592-.384-.395-.576-.885-.576-1.472s.192-1.077.576-1.472c.389-.395.877-.592 1.464-.592.507 0 .931.155 1.272.464V6h.688v4h-.688Zm-1.256-.584c.277 0 .525-.059.744-.176.219-.117.389-.275.512-.472V7.232a1.328 1.328 0 0 0-.512-.472 1.55 1.55 0 0 0-.744-.176c-.389 0-.712.136-.968.408-.251.267-.376.603-.376 1.008s.125.744.376 1.016c.256.267.579.4.968.4Zm3.305.584V6h1.696c.448 0 .792.096 1.032.288.24.187.36.45.36.792 0 .352-.141.619-.424.8.459.165.688.488.688.968 0 .347-.125.627-.376.84-.245.208-.61.312-1.096.312h-1.88Zm.688-2.328h1.088a.665.665 0 0 0 .416-.128c.118-.09.176-.224.176-.4 0-.176-.058-.31-.176-.4a.66.66 0 0 0-.416-.136h-1.088v1.064Zm0 1.72h1.248c.203 0 .368-.05.496-.152.128-.101.192-.25.192-.448a.519.519 0 0 0-.192-.432.774.774 0 0 0-.496-.152h-1.248v1.184Zm5.562.672c-.597 0-1.093-.197-1.488-.592-.395-.4-.592-.89-.592-1.472 0-.581.197-1.07.592-1.464.395-.4.891-.6 1.488-.6.592 0 1.085.2 1.48.6.395.395.592.883.592 1.464s-.197 1.072-.592 1.472c-.395.395-.888.592-1.48.592Zm-.984-1.048c.256.267.584.4.984.4s.725-.133.976-.4c.256-.272.384-.61.384-1.016 0-.405-.128-.741-.384-1.008-.251-.272-.576-.408-.976-.408s-.728.136-.984.408c-.256.267-.384.603-.384 1.008s.128.744.384 1.016Z" fill="#1C1C1C"/><g clip-path="url(#a)"><path d="M11.755 5.823c-.255 0-.49.08-.688.212a1.24 1.24 0 0 0-1.17-.84c-.255 0-.49.08-.687.212a1.24 1.24 0 0 0-1.17-.84c-.226 0-.438.062-.618.168V2.677a1.25 1.25 0 0 0-1.24-1.259c-.684 0-1.239.563-1.239 1.259v5.346l-1.076-.82a1.602 1.602 0 0 0-2.11.153.952.952 0 0 0 0 1.333l4.408 4.48a2.751 2.751 0 0 0 1.971.828h1.451c1.878 0 3.405-1.551 3.405-3.459V7.079a1.246 1.246 0 0 0-1.237-1.256Zm.619 4.718c0 1.56-1.251 2.83-2.787 2.83H8.136c-.58 0-1.123-.23-1.532-.645l-4.41-4.48a.317.317 0 0 1 0-.444.987.987 0 0 1 1.301-.095l1.57 1.197a.309.309 0 0 0 .497-.25V2.677c0-.348.278-.628.618-.628.34 0 .618.283.618.628v4.718c0 .174.14.315.31.315.172 0 .311-.141.311-.315V5.823c0-.348.279-.628.618-.628.34 0 .619.283.619.628v1.572c0 .174.139.315.31.315.171 0 .31-.141.31-.315V6.45c0-.348.28-.628.619-.628.34 0 .618.283.618.628v.944c0 .174.14.315.31.315.172 0 .311-.141.311-.315v-.316c0-.348.279-.628.618-.628.34 0 .619.283.619.628l.003 3.462Z" fill="#1C1C1C"/><path d="m11.306 2.211 1.066-1.105L11.305 0l-.148.153.813.844H8.047v.218h3.924l-.813.843.148.153ZM1.065 0 0 1.106 1.065 2.21l.148-.153-.812-.843h3.924V.997H.4l.812-.844L1.065 0Z" fill="#40C1FF"/></g><defs><clipPath id="a"><path fill="#fff" d="M0 0h13v14H0z"/></clipPath></defs></svg>