<svg width="18" height="20" fill="none" xmlns="http://www.w3.org/2000/svg"><path d="M15.13 12.494c-.63-.726-1.449-.726-2.105 0l-1.475 1.632c-.137.15-.247.18-.41.093-.299-.21-.656-.36-.955-.575-1.423-1-2.625-2.271-3.69-3.718-.52-.726-.982-1.48-1.313-2.358-.052-.18-.052-.273.084-.424.52-.517.982-1.057 1.475-1.603.683-.755.683-1.632 0-2.387L5.565 1.853C5.155 1.4 4.773.947 4.363.523c-.63-.697-1.449-.697-2.105 0L.783 2.155c-.467.517-.709 1.12-.767 1.812-.084 1.121.163 2.207.52 3.264.74 2.208 1.859 4.113 3.197 5.896 1.832 2.422 4.016 4.327 6.562 5.686 1.15.604 2.326 1.086 3.58 1.18.903.057 1.67-.21 2.294-.97.41-.547.903-1 1.339-1.51.656-.756.656-1.662 0-2.388l-2.378-2.631Z" fill="#fff"/></svg>