<svg width="21" height="21" fill="none" xmlns="http://www.w3.org/2000/svg"><path d="M6.394 8.992c.697 0 1.357-.202 1.912-.555.525-.33.953-.787 1.245-1.334.06-.113.113-.225.158-.345a5.555 5.555 0 0 1-.668-2.656c0-.345.03-.682.098-1.005A3.591 3.591 0 0 0 2.8 5.407a3.591 3.591 0 0 0 3.593 3.585ZM7.256 10.41c-.277.06-.57.082-.862.082-1.44 0-2.745-.6-3.675-1.574A5.438 5.438 0 0 0 .91 12.975v5.018c0 1.005.818 1.83 1.83 1.83h4.163a3.498 3.498 0 0 1-.105-.848V13.05c0-.923.165-1.815.457-2.64ZM14.642 8.207a4.108 4.108 0 0 0 4.103-4.103A4.109 4.109 0 0 0 14.642 0a4.109 4.109 0 0 0-4.104 4.104 4.109 4.109 0 0 0 4.104 4.103Z" fill="#fff"/><path d="M18.581 8.085a5.593 5.593 0 0 1-7.882-.007 6.355 6.355 0 0 0-2.4 4.972v5.925c0 1.117.915 2.025 2.033 2.025h8.624a2.026 2.026 0 0 0 2.026-2.025V13.05c0-2.01-.938-3.802-2.4-4.965Z" fill="#fff"/></svg>