<svg width="20" height="26" fill="none" xmlns="http://www.w3.org/2000/svg"><path d="M11.91 16.016a8.132 8.132 0 0 0 5.72-2.345A7.967 7.967 0 0 0 20 8.008c0-2.124-.852-4.16-2.37-5.662A8.132 8.132 0 0 0 11.91 0H0v2.422h3.054v11.172H0v2.422h3.054v3.323H0v2.422h3.054V26h2.447v-4.239h7.346V19.34H5.5v-3.323h6.409ZM5.5 2.422h6.409c.74 0 1.475.145 2.16.425.684.281 1.306.693 1.83 1.211.524.519.94 1.135 1.223 1.812a5.537 5.537 0 0 1-1.223 6.088 5.65 5.65 0 0 1-1.83 1.211 5.694 5.694 0 0 1-2.16.425H5.5V2.422Z" fill="#fff"/></svg>