<svg width="470" height="610" viewBox="0 0 470 610" fill="none" xmlns="http://www.w3.org/2000/svg">
<g clip-path="url(#clip0_98_253)">
<rect width="470" height="610" rx="25" fill="white"/>
<path d="M54.0748 72.12V60.28C54.0748 59.6 54.3548 59.26 54.9148 59.26C55.4748 59.26 55.7548 59.6 55.7548 60.28V70.44H59.0148V60.28C59.0148 59.6 59.2948 59.26 59.8548 59.26C60.4148 59.26 60.6948 59.6 60.6948 60.28V70.44H63.9548V60.28C63.9548 59.6 64.2348 59.26 64.7948 59.26C65.3548 59.26 65.6348 59.6 65.6348 60.28V72.12H54.0748ZM77.5414 72.26C77.3747 72.26 77.2381 72.21 77.1314 72.11C77.0247 72.0167 76.9447 71.8133 76.8914 71.5C76.8447 71.1867 76.8214 70.7067 76.8214 70.06L77.0414 70.58C76.6214 71.16 76.0947 71.5633 75.4614 71.79C74.8347 72.01 74.0947 72.12 73.2414 72.12H71.3814C70.6547 72.12 70.0614 71.88 69.6014 71.4C69.1481 70.9133 68.9214 70.18 68.9214 69.2C68.9214 68.5867 69.0214 68.07 69.2214 67.65C69.4214 67.2233 69.7314 66.88 70.1514 66.62C70.5714 66.3533 71.1081 66.16 71.7614 66.04C72.4147 65.92 73.1947 65.86 74.1014 65.86H77.4814L76.7214 66.54V65.06C76.7214 64.7667 76.6714 64.5733 76.5714 64.48C76.4781 64.3867 76.2681 64.34 75.9414 64.34H73.1214C72.4481 64.34 71.9314 64.3567 71.5714 64.39C71.2181 64.4233 70.9714 64.49 70.8314 64.59C70.6914 64.6833 70.6147 64.82 70.6014 65C70.5747 65.3467 70.5114 65.6033 70.4114 65.77C70.3114 65.9367 70.0947 66.02 69.7614 66.02C69.2014 66.02 68.9214 65.66 68.9214 64.94C68.9214 64.1467 69.2514 63.57 69.9114 63.21C70.5714 62.8433 71.5947 62.66 72.9814 62.66H76.0814C76.9347 62.66 77.5347 62.8633 77.8814 63.27C78.2281 63.6767 78.4014 64.38 78.4014 65.38V71.3C78.4014 71.94 78.1147 72.26 77.5414 72.26ZM71.4414 70.52H73.2414C74.5014 70.52 75.3947 70.2667 75.9214 69.76C76.4547 69.2467 76.7214 68.44 76.7214 67.34L76.8414 67.46H74.1014C73.2214 67.46 72.5247 67.5033 72.0114 67.59C71.5047 67.67 71.1414 67.83 70.9214 68.07C70.7081 68.31 70.6014 68.6667 70.6014 69.14C70.6014 69.5667 70.6747 69.9033 70.8214 70.15C70.9747 70.3967 71.1814 70.52 71.4414 70.52ZM89.4364 64.34H84.0964C83.7764 64.34 83.5664 64.3933 83.4664 64.5C83.3664 64.6 83.3164 64.82 83.3164 65.16V71.3C83.3164 71.94 83.0364 72.26 82.4764 72.26C81.9164 72.26 81.6364 71.94 81.6364 71.3V65.38C81.6364 64.38 81.8097 63.6767 82.1564 63.27C82.5031 62.8633 83.1031 62.66 83.9564 62.66H89.4364C90.1164 62.66 90.4564 62.94 90.4564 63.5C90.4564 64.06 90.1164 64.34 89.4364 64.34ZM107.596 72H100.116C99.5428 72 99.2561 71.72 99.2561 71.16C99.2561 70.2667 99.3961 69.5067 99.6761 68.88C99.9628 68.2467 100.326 67.7133 100.766 67.28C101.213 66.84 101.686 66.47 102.186 66.17C102.686 65.8633 103.149 65.5867 103.576 65.34C104.316 64.92 104.933 64.5567 105.426 64.25C105.926 63.9433 106.299 63.63 106.546 63.31C106.793 62.99 106.916 62.6 106.916 62.14C106.916 61.3467 106.773 60.8133 106.486 60.54C106.206 60.26 105.676 60.12 104.896 60.12H102.756C102.129 60.12 101.666 60.2033 101.366 60.37C101.066 60.5367 100.876 60.8467 100.796 61.3C100.749 61.5667 100.659 61.77 100.526 61.91C100.393 62.05 100.189 62.12 99.9161 62.12C99.6361 62.12 99.4228 62.0467 99.2761 61.9C99.1294 61.7467 99.0694 61.5267 99.0961 61.24C99.2361 60.3 99.6061 59.6 100.206 59.14C100.806 58.6733 101.656 58.44 102.756 58.44H104.896C106.149 58.44 107.079 58.7433 107.686 59.35C108.293 59.9567 108.596 60.8867 108.596 62.14C108.596 62.94 108.399 63.61 108.006 64.15C107.613 64.6833 107.096 65.1567 106.456 65.57C105.816 65.9767 105.129 66.3867 104.396 66.8C103.863 67.1067 103.356 67.4133 102.876 67.72C102.403 68.0267 101.996 68.3833 101.656 68.79C101.323 69.1967 101.103 69.7067 100.996 70.32H107.596C108.156 70.32 108.436 70.6 108.436 71.16C108.436 71.72 108.156 72 107.596 72Z" fill="white"/>
<path fill-rule="evenodd" clip-rule="evenodd" d="M183.027 218.577C167.074 225.544 162.369 230.424 112.152 292.116C39.4649 381.409 22.5345 407.088 5.7104 453.537C-4.73249 482.372 -9.58169 506.958 -7.16848 518.824C-4.72742 530.833 6.29535 541.703 23.9475 549.512C41.2628 557.174 37.6544 555.178 69.2489 574.559C111.912 600.732 161.976 620.059 205.381 627.117C238.037 632.428 239.219 630.694 207.083 624.623C191.067 621.598 170.556 616.877 161.503 614.13C136.912 606.669 80.7199 580.534 62.3993 568.037C53.5365 561.991 39.4497 553.999 31.0934 550.277C6.0877 539.134 -5.62382 526.264 -5.62382 509.922C-5.62382 500.485 1.97792 470.747 9.9063 449.174C21.1114 418.683 55.6382 363.373 72.2142 349.367C79.7323 343.012 78.6359 344.947 61.3332 368.541C42.8682 393.722 35.9629 405.422 30.2704 421.188C24.4944 437.184 22.3091 455.397 26.029 456.557C27.5331 457.028 28.6599 451.097 28.8017 441.968C29.0119 428.509 30.5211 423.902 40.8678 405.127C47.3705 393.324 59.5226 374.898 67.8739 364.181C76.2252 353.463 82.2975 343.562 81.3732 342.179C80.4464 340.794 80.8414 340.32 82.2519 341.124C83.6623 341.929 100.076 324.011 118.726 301.303C165.881 243.898 172.062 236.984 181.464 231.128C194.434 223.052 209.625 221.986 228.804 227.802C248.229 233.693 249.128 233.779 245.162 229.364C242.547 226.452 243.223 226.255 249.834 228.007C259.343 230.527 262.455 232.127 269.89 238.318C274.506 242.162 276.152 242.524 277.8 240.061C279.489 237.539 281.133 237.71 286.529 240.978C290.185 243.191 293.178 246.006 293.178 247.229C293.178 248.455 295.212 248.862 297.698 248.132C307.518 245.252 318.465 279.407 314.854 301.661C312.996 313.118 304.492 324.008 297.41 324.008C294.536 324.008 294.814 322.141 298.795 314.706C304.9 303.306 308.101 277.217 303.393 277.217C301.256 277.217 300.547 280.165 301.188 286.379C301.709 291.418 301.137 294.97 299.917 294.275C298.696 293.578 298.461 296.551 299.392 300.905C300.322 305.247 300.16 307.634 299.03 306.204C297.686 304.506 295.047 306.326 291.396 311.468C288.327 315.792 286.863 319.329 288.142 319.329C289.421 319.329 291.74 317.132 293.295 314.449C294.85 311.765 296.729 310.132 297.471 310.818C298.212 311.503 296.579 314.697 293.839 317.914C290.494 321.844 288.023 322.988 286.308 321.404C284.903 320.106 279.006 318.985 273.199 318.91C263.891 318.791 263.174 318.414 267.15 315.724C271.143 313.019 270.652 312.718 262.792 313.076C253.015 313.522 253.093 313.801 257.801 295.442C259.685 288.092 259.796 283.055 258.13 280.306C256.041 276.855 255.347 277.596 253.871 284.872C252.901 289.65 252.789 295.201 253.623 297.206C254.456 299.214 254.129 300.281 252.898 299.579C251.668 298.875 250.009 299.874 249.209 301.797C247.024 307.058 233.97 306.104 228.366 300.271C224.897 296.659 224.431 294.963 226.708 294.228C231.093 292.81 230.696 286.576 226.219 286.576C224.208 286.576 220.949 284.447 218.977 281.845C216.655 278.783 213.872 277.65 211.091 278.638C207.334 279.969 207.526 280.554 212.633 283.275C215.849 284.987 220.666 287.31 223.342 288.438C226.675 289.839 227.272 291.018 225.241 292.176C220.109 295.108 222.013 299.256 231.129 304.992C239.541 310.284 240.247 310.362 246.38 306.647C252.721 302.81 252.792 302.835 251.26 308.476C250.141 312.594 251.007 314.896 254.349 316.692C258.847 319.107 258.844 319.189 254.319 319.259C251.749 319.296 246.051 317.6 241.658 315.488C237.264 313.375 231.962 310.921 229.873 310.034C227.784 309.148 223.319 304.56 219.952 299.838C212.841 289.865 209.906 289.301 202.735 296.519C191.563 307.76 170.092 356.221 172.171 365.498C172.68 367.769 175.108 362.339 177.567 353.43C182.968 333.862 197.595 305.411 206.004 298.112C209.372 295.187 212.416 293.239 212.77 293.779C213.125 294.322 215.305 297.878 217.619 301.682C222.58 309.842 240.602 319.231 267.091 327.45C289.585 334.429 298.582 334.824 308.79 329.272C321.944 322.12 326.73 312.03 326.621 291.685C326.528 274.244 319.868 251.01 312.466 242.307C308.23 237.328 276.37 224.309 255.076 218.855C230.227 212.494 197.245 212.365 183.027 218.577ZM182.414 227.06C175.146 231.086 163.085 243.371 145.114 265.056C130.508 282.683 115.006 300.788 110.666 305.292L102.773 313.48L108.6 304.122C111.803 298.975 125.596 280.881 139.25 263.91C166.339 230.244 176.22 221.838 189.357 221.274C191.446 221.185 188.322 223.789 182.414 227.06ZM266.59 226.667C308.232 237.972 314.783 243.561 321.048 273.123C325.697 295.073 324.168 308.691 315.839 319.498C307.62 330.164 305.287 327.553 312.241 315.471C319.189 303.399 320.263 289.718 315.778 270.4C312.727 257.254 303.73 243.364 298.131 243.156C296.103 243.081 290.456 240.716 285.582 237.901C275.828 232.27 272.921 231.61 272.921 235.035C272.921 236.282 268.73 234.678 263.61 231.468C252.144 224.278 242.61 221.847 240.174 225.49C238.824 227.507 236.125 227.31 229.683 224.73L221.01 221.251L233.671 221.209C240.635 221.185 255.448 223.642 266.59 226.667ZM180.495 270.199C181.51 273.416 184.69 278.415 187.557 281.312C192.599 286.4 192.609 286.578 187.899 286.627C183.442 286.676 183.526 287.034 188.863 290.829L194.698 294.977L189.413 301.186C182.89 308.848 171.103 333.069 172.293 336.368C172.774 337.702 175.286 333.624 177.879 327.307C180.469 320.988 185.437 311.62 188.919 306.485C196.448 295.391 197.8 287.797 192.92 284.056C190.96 282.554 189.357 280.189 189.357 278.804C189.357 277.161 190.416 277.26 192.396 279.089C194.067 280.633 197.2 281.812 199.36 281.712C202.763 281.553 202.778 281.358 199.486 280.254C197.397 279.555 191.854 275.69 187.167 271.666C178.828 264.507 178.687 264.476 180.495 270.199ZM277.985 281.386C277.985 285.118 276.387 293.075 274.435 299.066C272.442 305.187 272.006 309.323 273.442 308.504C275.063 307.578 275.329 309.075 274.174 312.603C272.652 317.245 272.918 317.659 275.802 315.118C277.805 313.349 279.147 307.655 279.006 301.521C278.854 295.08 279.58 292.162 280.864 294.034C282.181 295.952 282.986 293.426 283.012 287.299C283.032 281.906 281.91 276.843 280.517 276.048C279.051 275.21 277.985 277.458 277.985 281.386ZM166.881 311.524C162.197 316.239 156.641 323.87 154.534 328.486C145.593 348.073 136.619 373.139 138.546 373.139C139.693 373.139 142.063 369.947 143.81 366.045C148.746 355.04 149.632 359.595 145.223 373.305C140.161 389.055 142.182 391.104 148.913 377.046C153.569 367.316 153.734 365.533 150.503 359.834C147.429 354.413 147.406 352.139 150.346 344.442C154.501 333.561 167.17 312.315 169.505 312.313C170.424 312.311 167.248 322.462 162.45 334.868C157.651 347.275 154.127 358.54 154.618 359.904C155.109 361.265 159.285 351.905 163.893 339.101C168.504 326.296 173.87 312.924 175.818 309.386C180.733 300.456 176.985 301.352 166.881 311.524ZM94.5458 340.207C82.9634 354.116 80.4844 358.477 85.9287 355.37C87.7544 354.326 88.1621 354.729 87.0175 356.439C86.0097 357.946 84.1966 358.612 82.9862 357.922C81.1073 356.848 71.4013 368.191 63.9566 380.157C62.0751 383.182 62.3638 383.224 66.0583 380.457C71.181 376.618 71.571 379.633 66.7192 385.545C64.1718 388.65 62.9639 388.959 62.1435 386.715C61.4978 384.949 59.1732 386.972 56.6157 391.527C54.0708 396.057 53.501 398.647 55.2685 397.636C57.2512 396.504 57.8869 397.035 57.0613 399.133C56.3574 400.921 54.4455 402.102 52.8123 401.761C49.0975 400.982 36.7099 425.491 38.0114 431.042C38.685 433.908 40.6196 432.06 44.4661 424.875C47.487 419.232 49.2419 413.543 48.3632 412.23C47.3807 410.759 48.0517 410.581 50.123 411.765C52.5793 413.166 53.0326 412.602 51.8095 409.664C50.8599 407.378 51.1739 406.238 52.5388 407.018C53.8555 407.769 56.6359 405.345 58.7149 401.627C60.7964 397.912 67.208 388.318 72.9688 380.307C78.727 372.296 82.9128 365.257 82.2721 364.663C81.629 364.071 78.7017 367.051 75.7669 371.286C72.8295 375.523 70.4087 378.096 70.3859 377.008C70.3099 373.501 80.7908 361.347 82.8698 362.534C83.9763 363.165 88.8661 357.651 93.7355 350.279C112.059 322.546 112.357 318.822 94.5458 340.207ZM166.808 349.743C162.66 364.398 153.99 386.642 148.249 397.346C142.853 407.408 143.56 410.44 149.928 404.556C152.248 402.411 154.8 401.26 155.6 401.999C158.991 405.13 153.103 434.341 146.499 447.162C137.7 464.236 126.194 474.757 104.042 485.984C94.561 490.79 88.5571 494.739 90.7019 494.757C97.901 494.825 123.578 487.844 133.724 483.06C142.481 478.933 143.777 478.804 143.777 482.061C143.777 484.637 147.91 482.559 157.071 475.381C174.273 461.901 188.879 455.21 206.994 452.515C242.681 447.206 278.35 463.253 308.739 498.288C315.984 506.642 322.403 513.027 322.998 512.475C323.595 511.923 321.053 505.353 317.348 497.874L310.61 484.276L316.981 479.593C320.486 477.017 331.091 472.281 340.551 469.072C364.453 460.963 401.223 460.995 423.588 469.149C432.729 472.48 437.016 475.033 434.35 475.554C429.298 476.542 428.283 480.741 433.084 480.79C434.826 480.807 438.888 481.474 442.114 482.274C447.771 483.673 447.725 483.474 440.848 476.687C429.865 465.845 410.496 460.834 380.54 461.077C352.989 461.304 336.067 465.527 316.141 477.148C305.726 483.223 305.558 483.521 309.445 489.004C316.936 499.565 313.444 497.747 296.924 482.487C285.572 471.996 274.298 464.428 260.839 458.261C243.367 450.252 239.232 449.293 222.276 449.314C198.833 449.342 182.102 454.627 162.447 468.211C154.491 473.706 147.024 477.655 145.849 476.986C144.674 476.315 137.386 478.533 129.65 481.913C113.001 489.192 105.984 488.602 119.23 481.038C140.977 468.62 154.506 445.912 158.482 415.162C160.584 398.911 159.33 394.606 153.476 397.95C151.361 399.157 151.131 398.359 152.668 395.163C158.279 383.498 171.672 344.03 170.786 341.768C170.236 340.364 168.446 343.953 166.808 349.743ZM168.069 376.613C165.863 384.736 161.45 439.376 162.891 440.709C163.521 441.289 164.058 440.801 164.088 439.621C164.116 438.44 165.754 422.76 167.73 404.774C171.247 372.734 171.346 364.555 168.069 376.613ZM61.0876 393.125C60.2621 395.112 59.0441 396.235 58.3806 395.622C57.7172 395.009 57.9248 393.383 58.844 392.012C61.3408 388.278 62.7994 389.003 61.0876 393.125ZM186.825 442.873C179.165 445.236 170.414 448.409 167.375 449.922C162.521 452.342 161.721 452.04 160.756 447.414C159.819 442.911 159.611 443.079 159.315 448.589C158.892 456.468 159.925 456.501 177.241 449.178C211.973 434.486 257.649 441.713 288.114 466.718C294.381 471.863 300.324 476.074 301.319 476.076C302.315 476.076 308.364 473.376 314.766 470.075C321.167 466.774 332.886 462.008 340.812 459.486C351.017 456.239 352.632 455.261 346.355 456.134C341.481 456.81 329.171 461.133 319.005 465.74L300.514 474.113L289.023 464.327C263.146 442.291 218.85 432.991 186.825 442.873ZM14.3098 452.098C12.8082 455.636 10.433 465.375 9.03015 473.739C7.6273 482.103 4.89503 491.739 2.96041 495.155C1.02326 498.571 -0.468214 503.835 -0.359328 506.853C-0.146621 512.713 0.625692 511.455 3.04396 501.31C3.98848 497.35 5.80916 495.405 7.88811 496.142C10.4203 497.038 11.2813 493.639 11.4712 482C11.7346 465.988 15.8975 450.344 19.8959 450.344C21.1798 450.344 22.2306 449.291 22.2306 448.004C22.2306 443.173 16.9383 445.908 14.3098 452.098ZM365.347 452.587C357.461 453.965 360.639 454.433 379.682 454.69C395.718 454.908 409.483 456.557 419.645 459.479C435.059 463.913 466.998 479.962 472.422 486C474.531 488.347 474.283 497.888 471.465 522.977C467.142 561.476 456.57 604.994 444.993 631.962C436.621 651.462 418.328 686.343 414.573 689.964C413.236 691.253 406.961 687.47 398.97 680.557C373.721 658.71 344.57 642.055 326.097 638.918C320.06 637.893 322.236 639.245 332.917 643.152C353.511 650.688 371.541 661.522 395.156 680.55L414.449 696.096L420.78 686.102C451.1 638.244 471.409 572.133 476.453 504.853L477.714 488.005L468.889 480.844C457.978 471.994 429.964 458.913 414.725 455.554C397.896 451.843 376.84 450.578 365.347 452.587ZM19.6984 465.607C19.6984 470.88 29.4323 485.437 32.9596 485.437C34.4537 485.437 33.5066 483.069 30.8528 480.173L26.029 474.909L31.6657 479.316C34.7676 481.74 36.6795 484.658 35.9147 485.799C35.1525 486.941 38.5609 489.43 43.4911 491.335C54.8431 495.717 56.5701 495.686 52.5211 491.178C50.7359 489.189 47.7605 488.099 45.912 488.756C44.0609 489.412 42.8201 489.131 43.1518 488.134C43.4835 487.135 38.3406 480.744 31.7265 473.928C23.7474 465.707 19.6984 462.907 19.6984 465.607ZM365.347 470.15C363.954 470.548 356.261 472.211 348.254 473.849C334.038 476.755 330.47 479.167 336.859 481.548C338.809 482.274 338.379 482.798 335.743 482.912C333.388 483.013 330.681 484.262 329.729 485.687C327.885 488.441 343.894 486.227 346.355 483.387C347.051 482.585 357.877 481.551 370.411 481.092C382.946 480.634 393.92 479.195 394.799 477.896C395.678 476.598 401.089 475.947 406.827 476.453C412.563 476.958 417.257 476.642 417.257 475.749C417.257 471.776 375.458 467.27 365.347 470.15ZM390.378 474.775C387.248 476.801 376.137 478.645 362.594 479.389C344.567 480.379 341.045 480.072 345.089 477.875C351.273 474.513 366.175 472.083 383.004 471.692C394.657 471.42 395.207 471.65 390.378 474.775ZM457.14 487.18C464.255 490.453 465.428 492.252 465.795 500.482L466.22 510.002L467.243 500.779C468.079 493.246 467.19 490.794 462.387 487.381C459.153 485.081 454.797 483.245 452.708 483.298C450.619 483.352 452.612 485.1 457.14 487.18ZM110.172 489.189C109.331 489.966 107.146 490.05 105.32 489.374C103.3 488.628 103.9 488.073 106.85 487.961C109.519 487.86 111.013 488.413 110.172 489.189ZM143.777 508.643C143.777 515.476 184.554 549.142 188.461 545.535C189.213 544.84 186.59 542.72 182.629 540.823C173.589 536.495 151.374 518.544 151.374 515.568C151.374 514.344 155.648 516.033 160.87 519.32C170.654 525.478 206.933 539.34 212.699 539.124C214.485 539.057 207.936 536.163 198.144 532.691C177.114 525.232 148.842 511.363 148.842 508.507C148.842 507.398 147.702 506.493 146.31 506.493C144.917 506.493 143.777 507.461 143.777 508.643ZM3.282 518.19C6.41436 528.95 26.0999 541.766 44.8738 545.271C48.4366 545.935 44.6028 543.799 36.3554 540.521C19.6224 533.872 13.659 529.649 6.47767 519.36C1.98803 512.926 1.72215 512.828 3.282 518.19ZM460.961 540.243C459.234 554.301 458.251 566.205 458.781 566.691C460.492 568.273 465.939 528.929 465.007 521.7C464.511 517.839 462.69 526.184 460.961 540.243ZM17.1662 525.511C17.1662 528.802 34.4309 533.388 46.2867 533.245C59.5024 533.088 74.8578 528.601 71.814 525.787C69.6135 523.756 17.1662 523.489 17.1662 525.511ZM61.2902 527.263C63.4147 530.44 48.2315 532.405 36.5326 530.466L26.029 528.728L39.9562 527.35C47.6161 526.592 55.2407 525.801 56.8993 525.59C58.5579 525.38 60.533 526.133 61.2902 527.263ZM226.075 542.821C231.645 544.517 239.052 545.893 242.534 545.876C246.322 545.858 243.78 544.538 236.203 542.592C220.291 538.5 212.469 538.678 226.075 542.821ZM331.967 553.948C333.299 567.211 342.521 580.766 368.831 608.143C387.413 627.48 400.2 646.963 403.363 660.757L405.206 668.798L390.342 656.53C382.166 649.78 370.624 641.423 364.696 637.958C358.765 634.494 353.25 629.737 352.437 627.388C351.622 625.039 350.465 623.573 349.862 624.129C346.927 626.839 353.423 633.913 366.296 642.032C374.131 646.97 385.293 655.341 391.102 660.636C407.394 675.48 410.709 673.15 403.029 652.246C397.455 637.081 385.956 621.378 363.113 597.735C344.803 578.782 339.047 570.711 334.97 558.255C333.724 554.449 334.036 553.202 335.955 554.299C340.052 556.638 339.379 552.549 334.801 547.297C331.101 543.055 330.916 543.492 331.967 553.948ZM52.7312 547.009C55.2103 549.552 96.8755 555.375 98.9722 553.471C100.096 552.451 93.5101 550.906 84.3384 550.038C75.1667 549.171 63.992 547.816 59.5074 547.027C55.0203 546.237 51.9716 546.23 52.7312 547.009ZM193.123 548.553C194.85 551.138 212.061 556.482 213.72 554.949C214.398 554.322 209.734 552.165 203.353 550.158C196.972 548.148 192.368 547.428 193.123 548.553ZM252.03 547.814C253.772 548.464 256.621 548.464 258.36 547.814C260.103 547.165 258.677 546.634 255.195 546.634C251.713 546.634 250.29 547.165 252.03 547.814ZM270.388 550.944C277.501 552.327 275.628 552.729 260.893 552.975C249.141 553.173 242.534 554.233 242.534 555.925C242.534 557.717 238.267 558.143 229.24 557.249C220.521 556.386 218.126 556.603 222.276 557.883C231.623 560.765 252.399 560.831 247.598 557.962C245 556.411 251.561 555.684 268.34 555.658C292.857 555.623 302.624 552.806 287.757 550.06C283.427 549.259 275.754 548.742 270.705 548.913L261.526 549.22L270.388 550.944ZM76.0403 557.314C71.5153 557.834 67.8106 559.179 67.8106 560.302C67.8106 562.452 104.13 581.814 123.52 590C178.932 613.393 241.729 622.482 281.611 612.886C297.205 609.133 302.274 609.615 293.396 614.004C285.202 618.056 287.144 621.168 297.61 620.756L307.106 620.381L298.575 619.418C290.216 618.472 290.152 618.381 295.45 614.951C298.425 613.026 300.094 610.307 299.16 608.911C298.091 607.313 298.651 607.051 300.666 608.202C302.535 609.269 304.796 608.686 306.083 606.807C310.192 600.816 308.407 599.939 300.142 603.888C285.516 610.881 267.147 614.055 241.268 614.067C195.078 614.088 138.571 597.533 83.242 567.772L72.0875 561.771L81.9759 558.943C92.0845 556.051 90.6057 555.646 76.0403 557.314ZM342.283 563.811C346.854 572.624 363.579 590.716 367.157 590.716C368.631 590.716 364.835 585.716 358.722 579.603C352.607 573.49 345.59 565.858 343.127 562.642L338.644 556.793L342.283 563.811ZM453.055 581.943C447.73 603.813 447.434 606.178 451.083 597.62C454.823 588.851 458.973 569.66 457.132 569.66C456.535 569.66 454.701 575.189 453.055 581.943ZM384.09 607.844C400.871 623.729 410.443 635.614 416.065 647.56C418.004 651.682 419.627 653.474 419.671 651.544C419.871 642.546 378.836 593.056 371.176 593.056C369.684 593.056 375.496 599.712 384.09 607.844ZM343.752 609.554C342.222 612.195 341.481 616.145 342.103 618.327C342.868 621.011 343.413 620.4 343.782 616.451L344.327 610.602L346.355 616.451C348.166 621.671 348.409 621.357 348.634 613.527C348.92 603.586 347.758 602.638 343.752 609.554ZM442.683 615.281C433.304 642.228 424.153 661.302 422.061 658.254C420.359 655.772 419.858 656.017 419.828 659.342C419.807 661.721 421.2 663.219 422.955 662.701C426.735 661.593 448.447 612.818 446.968 608.752C446.403 607.196 444.474 610.134 442.683 615.281ZM321.033 624.546C337.062 628.465 341.291 628.851 341.291 626.394C341.291 625.428 338.728 624.478 335.593 624.279C332.458 624.08 324.768 623.292 318.501 622.527C307.612 621.2 307.726 621.292 321.033 624.546ZM253.929 632.634C277.127 635.588 318.982 637.439 308.372 635.039C303.497 633.937 285.835 632.507 269.122 631.866C247.094 631.019 242.914 631.23 253.929 632.634Z" fill="#40C1FF" fill-opacity="0.2"/>
</g>
<defs>
<clipPath id="clip0_98_253">
<rect width="470" height="610" rx="25" fill="white"/>
</clipPath>
</defs>
</svg>
