<svg width="470" height="610" fill="none" xmlns="http://www.w3.org/2000/svg"><g clip-path="url(#a)"><rect width="470" height="610" rx="25" fill="#fff"/><path d="M55.94 72.12V60.28c0-.68.28-1.02.84-1.02.56 0 .84.34.84 1.02v10.16h3.26V60.28c0-.68.28-1.02.84-1.02.56 0 .84.34.84 1.02v10.16h3.26V60.28c0-.68.28-1.02.84-1.02.56 0 .84.34.84 1.02v11.84H55.94Zm23.467.14a.576.576 0 0 1-.41-.15c-.107-.093-.187-.297-.24-.61-.047-.313-.07-.793-.07-1.44l.22.52c-.42.58-.947.983-1.58 1.21-.627.22-1.367.33-2.22.33h-1.86c-.727 0-1.32-.24-1.78-.72-.454-.487-.68-1.22-.68-2.2 0-.613.1-1.13.3-1.55.2-.427.51-.77.93-1.03.42-.267.956-.46 1.61-.58.653-.12 1.433-.18 2.34-.18h3.38l-.76.68v-1.48c0-.293-.05-.487-.15-.58-.094-.093-.304-.14-.63-.14h-2.82c-.674 0-1.19.017-1.55.05-.354.033-.6.1-.74.2a.51.51 0 0 0-.23.41c-.027.347-.09.603-.19.77-.1.167-.317.25-.65.25-.56 0-.84-.36-.84-1.08 0-.793.33-1.37.99-1.73.66-.367 1.683-.55 3.07-.55h3.1c.853 0 1.453.203 1.8.61.346.407.52 1.11.52 2.11v5.92c0 .64-.287.96-.86.96Zm-6.1-1.74h1.8c1.26 0 2.153-.253 2.68-.76.533-.513.8-1.32.8-2.42l.12.12h-2.74c-.88 0-1.577.043-2.09.13-.507.08-.87.24-1.09.48-.214.24-.32.597-.32 1.07 0 .427.073.763.22 1.01.153.247.36.37.62.37Zm17.995-6.18h-5.34c-.32 0-.53.053-.63.16-.1.1-.15.32-.15.66v6.14c0 .64-.28.96-.84.96-.56 0-.84-.32-.84-.96v-5.92c0-1 .173-1.703.52-2.11.346-.407.946-.61 1.8-.61h5.48c.68 0 1.02.28 1.02.84 0 .56-.34.84-1.02.84ZM104.98 72c-.56 0-.84-.28-.84-.84V60.84l.46-.32-2.2 2.06c-.166.16-.343.257-.53.29-.186.027-.37-.05-.55-.23-.36-.36-.34-.74.06-1.14l2.68-2.64c.28-.28.627-.42 1.04-.42.48 0 .72.28.72.84v11.88c0 .56-.28.84-.84.84Z" fill="#fff"/><path opacity=".2" fill-rule="evenodd" clip-rule="evenodd" d="M429.534 210.174c-.191 3.946-.446 11.469-.567 16.718-.123 5.249-.327 9.629-.456 9.733-.128.105-7.293.231-15.922.28l-15.688.091v-20.588h-5.816l-.406 14.113c-.321 11.169-1.872 42.086-2.418 48.22-.123 1.365.349 1.352-8.807.257-7.376-.883-11.593-2.231-13.675-4.373-.637-.655-1.229-2.326-1.471-4.153-.344-2.597-.175-3.616 1.12-6.786 1.291-3.162 1.519-4.538 1.498-9.039-.033-6.938-1.058-9.545-4.276-10.882-2.87-1.192-10.308-1.596-14.714-.798-4.574.828-4.828 1.497-4.828 12.707 0 4.925-.196 8.966-.436 8.981-.24.015-2.791.119-5.67.232-7.384.288-8.616.525-10.3 1.981-2.314 2.001-3.382 4.106-3.765 7.417-.333 2.888-.287 3.044.896 3.044 1.025 0 1.247-.278 1.247-1.561 0-2.771 1.642-6.283 3.544-7.577l1.779-1.211h31.314v3.228c0 2.898.184 3.415 1.794 5.054 2.064 2.101 2.871 2.587 3.648 2.199.305-.152.366-.031.135.27-.72.943 4.283 2.272 12.346 3.279 4.199.524 7.842 1.057 8.097 1.184.254.128.529 1.678.609 3.446.176 3.868 1.612 12.405 3.023 17.978.565 2.23.913 4.213.773 4.408-.312.434-55.509.471-62.991.041l-5.412-.31.339-14.784.341-14.783-20.459.335c-11.253.184-20.575.419-20.716.521-.14.104-.321 1.082-.401 2.176-.702 9.599-1.484 18.813-1.741 20.51l-.311 2.058-5.915-.326c-3.252-.179-7.615-.506-9.694-.726-2.079-.22-8.01-.662-13.179-.981l-9.399-.58.221-2.397c.121-1.319.529-7.447.907-13.617.544-8.874.538-11.295-.03-11.578-.51-.256-.401-.426.38-.591 1.041-.22 1.105-.992 1.258-15.354l.162-15.123h-12.167c-6.691 0-15.74.139-20.109.308-7.195.279-7.943.39-7.943 1.176 0 .799.599.868 7.515.868h7.514l.065 14.072.065 14.071-4.526.308c-2.489.17-6.227.481-8.307.692l-3.78.383-4.519-2.549-4.519-2.549-14.526.326-14.526.327v-3.769c0-2.072-.168-5.069-.374-6.659-.315-2.437-.55-2.892-1.495-2.892-1.073 0-1.103.28-.708 6.576.339 5.413.27 6.612-.396 6.783-.444.114-4.831.316-9.749.448l-8.942.24.296-9.258c.333-10.42 1.553-16.305 5.578-26.9l2.233-5.88-2.671-.761c-1.47-.418-2.861-.674-3.09-.569-1.194.546-6.249 16.27-7.461 23.205l-.699 3.999-9.668.137c-12.131.172-26.339.93-26.967 1.437-.809.655.194 2.04 1.236 1.709 1.184-.376 19.73-1.128 28.342-1.15l6.463-.016.336 9.526c.243 6.873.669 10.837 1.531 14.231.657 2.588 1.196 4.77 1.197 4.85.001.08.26.016.577-.142.315-.158.434.008.262.37s.079 1.576.557 2.698c.478 1.122.765 2.176.639 2.342-.24.313-1.015.216-20.643-2.591-29.889-4.274-46.411-6.679-64.55-9.396-4.319-.647-8.57-1.279-9.45-1.405-1.408-.203-1.61-.077-1.691 1.051-.05.706-.142 1.844-.203 2.53-.127 1.418-1.302 1.197 30.825 5.8a6159.467 6159.467 0 0 1 22.68 3.29c4.158.617 8.568 1.256 9.801 1.421 1.869.249 2.093.39 1.351.856-.692.433-1.156 3.149-2.088 12.211-1.298 12.638-1.642 13.722-4.877 15.339-4.166 2.082-6.917 2.17-22.608.717l-14.436-1.337v-1.896c0-1.042.287-4.224.636-7.07.348-2.846 1.07-9.356 1.605-14.466l.97-9.291h-1.315c-.97 0-1.32.277-1.332 1.058-.01.583-.384 4.552-.833 8.821a5100.181 5100.181 0 0 0-1.533 14.819c-.393 3.881-.896 7.227-1.117 7.435-.221.208-4.038.052-8.482-.348-4.444-.399-13.969-1.251-21.165-1.892a4176.57 4176.57 0 0 1-18.028-1.64 576.917 576.917 0 0 0-8.432-.745c-1.92-.149-4.47-.385-5.67-.523-2.05-.238-2.181-.178-2.181.992 0 .685.197 1.157.436 1.049.24-.107 1.745-.067 3.344.09l2.908.286v19.588l-2.893-.15c-2.302-.119-2.933.006-3.082.614-.104.42.282.942.858 1.161.575.218 14.852.471 31.726.562l30.68.167-.236 2.202c-.13 1.21-.263 4.529-.294 7.376l-.059 5.174-9.16-.303c-15.48-.515-48.57-1.519-51.03-1.549l-2.326-.029-.313 2.2-.312 2.201 4.674.255c19.606 1.069 79.286 2.356 85.105 1.834 2.658-.238 4.935-.297 5.06-.133.127.165.007 9.916-.266 21.669-.272 11.754-.456 21.568-.408 21.811.049.242-4.36.913-9.798 1.489-38.113 4.044-35.407 3.637-39.32 5.915-3.763 2.191-4.936 3.398-4.64 4.774.045.213-.17.261-.48.107-.856-.428-2.682 2.972-1.926 3.584.85.688 1.706.152 3-1.876.608-.953 2.11-2.494 3.336-3.424 3.876-2.939 5.96-3.671 11.887-4.18 3.005-.259 15.146-1.534 26.98-2.834 34.829-3.827 31.576-3.682 42.61-1.9 9.395 1.518 9.491 1.523 13.521.775 12.995-2.414 15.92-2.767 15.991-1.93.022.258.356 1.846.742 3.528 1.344 5.86 4.19 20.264 4.19 21.212 0 .525-.196.864-.436.753-.241-.111-3.838.277-7.996.862-4.159.584-7.715.927-7.905.761-.189-.166-.795-2.948-1.347-6.182-1.55-9.084-1.505-8.938-2.735-8.938-.604 0-1.098.213-1.098.474 0 .438 2.256 13.703 2.506 14.735.107.44-2.799.985-11.6 2.174-3.674.496-4.117.666-3.854 1.479.328 1.016.174 1.022 9.587-.355 2.789-.408 5.418-.634 5.843-.502.692.215.856.899 1.202 5.018.102 1.222-.002 1.245-11.971 2.597-2.213.25-2.762.493-2.762 1.224 0 1.095.044 1.096 7.319.209 3.171-.387 6.325-.704 7.009-.706 1.352-.003 1.583.59 2.282 5.886l.374 2.831-6.893.934c-6.388.866-6.907 1.016-7.086 2.035-.154.88.021 1.049.872.84.587-.144 5.122-.799 10.08-1.456a1704.32 1704.32 0 0 0 15.88-2.186c3.777-.545 6.94-.915 7.029-.823.517.54 1.921 8.702 1.551 9.015-.246.208-5.076.734-10.732 1.167-9.718.746-10.276.841-10.116 1.739.193 1.093.128 1.093 12.601-.042 4.281-.389 8.104-.608 8.497-.486.393.122.886 1.246 1.095 2.497.327 1.952 1.183 4.907 3.858 13.329.684 2.152 4.936 11.439 6.406 13.991.632 1.097 1.149 2.108 1.149 2.248 0 .139.916 1.752 2.035 3.584 2.284 3.739 2.405 4.17 1.164 4.17-.48 0-.879.265-.886.588-.034 1.572-1.648 14.085-1.836 14.237-.119.096-8.845-.682-19.391-1.729-26.199-2.6-28.131-2.661-36.99-1.184a841.198 841.198 0 0 1-12.377 1.965l-5.184.766-1.394-1.128c-1.111-.899-1.738-2.501-3.096-7.909-.936-3.731-2.741-10.91-4.01-15.956-1.985-7.89-2.194-9.267-1.49-9.839.705-.573 16.785-3.092 30.457-4.772 2.035-.25 3.893-.551 4.128-.668.38-.19 15.266.489 33.368 1.522 5.665.324 6.36.277 6.846-.457.751-1.135.695-1.141-20.712-2.259l-18.609-.971-6.106.946c-3.358.52-11.056 1.605-17.104 2.411-8.79 1.172-11.827 1.779-15.12 3.022-3.024 1.142-6.757 1.951-14.008 3.036-5.438.814-11.064 1.669-12.504 1.901-1.439.232-3.703.54-5.03.685l-2.414.265-.698-2.352c-.746-2.514-1.47-3.229-2.462-2.427-.434.352-.401 1.321.113 3.284 1.031 3.926 1.07 3.956 4.43 3.413 1.574-.255 8.877-1.338 16.227-2.406 7.35-1.069 13.809-2.137 14.355-2.373 1.453-.629 1.973-.529 2.063.395.044.452 1.172 5.163 2.506 10.467a7901.12 7901.12 0 0 1 3.736 14.902c1.174 4.718 1.577 5.55 3.925 8.107 1.44 1.568 2.831 2.695 3.09 2.505.26-.19.311-.117.115.162-.457.65.445 3.045 4.425 11.742 10.546 23.046 9.962 21.158 6.991 22.617-1.022.501-1.007.614.331 2.587.77 1.135 1.467 2.134 1.55 2.219.121.125 8.053-3.547 12.528-5.799 2.532-1.275 6.094-2.809 6.536-2.817.424-.006 2.829 5.61 6.693 15.633.868 2.252 2.033 3.087 3.1 2.224.168-.136-.575-2.412-1.652-5.057a654.518 654.518 0 0 1-3.464-8.703c-.828-2.142-1.842-4.165-2.253-4.498-.609-.492.669-1.294 6.889-4.321 4.2-2.044 8.291-4.066 9.091-4.492 5.692-3.036 20.745-11.152 21.745-11.725 3.59-2.056 9.718-7.194 9.394-7.877-.167-.354-.081-.532.192-.395.272.136 1.622-.833 2.999-2.153 2.307-2.214 2.563-2.336 3.267-1.556.796.88 4.714 4.709 5.727 5.598.32.28 2.151 1.989 4.068 3.797 1.917 1.809 3.749 3.516 4.071 3.793.321.278 1.631 1.523 2.911 2.768a330.056 330.056 0 0 0 9.304 8.736 544.582 544.582 0 0 1 4.652 4.257l5.525 5.146c2.079 1.937 4.07 3.733 4.426 3.992.354.259 2.7 2.376 5.213 4.704 8.672 8.038 20.538 17.992 24.6 20.636 1.079.704 1.844 1.374 1.7 1.491-.144.116-5.607 1.067-12.139 2.111-9.31 1.489-12.507 1.826-14.786 1.561-1.599-.186-5.62-.351-8.935-.367l-6.028-.028-5.191-8.232c-2.855-4.528-5.444-8.304-5.752-8.391-.309-.087-.431-.328-.272-.537.535-.7-4.242-3.715-6.407-4.043-1.272-.193-6.801.171-13.803.91-6.423.678-11.738 1.181-11.809 1.119-.072-.063-1.316-5.847-2.765-12.853-2.635-12.732-2.638-12.741-5.109-15.877-2.564-3.253-3.662-3.813-4.298-2.19-.204.521-.615.826-.911.677-1.036-.518-.524.361 1.751 3.004l2.291 2.662 3.224 15.995c1.774 8.798 3.62 17.795 4.103 19.994.482 2.199 1.537 7.386 2.343 11.526s1.856 9.326 2.334 11.525c.478 2.2 1.153 5.481 1.5 7.292.346 1.811.695 3.611.774 3.999.086.422.916.767 2.068.858l1.924.153-.383-2.27c-.211-1.248-.882-4.598-1.492-7.444-.609-2.846-.934-5.312-.72-5.479.213-.167 4.444-.963 9.401-1.769 11.835-1.922 12.467-2.075 12.708-3.085.183-.773-.095-.824-2.877-.526-1.694.182-6.843 1.035-11.442 1.895-5.789 1.083-8.433 1.4-8.592 1.03-.504-1.176-2.502-11.817-2.256-12.017.145-.117 1.503-.362 3.017-.544 1.515-.182 5.96-.713 9.878-1.179 6.106-.727 7.124-.97 7.124-1.701 0-1.119-1.559-1.106-10.284.086-7.234.988-10.651 1.177-10.651.59 0-.194-.529-2.976-1.177-6.183-.646-3.207-1.104-5.887-1.017-5.955.243-.191 12.266-1.557 18.595-2.114 4.953-.435 5.877-.398 7.553.303 1.923.804 5.167 3.29 4.741 3.634-.347.281 20.082 33.463 20.707 33.633.3.081.384.486.188.9-.256.54-.139.644.414.367.489-.245.63-.202.387.116-.319.417 1.008 3.127 3.037 6.202.639.969 1.762 1.164 2.138.372.177-.372-2.531-5.418-6.017-11.212-3.485-5.795-6.506-10.92-6.713-11.389-.233-.53-.654-.719-1.107-.498-.504.245-.483.108.067-.441.652-.649 1.847-.796 6.505-.796 3.138 0 6.34.195 7.115.433 1.018.314 4.132-.01 11.232-1.166 5.403-.879 10.102-1.603 10.442-1.609.822-.013 7.553 22.509 6.878 23.017-.284.214-2.611.962-5.17 1.661-5.294 1.448-5.672 1.643-4.962 2.572.431.564 1.363.442 5.835-.765l5.321-1.436.524 1.113c.57 1.213 1.148 1.384 2.094.619.428-.347-.037-2.572-1.549-7.41-6.414-20.525-6.38-20.296-3.046-20.315.796-.004 1.308-.295 1.308-.745 0-.627.24-.6 1.599.176 2.659 1.52 9.477 4.145 14.103 5.43 5.926 1.647 12.916 2.927 25.006 4.579 5.597.765 12.27 1.702 14.829 2.082 9.633 1.431 24.207 3.032 34.602 3.801 9.146.677 15.028.753 39.254.501 27.534-.286 54.321-.891 67.341-1.52l6.28-.304-.174-2.382-.173-2.382-5.525-.035-5.525-.034.082-3.764c.046-2.07.147-7.468.227-11.996.186-10.659.839-16.941 2.395-23.052.693-2.716 1.283-5.398 1.313-5.959.03-.56.172-.923.317-.806.144.117.833-1.33 1.53-3.215.697-1.885 3.513-8.222 6.257-14.082 10.332-22.066 11.974-28.097 14.648-53.795 1.155-11.095.674-15.577-2.447-22.817-1.05-2.434-5.653-9.969-7.173-11.74-.564-.658-2-2.418-3.191-3.912-1.191-1.493-2.658-2.994-3.26-3.335-.602-.341-.969-.723-.814-.847.268-.217-1.711-2.219-7.837-7.929a254.187 254.187 0 0 1-5.588-5.41c-1.544-1.548-2.974-2.921-3.18-3.05-.206-.13-1.045-1.102-1.863-2.16-.82-1.058-1.846-2.223-2.28-2.587-.435-.365-1.781-1.767-2.992-3.115-1.956-2.178-2.122-2.571-1.486-3.528.393-.592.871-1.712 1.063-2.488.338-1.374.671-1.501 12.432-4.719 6.647-1.819 11.883-3.471 11.636-3.671-.247-.2-.033-.234.475-.076.508.157 6.826-1.416 14.041-3.496 14.428-4.159 19.408-5.392 29.675-7.344l6.875-1.307-.398-2.396c-.22-1.317-.437-2.432-.483-2.477-.134-.131-11.841 2.045-16.94 3.148-2.559.554-9.101 2.286-14.538 3.848-15.43 4.435-42.326 11.668-43.388 11.668-.555 0-1.247-.645-1.64-1.529-.375-.84-1.308-2.555-2.073-3.809l-1.392-2.281 1.283-2.188c1.204-2.053 1.862-2.458 10.58-6.523a36973.96 36973.96 0 0 0 14.531-6.775c2.879-1.342 6.019-2.807 6.979-3.253a27088.38 27088.38 0 0 1 20.063-9.371c6.237-2.91 11.589-5.482 11.892-5.715.304-.234 1.144-.425 1.866-.425 1.489 0 1.876.492 8.343 10.585 2.321 3.622 4.279 6.644 4.351 6.715.293.286 2.043-.496 2.043-.912 0-.247-.196-.351-.436-.231-.24.12-.483-.238-.539-.795-.089-.88-1.692-3.426-9.164-14.552-2.186-3.255-3.569-3.614-7.587-1.969-3.51 1.436-3.38 1.469-5.91-1.484-.913-1.066-3.885-4.337-6.604-7.269a5617.386 5617.386 0 0 1-11.24-12.176l-7.56-8.217a754.173 754.173 0 0 0-4.607-4.918c-1.839-1.949-3.344-3.771-3.344-4.047 0-.276 1.178-2.129 2.617-4.118 1.44-1.989 2.617-3.735 2.617-3.881 0-.145.61-1.053 1.355-2.019.744-.965 2.275-3.13 3.4-4.812 1.125-1.682 4.006-5.916 6.401-9.409 2.395-3.493 5.151-7.515 6.124-8.938 9.366-13.697 16.686-24.286 16.973-24.555.192-.179 3.7.368 7.795 1.216 8.219 1.702 7.987 1.741 8.737-1.463.392-1.676 1.008-1.413-7.024-2.999-2.051-.406-3.053-.843-3.053-1.334 0-.401 2.501-8.011 5.557-16.911 3.056-8.899 5.419-16.47 5.251-16.822-.824-1.737-1.91-.288-3.67 4.892-6.202 18.259-9.693 28.15-10.053 28.484-.602.557-20.327-3.583-23.389-4.909-.978-.423-1.154-1.331-.354-1.825.364-.225 6.304-15.658 6.304-16.378 0-.189-2.028-.932-4.507-1.653-7.409-2.153-7.249-2.076-6.788-3.258.227-.58 1.297-2.627 2.378-4.549 1.906-3.387 1.934-4.734.088-4.152-.421.133-2.071 2.72-3.665 5.749-1.594 3.028-3.056 5.584-3.248 5.68-.191.096-3.983-.239-8.424-.745-4.442-.507-8.127-.921-8.191-.921-.11 0-3.534 11.835-4.046 13.983-.207.872-.523 1.001-1.913.776-.916-.149-6.082-.513-11.479-.811l-9.813-.541.155-7.291c.085-4.011.313-11.579.507-16.819.346-9.333.329-9.526-.82-9.526-1.11 0-1.191.386-1.519 7.174Zm53.508 16.416c2.518.813 4.664 1.534 4.767 1.603.194.127-5.699 15.821-6.067 16.157-.206.188-21.471-4.808-23.963-5.63-.886-.293-1.253-.725-1.074-1.264.15-.451.991-3.254 1.867-6.23.876-2.975 1.667-5.483 1.758-5.572.216-.212 14.853 1.316 15.445 1.612.25.125.889-.309 1.419-.964.531-.656 1.034-1.191 1.117-1.191.084 0 2.213.665 4.731 1.479Zm-103.588 10.346c-4.158.164-11.119.323-15.47.352-4.351.03-9.52.19-11.486.356-3.027.256-3.574.443-3.574 1.219 0 .875.337.904 7.414.643 4.078-.151 13.107-.405 20.063-.565 11.585-.267 12.649-.362 12.649-1.126 0-1.14-.905-1.223-9.596-.879Zm60.416 5.026c.293.384-.525 32.816-1.175 46.571-.304 6.438-.442 7.17-1.295 6.881-1.848-.628-20.23-5.956-27.415-7.946-3.998-1.108-8.185-2.326-9.304-2.706-3.654-1.243-5.234-1.421-5.234-.592 0 .424-.277.604-.646.419-.446-.223-.53-1.797-.269-5.085.333-4.203 2.049-34.967 2.07-37.105.007-.769 1.421-.823 21.49-.823 11.816 0 21.616.174 21.778.386Zm12.277.801c1.599.169 5.132.833 7.851 1.476 2.718.643 7.167 1.691 9.886 2.329 2.718.638 9.392 2.307 14.829 3.71 5.437 1.402 11.195 2.777 12.794 3.057 5.341.932 5.141.802 3.867 2.508-.613.821-2.056 2.92-3.207 4.663-1.15 1.744-2.751 4.015-3.557 5.048-.805 1.032-1.465 1.954-1.465 2.047 0 .15-3.123 4.741-13.657 20.078-6.631 9.654-7.005 10.115-8.177 10.087-1.77-.044-10.532-.694-15.675-1.164-2.559-.233-6.04-.47-7.736-.525-1.697-.055-3.224-.283-3.394-.507-.316-.413.64-34.62 1.31-46.844l.368-6.729 1.528.23c.84.126 2.836.368 4.435.536Zm-209.263 14.854c-.214 7.309-.455 13.342-.536 13.408-.171.138-17.214 1.6-18.653 1.6-.878 0-.965-1.271-.965-14.022V244.58l10.271-.126 10.271-.125-.388 13.288Zm118.476-12.216c2.372.874 2.977 2.843 2.945 9.583-.022 4.355-.29 6.657-.933 7.997l-.902 1.882H345.725l-.158-9.248c-.135-7.945-.026-9.353.769-9.997.734-.593 2.242-.749 7.254-.749 3.48 0 6.977.239 7.77.532Zm-164.307 27.577c1.776.97 3.453 1.889 3.726 2.042.701.394.838 1.758 1.304 13.012.341 8.258.276 9.996-.374 9.993-1.656-.008-11.492-.964-16.78-1.63-3.038-.382-9.057-1.134-13.375-1.671-4.318-.536-9.028-1.166-10.468-1.4-1.439-.234-4.498-.664-6.797-.956l-4.181-.53-1.152-2.903c-2.923-7.366-5.062-16.275-3.927-16.356 1.245-.089 40.234-1.222 44.492-1.293 4.076-.069 4.472.02 7.532 1.692Zm45.104.941c-.13.453-.621 6.621-1.091 13.706-.47 7.086-.981 12.986-1.136 13.111-.154.125-3.499-.005-7.432-.288-16.153-1.165-26.379-1.981-26.986-2.154-.426-.122-.78-3.648-1.049-10.457-.223-5.65-.526-10.608-.674-11.019-.231-.641.983-.827 8.609-1.328 6.869-.45 24.144-1.823 29.322-2.329.37-.036.567.305.437.758Zm79.553 20.464-.171 13.055-3.027-.003c-1.665-.002-5.644-.324-8.842-.716-3.199-.392-10.231-1.122-15.629-1.623-5.397-.501-9.951-1.023-10.12-1.16-.168-.136.04-5.434.463-11.774l.769-11.526 18.073-.125c11.623-.08 18.178.044 18.365.347.16.258.214 6.345.119 13.525Zm81.587-6.77c13.904 4.043 34.655 9.945 34.964 9.945.121 0 .22 1.983.22 4.405 0 4.112-.1 4.487-1.505 5.623-.976.789-2.459 1.333-4.213 1.546-3.961.48-32.695-.12-33.411-.699-1.129-.914-4.45-16.615-4.475-21.162-.01-1.747.14-2.014 1.006-1.786.559.147 3.896 1.105 7.414 2.128Zm-279.42 5.707 15.774 2.18 5.608.774 1.217 4.628c2.789 10.593 3.561 17.482 3.561 31.764 0 9.062-.188 12.424-.727 12.987-.505.529-3.123 1.057-8.578 1.732-16.422 2.033-38.611 4.169-45.331 4.366l-4.915.143-.732-3.487c-.743-3.536-1.942-17.565-1.942-22.722v-2.819l3.953.322c5.001.406 10.783-.401 13.627-1.904 4.025-2.125 4.556-3.678 5.909-17.257.736-7.381 1.443-12.114 1.808-12.114.33 0 5.175.633 10.768 1.407Zm37.366 5.189c14.225 1.947 34.095 4.169 44.04 4.924 5.598.425 10.801.876 11.562 1.002l1.385.229-.318 8.561c-.292 7.834-.487 9.06-2.302 14.441l-1.984 5.879-20.6 4.533c-27.212 5.987-36.226 7.939-36.659 7.937-.198-.001-.23-4.818-.071-10.704.168-6.263.007-13.434-.388-17.289-.657-6.404-2.404-15.878-3.485-18.9-.578-1.614-.275-2.202.939-1.825.423.131 3.969.677 7.881 1.212Zm295.847.225c5.277.39 10.567.833 11.754.982l2.16.271-2.307 3.373c-1.269 1.854-3.28 4.805-4.468 6.556l-2.162 3.184-11.066-.308c-6.087-.17-11.193-.4-11.349-.512-.155-.111.279-.559.963-.993 2.874-1.826 3.676-3.767 3.679-8.895l.002-4.81 1.599.22c.88.122 5.917.541 11.195.932Zm-224.184 6.826c3.519.252 14.116.998 23.549 1.658 9.433.661 17.315 1.35 17.516 1.533.2.183.201 3.614.004 7.625l-.361 7.292h-27.041c-26.713 0-27.04-.012-26.865-.941.098-.518.328-4.786.512-9.486l.336-8.546 2.977.204c1.637.112 5.855.409 9.373.661Zm73.274 5.858c5.758.65 11.244 1.237 12.191 1.305l1.724.125.021 5.267c.019 4.623-.103 5.294-.993 5.483-.558.119-9.455.183-19.772.143l-18.758-.073-.163-6.8c-.089-3.74-.05-7.035.086-7.322.294-.62 9.583.057 25.664 1.872Zm46.038 2.313c.052.032.169 2.28.259 4.997l.164 4.94-14.944.106-14.943.107v-10.876l14.684.334c8.077.184 14.727.36 14.78.392Zm43.882 6.173a889.267 889.267 0 0 0 4.834 14.531c1.5 4.369 2.51 8.12 2.244 8.335-.266.215-3.488 1.024-7.16 1.797a4185.481 4185.481 0 0 0-27.53 5.924c-1.873.414-3.478.687-3.565.607-.137-.124-2.509-7.142-6.729-19.903-.599-1.812-1.616-4.881-2.262-6.822-.692-2.079-1.177-5.022-1.183-7.167l-.01-3.64 18.464-.124c10.155-.068 18.987-.124 19.627-.124 1.007 0 1.445.882 3.27 6.586Zm49.65-5.336c9.915.287 18.343.528 18.729.537.385.009.58.174.433.368-.274.359 8.306 9.949 9.155 10.233.258.087.469.36.469.608s.273.707.608 1.019c.335.313 3.525 3.744 7.09 7.625 13.717 14.934 15.197 16.461 15.807 16.309.346-.087.442-.006.213.179-.228.185-.162.719.147 1.187.574.868-.153 1.274-12.651 7.064-1.348.624-5.666 2.637-9.595 4.473-20.308 9.489-30.396 14.182-32.732 15.228-1.903.853-2.838 1.663-3.528 3.058-1.259 2.552-2.042 3.304-2.633 2.532-.505-.662-7.224-.864-8.707-.263-.722.293-1.401-.44-3.271-3.529-2.734-4.518-2.989-5.066-5.427-11.661-1.005-2.716-2.047-5.468-2.316-6.115-1.037-2.488-8.986-25.222-9.787-27.991-.3-1.035-1.39-4.317-2.423-7.292-2.41-6.943-4.624-13.762-4.639-14.291-.011-.421 12.344-.223 45.058.722Zm-420.453 2.754c6.077.522 17.271 1.514 24.875 2.206l13.826 1.257-.16 7.322-.16 7.322-27.186.122-27.187.122V315.848l2.471.263c1.36.145 7.444.69 13.521 1.211Zm52.922 4.721c3.513.269 6.564.639 6.78.822.217.183.472 3.084.568 6.448l.174 6.116h-9.723c-5.347 0-9.722-.159-9.722-.353v-14.117l2.768.297c1.523.163 5.642.518 9.155.787Zm243.926 7.635c2.366 7.294 3.748 10.925 4.218 11.083.258.087.35.314.204.505-.269.352.752 3.877 3.35 11.569a656.46 656.46 0 0 1 1.641 4.898c.154.488-1.637 1.06-6.768 2.159-23.449 5.023-21.224 4.651-22.098 3.691-.436-.477-1.637-2.033-2.671-3.456a172.525 172.525 0 0 0-3.172-4.234c-3.457-4.398-10.907-16.245-13.46-21.405-1.299-2.625-3.146-8.498-2.77-8.804.092-.074 9.19-.076 20.219-.005l20.052.129 1.255 3.87Zm-87.442-1.541c.389 1.164 1.926 5.398 3.415 9.409 1.488 4.01 3.584 9.726 4.657 12.701 1.072 2.976 2.622 7.21 3.443 9.409 1.828 4.897 1.833 5.003.209 5.323-.72.142-4.71.995-8.868 1.896-4.158.901-12.663 2.722-18.9 4.047-6.237 1.325-11.826 2.529-12.419 2.676-1.243.307-1.283.676 1.162-10.649 1.783-8.261 3.047-12.52 8.654-29.167a774.187 774.187 0 0 0 2.001-6.012l.656-2.012 7.641.131 7.641.131.708 2.117Zm40.05-.118c.86 4.813 2.776 8.991 7.712 16.818 6.421 10.182 9.904 15.191 14.554 20.935 2.337 2.887 3.498 5.311 6.536 13.643.707 1.94 2.307 6.198 3.555 9.462 1.248 3.263 2.269 6.07 2.269 6.237 0 .166-15.84.249-35.198.182l-35.198-.122-.026-13.115c-.014-7.214.189-13.268.451-13.453.262-.185 2.57-.717 5.129-1.181 6.832-1.24 6.754-1.187 5.713-3.881-.477-1.233-2.923-7.851-5.435-14.708-2.511-6.857-5.467-14.848-6.567-17.759l-1.999-5.292h38.106l.398 2.234Zm80.731 2.588c.89 2.652 2.4 7.256 3.355 10.232.956 2.975 2.15 6.423 2.653 7.662.503 1.238.777 2.542.61 2.895-.168.354-1.435.862-2.817 1.129-4.244.82-13.281 2.747-19.023 4.056-3.005.685-5.665 1.075-5.912.867-.405-.342-5.69-15.411-8.959-25.548-.71-2.199-1.48-4.474-1.712-5.057l-.422-1.058h15.305l15.305.001 1.617 4.821Zm-142.862 6.257c-1.902 4.008-6.998 22.183-8.697 31.013l-1.264 6.574-4.068.834a634.75 634.75 0 0 0-9.496 2.05c-2.985.669-5.488 1.146-5.562 1.06-.229-.267-1.425-3.75-2.639-7.683-1.317-4.268-5.127-15.845-7.236-21.988l-1.41-4.111 2.414-.499c4.131-.855 24.552-5.311 32.073-6.999 5.156-1.157 6.338-1.207 5.885-.251ZM86.31 341.553c.22 2.205.75 5.488 1.177 7.298.425 1.809.552 3.401.28 3.537-.61.304-21.403-.047-21.8-.368-.158-.128-.108-3.436.11-7.353l.398-7.121h19.433l.402 4.007Zm84.787 7.077a930.054 930.054 0 0 0 2.766 8.204c4.839 14.133 7.123 21.723 6.646 22.083-.476.358-18.763 4.474-21.421 4.82-.977.128-1.261-.382-2.146-3.852-1.854-7.272-2.375-14.37-1.698-23.127.34-4.414.745-8.19.898-8.39.153-.201 2.702-.841 5.664-1.424 2.963-.582 5.779-1.235 6.259-1.45 1.496-.671 1.924-.228 3.032 3.136Zm238.35 10.351c6.641 18.415 7.816 21.201 10.791 25.58 2.021 2.974 2.045 3.071 1.14 4.607-1.336 2.266-1.141 5.058.611 8.767l1.535 3.251-2.553 1.94c-1.404 1.068-4.647 3.418-7.206 5.224s-6.399 4.631-8.535 6.278c-4.176 3.22-7.799 5.4-8.574 5.159-.265-.082-1.991-1.949-3.835-4.148a968.47 968.47 0 0 0-6.512-7.669c-3.82-4.438-4.529-5.737-6.599-12.09-2.658-8.158-10.247-31.033-11.546-34.803-.667-1.935-1.213-3.851-1.213-4.257 0-.531 1.43-1.047 5.089-1.836 2.799-.603 7.443-1.614 10.322-2.246 2.879-.632 7.197-1.565 9.595-2.072a4220.79 4220.79 0 0 0 8.433-1.792c2.239-.478 4.317-.828 4.618-.776.302.051 2.299 4.948 4.439 10.883Zm-260.302-6.802c-.213.545-.413 5.601-.444 11.235l-.055 10.243-6.719.965c-3.696.531-14.962 2.144-25.038 3.585-10.075 1.441-18.687 2.731-19.138 2.868-.694.212-.761-1.092-.437-8.585.21-4.859.382-10.448.383-12.42l.002-3.585 4.216-.322c9.194-.702 36.866-3.649 41.725-4.444 1.439-.235 3.355-.451 4.255-.479 1.412-.045 1.585.085 1.25.939Zm215.86 7.012c.369 1.161 2.396 7.255 4.507 13.541 2.11 6.286 3.836 11.69 3.836 12.009 0 .717-26.992 7.131-27.965 6.644-.207-.103-.553-1.075-.767-2.158-.214-1.084-1.276-4.422-2.362-7.42-1.084-2.998-2.361-6.72-2.837-8.273a276.076 276.076 0 0 0-2.191-6.69c-.728-2.127-1.207-3.947-1.065-4.044.532-.363 26.463-5.868 27.301-5.796.515.045 1.147.942 1.543 2.187Zm-30.111 8.11a474.272 474.272 0 0 0 2.43 7.409c.658 1.941 1.69 5.01 2.292 6.822.602 1.811 1.625 4.878 2.271 6.815.647 1.938.99 3.674.763 3.858-.228.183-1.919.662-3.758 1.063-3.553.776-5.981 1.331-15.265 3.487-3.199.743-5.99 1.272-6.203 1.176-.397-.18-1.512-2.869-4.262-10.284-2.992-8.064-5.612-15.06-6.151-16.417-.297-.751-.54-1.502-.54-1.67 0-.403 2.887-1.212 7.56-2.119 2.079-.404 7.051-1.457 11.049-2.34 3.999-.883 7.565-1.623 7.925-1.644.361-.02 1.211 1.709 1.889 3.844Zm-98.662 14.704c.09 6.859.076 12.681-.03 12.937-.122.295-6.099.468-16.138.468H204.12l.076-6.234c.042-3.428.238-7.797.437-9.708l.36-3.475 8.432-1.856c16.369-3.601 20.655-4.502 21.644-4.552.917-.045 1.012.975 1.163 12.42Zm-85.865-3.225c1.414 5.467 1.363 5.594-2.511 6.232-9.704 1.599-27.309 4.277-28.13 4.28-.732.001-1.163-.966-1.918-4.304-.535-2.368-.765-4.454-.51-4.634.255-.181 6.221-1.129 13.258-2.106 7.036-.978 14.102-2.036 15.701-2.351 1.599-.316 2.991-.521 3.092-.457.101.065.56 1.567 1.018 3.34Zm51.649 5.692c-.155 4.334-.41 8.568-.568 9.409l-.288 1.529h-40.423l-1.173-4.71-1.172-4.709 2.365-.491c1.301-.27 3.698-.793 5.329-1.163 1.63-.37 6.864-1.5 11.631-2.51a1923.062 1923.062 0 0 0 14.482-3.13c6.047-1.343 9.025-1.975 9.701-2.057.217-.026.27 3.498.116 7.832Zm-86.342 2.117c.7 3.17 1.618 7.103 2.041 8.741.885 3.428 1.215 3.188-4.896 3.564-2.399.147-6.916.551-10.038.896s-5.738.578-5.815.516c-.077-.061-.063-3.993.03-8.737.167-8.511.186-8.627 1.453-8.715.707-.05 3.902-.505 7.1-1.013 9.585-1.52 8.644-1.961 10.125 4.748Zm37.833 5.313c.813 3.238 1.151 5.601.837 5.852-.888.709-18.754 3.699-20.75 3.473-1.032-.117-4.277-.65-7.213-1.184l-5.338-.97-.768-3.361c-.423-1.848-.769-3.547-.769-3.777 0-.375 28.548-5.29 31.438-5.413 1.072-.046 1.343.525 2.563 5.38Zm222.163-.609c.727 2.135 1.965 5.787 2.752 8.115 1.467 4.346 2.967 6.448 12.519 17.555 1.85 2.151 3.223 4.096 3.051 4.322-.172.225-1.027.707-1.901 1.07-19.16 7.971-30.575 12.572-31.191 12.572-.505 0-1.732-2.871-3.569-8.351a2208.58 2208.58 0 0 0-4.174-12.349c-1.646-4.784-4.452-13.209-5.764-17.305-.521-1.627-.796-3.08-.611-3.229.416-.337 25.336-6.171 26.631-6.235.693-.034 1.28.964 2.257 3.835Zm60.213-2.234c1.245.625 5.505 8.684 5.505 10.413 0 1.546-2.024 3.244-4.942 4.145-2.189.676-2.974.726-4.323.274-1.67-.56-4.232-2.581-3.757-2.965.142-.115-.55-1.842-1.538-3.839-2.502-5.055-1.914-6.744 2.929-8.405 2.143-.735 4.158-.612 6.126.377Zm-89.95 11.173a8027.358 8027.358 0 0 1 7.34 21.757c1.48 4.399 3.167 9.317 3.751 10.929.773 2.134.883 3.038.406 3.328-.957.581-18.269 7.068-21.586 8.088-1.333.41-1.372.32-10.786-25.167-.573-1.553-2.373-6.376-4-10.718-1.625-4.343-2.956-7.969-2.956-8.058 0-.337 3.441-1.238 11.049-2.895 4.318-.94 8.898-1.989 10.177-2.331 4.562-1.219 4.444-1.31 6.605 5.067Zm-145.021 3.528c-.169 1.746-.705 7.727-1.191 13.29-.486 5.563-1.069 11.596-1.295 13.407l-.412 3.293h-29.657l-.428-3.057c-.235-1.682-.948-5.493-1.584-8.468-.924-4.32-3.952-19.256-4.181-20.622a2.206 2.206 0 0 1 .017-.666c.038-.194 8.837-.353 19.554-.353h19.486l-.309 3.176Zm35.238 13.525.034 16.465h-17.922c-11.624 0-17.888-.165-17.826-.47.517-2.526 3.081-28.734 3.097-31.645l.006-1.065 16.289.125 16.289.125.033 16.465Zm34.847 0v16.701H239.048l-.163-13.29c-.09-7.31-.086-14.825.008-16.701l.171-3.411h31.933v16.701Zm42.973-9.997a1500.92 1500.92 0 0 0 5.375 14.231c1.592 4.14 3.527 9.221 4.301 11.291.773 2.069 2.197 5.872 3.165 8.449.967 2.577 1.758 4.905 1.758 5.174 0 .27-1.375.955-3.053 1.525-1.679.569-5.931 2.018-9.449 3.221-3.519 1.203-11.239 3.616-17.156 5.362-5.917 1.748-13.967 4.441-17.889 5.987-3.921 1.545-7.258 2.706-7.414 2.58-.439-.355-.336-63.854.103-64.21.213-.172 8.8-.314 19.082-.314h18.694l2.483 6.704Zm115.206-.117c2.451 1.011 6.374 1.235 8.152.465 1.331-.575 2.05-.014 7.159 5.587 4.451 4.881 11.093 11.603 13.283 13.443.905.76 1.646 1.532 1.646 1.714 0 .182-1.898 1.5-4.216 2.929-4.097 2.524-4.389 2.62-10.323 3.378-3.358.429-8.975 1.188-12.482 1.686-3.507.498-6.671.906-7.032.906-.36 0-.974-.9-1.365-2a301.15 301.15 0 0 0-2.06-5.527c-.744-1.941-1.92-5.043-2.613-6.895-.755-2.014-2.119-4.257-3.398-5.584l-2.136-2.219 3.745-2.648a360.184 360.184 0 0 0 6.094-4.4c1.291-.964 2.554-1.758 2.807-1.765.252-.006 1.485.412 2.739.93Zm-15.272 11.173c.929.97 1.985 2.399 2.346 3.175 1.449 3.111 6.034 15.846 5.78 16.052-.15.121-4.949.841-10.665 1.601-5.717.759-11.44 1.62-12.72 1.914-3.078.705-22.418 7.187-31.564 10.579-1.688.626-3.339 1.138-3.669 1.138-.33 0-.413.245-.186.544.249.325.161.415-.22.224-.351-.175-6.175 1.606-12.944 3.956-6.77 2.351-12.378 4.208-12.465 4.127-.498-.47-2.047-11.383-1.653-11.653.262-.179 5.318-2.085 11.235-4.233 14.753-5.358 39.422-15.198 48.558-19.371 5.332-2.435 8.76-4.386 11.631-6.62 2.239-1.742 4.245-3.175 4.458-3.183.213-.008 1.148.779 2.078 1.75Zm-252.601 10.349c.163.453.467 2.009.677 3.457l.382 2.634-8.053.849c-4.428.467-8.183.823-8.343.793-.27-.052-.497-.826-1.353-4.616-.372-1.643-1.107-1.424 10.658-3.177 5.854-.874 5.697-.875 6.032.06Zm303.194 4.475c3.695 3.803 7.713 8.568 7.713 9.147 0 .249-.327.466-.727.482-.4.017-5.045 1.453-10.322 3.191-17.723 5.839-21.199 6.942-27.611 8.764-3.511.998-6.668 1.815-7.015 1.815-.348 0-1.222-2.065-1.942-4.587a2703.49 2703.49 0 0 0-2.369-8.237c-.583-2.008-.892-3.732-.688-3.831.204-.1 7.175-1.084 15.491-2.187l15.12-2.006 3.489-2.146c1.919-1.18 3.835-2.417 4.257-2.748 1.219-.956 1.576-.775 4.604 2.343Zm-267.013 3.993c-.393 1.534-1.861 18.717-2.411 28.226l-.388 6.704h-8.676c-6.448 0-8.727-.151-8.874-.588-.109-.323-.635-1.799-1.169-3.279-.964-2.67-6.738-29.585-6.738-31.406 0-.928.341-.951 14.294-.951h14.294l-.332 1.294Zm38.621 16.818v18.112h-38.963l.003-1.764c.004-3.347 1.708-24.358 2.383-29.402l.677-5.058h35.9v18.112Zm34.892-2.88c0 11.624-.172 15.342-.727 15.697-.399.255-1.904.998-3.344 1.65a1196.91 1196.91 0 0 0-5.315 2.427c-2.663 1.225-2.827 1.239-12.658 1.112l-9.959-.129-.004-17.641c-.003-9.703.002-17.8.009-17.995.007-.194 7.21-.353 16.006-.353h15.992v15.232Zm-107.423-10.41c.486 2.135.714 4.03.507 4.21-.587.512-16.032 2.717-16.455 2.35-.455-.395-1.761-8.163-1.419-8.44.349-.283 12.506-1.905 14.663-1.957l1.819-.044.885 3.881Zm255.394.471c.593 2.221 4.584 15.878 6.152 21.05.902 2.974 1.594 5.437 1.539 5.474-.195.13-22.207 5.932-22.736 5.993-.672.076-1.094-1.721-2.695-11.465-.988-6.017-1.781-8.917-3.528-12.899-1.239-2.825-2.253-5.189-2.253-5.255 0-.494 16.942-3.425 22.523-3.896.394-.033.843.416.998.998Zm57.394 6.94c3.796 6.121 6.057 15.473 4.923 20.363-.353 1.523-.611 1.699-3.131 2.149l-8.27 1.476c-4.506.804-21.642 6.009-31.694 9.627-.96.345-3.184 1.098-4.943 1.672-1.759.575-5.685 1.882-8.723 2.906a7818.796 7818.796 0 0 1-8.723 2.932c-4.378 1.467-9.73 3.264-24.716 8.302-15.889 5.341-18.314 6.125-19.772 6.387-1.004.18-1.353-.293-2.554-3.458a564.862 564.862 0 0 0-3.363-8.569c-1.253-3.114-1.755-5.011-1.377-5.2.328-.164 15.056-4.179 32.731-8.923 17.674-4.744 32.229-8.689 32.343-8.768.114-.078-.343-2.226-1.018-4.773-.674-2.547-1.225-4.866-1.225-5.154 0-.288 2.552-1.194 5.67-2.014 5.676-1.493 13.839-3.967 18.754-5.684 8.673-3.029 21.351-6.998 22.063-6.906.46.059 1.821 1.695 3.025 3.635Zm-80.766 1.998c1.199 2.911 2.304 6.245 2.455 7.41.15 1.164.856 5.444 1.566 9.511.711 4.068 1.176 7.48 1.033 7.584-.825.596-37.486 10.133-37.827 9.84-.227-.196-1.235-2.525-2.238-5.178-1.004-2.652-1.979-4.822-2.167-4.822-.572 0-13.722 2.331-15.862 2.812-1.103.248-2.076.394-2.163.324-.218-.177-2.543-13.633-2.369-13.714.078-.037 1.842-.66 3.921-1.387l5.525-1.93c.959-.335 6.455-2.227 12.212-4.204 11.225-3.855 17.39-6.007 20.645-7.208 2.45-.905 12.382-4.235 12.796-4.291.162-.021 1.275 2.343 2.473 5.253Zm-64.188 10.115c.729 4.333 1.698 9.979 2.151 12.545.454 2.567.76 4.71.68 4.763-.08.053-3.416.442-7.414.864a2668.85 2668.85 0 0 0-15.12 1.651c-4.318.485-8.009.808-8.202.717-.194-.09-.53-1.388-.747-2.884-.218-1.496-.986-5.701-1.707-9.345l-1.311-6.626 14.561-4.752c8.009-2.613 14.836-4.765 15.171-4.782.355-.018 1.168 3.275 1.938 7.849Zm-33.108 6.583c.37 2.266 1.07 6.024 1.555 8.353 1.1 5.28 2.607 20.585 2.07 21.028-.429.355-2.823.907-15.808 3.644-4.637.977-13.229 2.798-19.09 4.045-7.463 1.588-10.78 2.11-11.063 1.74-.222-.29-1.819-5.188-3.547-10.884-2.569-8.457-3.337-10.381-4.193-10.495-1.741-.231 22.162-11.939 33.241-16.281 7.245-2.84 15.314-5.61 15.786-5.42.207.084.679 2.005 1.049 4.27Zm181.954 11.881c-.326 3.235-.816 6.07-1.088 6.301-.271.232-2.869.782-5.772 1.223-5.275.802-5.277.802-5.525-.185-1.867-7.444-2.563-10.819-2.303-11.16.174-.227.889-.423 1.59-.435.7-.013 3.891-.514 7.089-1.115 3.199-.601 5.993-.961 6.209-.801.217.161.127 2.938-.2 6.172Zm-226.149-4.351c-.015.194-1.49 1.094-3.276 1.999-2.976 1.509-7.514 3.941-33.043 17.71a2653.69 2653.69 0 0 1-15.503 8.29l-6.781 3.586-3.971-6.284c-2.185-3.455-4.117-6.21-4.293-6.122-.178.089-.361-.195-.407-.629-.048-.435-1.41-3.271-3.029-6.303-1.619-3.031-2.943-5.794-2.943-6.139 0-.345-.227-.829-.505-1.074-.763-.677-2.348-4.804-1.965-5.115.506-.408 75.748-.328 75.716.081Zm209.064 2.401c.432 1.1 2.147 8.455 2.265 9.711.099 1.05.021 1.067-15.553 3.373l-8.663 1.283.384 13.668c.21 7.517.545 18.896.743 25.286l.361 11.619-4.584-1.34c-7.191-2.101-7.797-2.323-8.063-2.955-.137-.328-1.323-7.899-2.635-16.826-1.312-8.926-2.968-19.576-3.68-23.666-.877-5.036-1.101-7.554-.693-7.801.33-.201 2.563-1.013 4.962-1.804 7.605-2.512 21.01-7.029 27.332-9.211 7.089-2.447 7.369-2.495 7.824-1.337Zm-104.335 4.426c.925 2.408 1.356 4.238 1.034 4.398-.303.152-4.264 1.288-8.801 2.526-5.669 1.547-8.363 2.084-8.612 1.718-.553-.812-1.8-9.631-1.43-10.114.178-.234 1.439-.561 2.803-.727 1.363-.168 4.441-.708 6.84-1.202 6.44-1.326 6.33-1.372 8.166 3.401Zm-22.186 9.807c1.052 6.238 1.694 11.494 1.425 11.679-.27.186-3.891.71-8.049 1.164-4.159.454-11.302 1.257-15.875 1.784-4.573.527-8.405.88-8.515.785-.388-.336-2.073-23.076-1.743-23.509.184-.241.513-.356.73-.257.218.099 6.284-.509 13.481-1.351 7.196-.842 13.882-1.555 14.858-1.584l1.774-.053 1.914 11.342Zm-87.742.302c1.048 3.558 3.589 11.972 5.646 18.7 3.922 12.827 6.035 19.964 7.492 25.313 1.194 4.379 1.279 4.505 4.727 7.093 2.372 1.78 3.361 2.234 4.489 2.06.796-.123 1.309-.043 1.139.179-.169.221.363.402 1.181.402.818 0 1.488.213 1.488.472 0 .26.768 4.653 1.706 9.762.938 5.109 1.889 12.412 2.114 16.228.384 6.539.475 6.939 1.581 6.939 1.144 0 1.165-.186.782-7.042-.216-3.873-1.041-10.595-1.833-14.936-.792-4.342-1.441-8.465-1.441-9.163l-.001-1.268 3.198 1.36c1.759.749 3.199 1.252 3.199 1.118 0-.438 1.988 1.353 2.097 1.889.058.287.651 2.85 1.316 5.697.87 3.718 1.305 7.989 1.547 15.175.185 5.5.18 10.205-.011 10.456-.768 1.005-11.273-2.838-17.452-6.385-3.892-2.234-17.067-12.861-25.32-20.422a2780.57 2780.57 0 0 0-9.285-8.468c-2.142-1.941-4.774-4.375-5.85-5.41a230.675 230.675 0 0 0-4.302-4.007 436.235 436.235 0 0 1-5.547-5.151c-3.093-2.927-4.083-3.851-11.124-10.385-1.8-1.671-5.171-4.83-7.49-7.02l-4.217-3.983 1.803-1.124c.992-.619 5.147-2.817 9.235-4.886 4.087-2.068 11.357-5.951 16.155-8.627 15.939-8.893 19.767-10.953 20.422-10.994.366-.023 1.481 2.781 2.556 6.428Zm230.282-3.744c0 1.372-1.906 11.582-2.521 13.503l-.752 2.35-6.359 1.07a6512.239 6512.239 0 0 0-21.189 3.593c-2.079.359-3.848.601-3.931.54-.083-.061-.321-3.76-.53-8.221-.319-6.844-.25-8.087.442-7.972.909.152 7.072-.742 23.21-3.365 5.917-.962 10.954-1.777 11.194-1.81.24-.033.436.107.436.312Zm-114.752 8.331c1.695 4.398 3.086 8.351 3.09 8.783.004.497-.651.903-1.786 1.104-.986.175-5.741 1.346-10.568 2.603-4.827 1.256-8.975 2.183-9.22 2.061-.244-.122-.431-.588-.416-1.036.015-.447-.41-3.248-.944-6.224-.535-2.975-1.106-6.68-1.271-8.232l-.3-2.823 8.331-2.208c4.581-1.214 8.706-2.166 9.165-2.116.544.059 1.911 2.881 3.919 8.088Zm56.393-2.082c1.199 6.059 3.243 20.715 2.925 20.973-.168.135-5.232.843-11.253 1.573-6.021.729-16.51 1.997-23.308 2.818-6.797.821-12.649 1.415-13.002 1.319-.353-.095-1.488-2.811-2.522-6.036-1.034-3.225-2.057-6.305-2.272-6.845-.48-1.198.091-1.452 12.128-5.399 4.798-1.573 9.508-3.14 10.468-3.481.959-.341 5.016-1.723 9.014-3.07a999.9 999.9 0 0 0 11.63-3.996c2.399-.851 4.618-1.502 4.931-1.448.314.055.881 1.672 1.261 3.592Zm-118.217 6.852c.204 1.2.37 3.077.37 4.172 0 1.933-.061 1.998-2.181 2.281-1.199.161-2.855.294-3.679.297-.851.003-2.105.529-2.907 1.219-1.369 1.178-1.418 1.479-1.701 10.405l-.291 9.191-2.326.137c-1.279.076-5.478.273-9.332.438l-7.005.301-.751-3.669c-1.218-5.947-2.95-13.34-3.837-16.37-.454-1.552-.631-2.98-.392-3.172.435-.352 6.723-1.81 11.867-2.752 1.52-.278 2.763-.693 2.763-.922 0-.229.327-.328.727-.221.4.108 4.39-.614 8.868-1.604 4.478-.99 8.433-1.826 8.789-1.857.357-.031.815.925 1.018 2.126Zm-116.593 1.535c.937 1.527 2.394 3.731 3.24 4.898.989 1.365 1.317 2.233.921 2.431-.339.169-.442.538-.227.819.218.286.123.377-.219.206-.335-.168-1.881.884-3.434 2.336-4.529 4.236-9.621 8.333-12.129 9.762-9.12 5.192-20.099 10.869-32.857 16.99-5.277 2.531-11.204 5.399-13.171 6.373-1.967.973-4.068 1.895-4.668 2.05-1.185.304-.724 1.225-13.85-27.647-1.162-2.553-1.99-4.899-1.841-5.212.245-.517 3.182-1.025 19.924-3.444 5.089-.735 5.733-.724 16.574.302 6.204.587 15.729 1.481 21.166 1.987 13.263 1.233 13.666 1.295 13.666 2.093 0 .377.518.685 1.152.685 1.359 0 1.433-.241 2.323-7.527.893-7.315 1.29-9.879 1.527-9.879.11 0 .966 1.249 1.903 2.777Zm153.222 4.397c.384 1.759 6.868 39.339 9.164 53.111l.678 4.067-2.338 3.93a904.69 904.69 0 0 0-4.516 7.694c-1.198 2.07-3.348 5.749-4.778 8.176-2.062 3.499-2.437 4.495-1.815 4.814.431.222.98.406 1.221.41.24.004.436.232.436.505 0 .274-.196.402-.436.283-.241-.118-4.624-.78-9.741-1.47-5.118-.691-11.191-1.559-13.497-1.93-2.305-.371-4.304-.674-4.44-.674-.137 0-.429-1.006-.648-2.235-.219-1.228-.53-2.681-.69-3.227-.252-.857.04-1.036 2.138-1.307 3.27-.423 5.452-1.397 6.955-3.105 1.369-1.555 1.453-.628-.926-10.12a209.595 209.595 0 0 1-1.484-6.351c-.297-1.423-.808-3.399-1.134-4.392-.327-.993-.963-3.428-1.413-5.411-.451-1.982-1.738-7.203-2.862-11.602-1.947-7.62-2.346-10.866-3.441-27.991-.073-1.15.074-1.193 6.903-1.98a4666.92 4666.92 0 0 0 14.539-1.708c4.158-.497 8.512-.929 9.676-.96 1.951-.052 2.142.063 2.449 1.473Zm135.295-.192c0 .789-6.031 15.93-6.495 16.305-.108.088-2.421-.376-5.138-1.03-3.363-.81-7.077-1.287-11.629-1.492l-6.687-.301-.167-4.587c-.091-2.522-.091-4.594 0-4.602.092-.008 6.709-1.146 14.705-2.529s14.735-2.54 14.975-2.572c.24-.032.436.331.436.808Zm-207.393 4.896c.531 2.653 2.381 10.854 4.111 18.226s3.099 13.433 3.044 13.469c-.056.036-.9-.033-1.876-.153-.975-.121-2.884-1.025-4.243-2.009l-2.47-1.79-2.861-9.579a1998.745 1998.745 0 0 0-5.826-19.222c-.278-.905-.322-1.79-.099-1.966.522-.41 6.42-1.699 8.03-1.755 1.111-.039 1.316.408 2.19 4.779Zm102.632-1.253c.3 1.013 1.222 3.852 2.049 6.311.827 2.458 1.884 6.162 2.348 8.232.464 2.07 1.908 7.674 3.209 12.454l2.364 8.691v22.41l-4.507-.137-4.507-.137-.15-1.882c-.695-8.721-5.441-27.685-10.637-42.502-2.209-6.299-4.087-11.803-4.175-12.231-.122-.606 1.266-1.159 6.239-2.484 6.993-1.864 6.828-1.891 7.767 1.275Zm-66.574.548c.176.97.483 4.728.682 8.35.2 3.622.463 7.303.586 8.181l.225 1.594-3.558-.3c-1.957-.166-4.195-.302-4.973-.302h-1.415l.192-8.632c.139-6.294.401-8.835.963-9.383.425-.413 1.864-.832 3.199-.93 1.335-.098 2.73-.215 3.102-.26.371-.045.82.712.997 1.682Zm52.809 8.82c6.107 17.192 11.053 35.695 11.852 44.339l.402 4.352h-7.635c-4.199 0-7.635-.099-7.635-.221s.517-.965 1.148-1.875c.632-.909 1.03-1.921.885-2.249-.144-.327-.792-3.77-1.438-7.651-1.999-12.001-2.313-13.862-3.776-22.346-2.891-16.762-3.33-19.636-3.13-20.469.2-.83 3.917-2.109 5.672-1.95.533.047 1.794 2.832 3.655 8.07Zm68.515-2.234c0 .194.519 3.74 1.152 7.88 1.944 12.708 1.893 12.14 1.057 11.881-6.496-2.012-6.136-1.985-15.869-1.159-5.048.429-9.405.667-9.681.529-.277-.139-.503-3.922-.503-8.408v-8.156l4.797-.554a1087.9 1087.9 0 0 0 11.486-1.412c3.678-.472 6.883-.88 7.123-.906.241-.026.437.11.438.305Zm-26.171 14.175v11.235l-5.088.308c-2.798.169-6.552.413-8.341.542l-3.252.234-1.894-6.955c-1.958-7.189-3.521-13.326-3.523-13.829 0-.159 1.373-.428 3.053-.599 1.679-.171 6.193-.709 10.032-1.197 3.838-.488 7.436-.906 7.996-.93.942-.041 1.017.788 1.017 11.191Zm63.097-7.947c2.239.549 4.388 1.082 4.775 1.185.5.133.185 1.323-1.081 4.091-.982 2.146-2.923 6.655-4.312 10.018l-2.526 6.116-2.208-.125c-4.915-.278-7.318-.692-9.18-1.581l-1.957-.934-.196-9.735c-.109-5.355-.089-9.924.042-10.155.423-.74 12.319.061 16.643 1.12Zm-159.976 6.995 3.435.302 2.838 11.29c1.56 6.21 3.347 13.408 3.971 15.995.624 2.588 1.66 6.822 2.303 9.409 1.432 5.767 1.455 6.94.155 7.889-1.071.782-6.378 2.045-6.881 1.638-.162-.13-1.095-3.596-2.074-7.701-1.549-6.49-2.246-8.301-5.354-13.889l-3.574-6.425-3.694-.325c-2.699-.237-5.313-.961-9.689-2.683l-5.995-2.357-1.22-5.244c-1.85-7.95-2.557-7.149 6.787-7.686 9.704-.557 14.464-.611 18.992-.213Zm124.793 8.48a2274.925 2274.925 0 0 0 14.248 4.295c1.599.475 3.604 1.079 4.456 1.342l1.548.479-2.292 4.379-2.831 5.415-.541 1.037-3.95-1.133c-2.172-.623-9.707-2.743-16.744-4.712-7.037-1.968-14.298-4.018-16.138-4.553l-3.343-.975v-2.774c0-1.796.258-2.855.731-3.002 1.21-.376 15.085-1.464 17.587-1.381 1.279.044 4.551.756 7.269 1.583ZM398.354 556.3v11.761h-16.283V545.56l4.216-.28c7.4-.49 8.835-.581 10.468-.662l1.599-.079V556.3Zm56.007-9.798c1.538.053 2.9.232 3.025.397.127.165-.123 1.553-.554 3.086-1.368 4.869-2.194 13.682-2.573 27.438l-.368 13.361-3.489.153c-10.627.465-48.537 1.139-65.132 1.159-13.705.016-21.768-.194-28.205-.735-8.243-.693-16.393-1.576-16.641-1.803-.055-.051 2.512-4.538 5.704-9.971l5.804-9.88 42.099.127 42.098.126.949-1.773c1.147-2.143 6.229-11.892 9.328-17.893 2.097-4.061 2.352-4.344 3.705-4.126.8.13 2.713.279 4.25.334Zm-32.89 5.863c9.995 2.808 18.173 5.252 18.173 5.431 0 .178-.253.815-.561 1.414-.308.598-1.421 2.782-2.471 4.852l-1.911 3.764-17.01.124-17.01.125v-21.294l1.308.239c.719.131 9.487 2.536 19.482 5.345Zm-126.843-1.549c.042.041.917 1.556 1.942 3.367a2332.83 2332.83 0 0 0 3.209 5.645c.738 1.294 1.916 4.787 2.616 7.762.7 2.976 1.903 8.039 2.674 11.252.77 3.213 1.27 5.948 1.111 6.077-.16.128-3.364-.284-7.123-.916l-6.834-1.15-.408-10.876c-.3-7.985-.726-12.152-1.6-15.679-1.635-6.598-1.719-6.284 1.572-5.888 1.52.183 2.798.365 2.841.406Z" fill="#40C1FF"/></g><defs><clipPath id="a"><rect width="470" height="610" rx="25" fill="#fff"/></clipPath></defs></svg>