<svg width="470" height="610" fill="none" xmlns="http://www.w3.org/2000/svg"><g clip-path="url(#a)"><rect width="470" height="610" rx="25" fill="#fff"/><path d="M54.075 72.12V60.28c0-.68.28-1.02.84-1.02.56 0 .84.34.84 1.02v10.16h3.26V60.28c0-.68.28-1.02.84-1.02.56 0 .84.34.84 1.02v10.16h3.26V60.28c0-.68.28-1.02.84-1.02.56 0 .84.34.84 1.02v11.84h-11.56Zm23.466.14a.575.575 0 0 1-.41-.15c-.106-.093-.186-.297-.24-.61-.046-.313-.07-.793-.07-1.44l.22.52c-.42.58-.946.983-1.58 1.21-.626.22-1.366.33-2.22.33h-1.86c-.726 0-1.32-.24-1.78-.72-.453-.487-.68-1.22-.68-2.2 0-.613.1-1.13.3-1.55.2-.427.51-.77.93-1.03.42-.267.957-.46 1.61-.58.654-.12 1.434-.18 2.34-.18h3.38l-.76.68v-1.48c0-.293-.05-.487-.15-.58-.093-.093-.303-.14-.63-.14h-2.82c-.673 0-1.19.017-1.55.05-.353.033-.6.1-.74.2a.51.51 0 0 0-.23.41c-.026.347-.09.603-.19.77-.1.167-.316.25-.65.25-.56 0-.84-.36-.84-1.08 0-.793.33-1.37.99-1.73.66-.367 1.684-.55 3.07-.55h3.1c.854 0 1.454.203 1.8.61.347.407.52 1.11.52 2.11v5.92c0 .64-.286.96-.86.96Zm-6.1-1.74h1.8c1.26 0 2.154-.253 2.68-.76.534-.513.8-1.32.8-2.42l.12.12h-2.74c-.88 0-1.576.043-2.09.13-.506.08-.87.24-1.09.48-.213.24-.32.597-.32 1.07 0 .427.074.763.22 1.01.154.247.36.37.62.37Zm17.995-6.18h-5.34c-.32 0-.53.053-.63.16-.1.1-.15.32-.15.66v6.14c0 .64-.28.96-.84.96-.56 0-.84-.32-.84-.96v-5.92c0-1 .174-1.703.52-2.11.347-.407.947-.61 1.8-.61h5.48c.68 0 1.02.28 1.02.84 0 .56-.34.84-1.02.84Zm18.16 7.66h-7.48c-.573 0-.86-.28-.86-.84 0-.893.14-1.653.42-2.28a5.26 5.26 0 0 1 1.09-1.6 7.6 7.6 0 0 1 1.42-1.11c.5-.307.963-.583 1.39-.83.74-.42 1.357-.783 1.85-1.09.5-.307.873-.62 1.12-.94.247-.32.37-.71.37-1.17 0-.793-.143-1.327-.43-1.6-.28-.28-.81-.42-1.59-.42h-2.14c-.627 0-1.09.083-1.39.25-.3.167-.49.477-.57.93-.047.267-.137.47-.27.61s-.337.21-.61.21c-.28 0-.493-.073-.64-.22-.147-.153-.207-.373-.18-.66.14-.94.51-1.64 1.11-2.1.6-.467 1.45-.7 2.55-.7h2.14c1.253 0 2.183.303 2.79.91.607.607.91 1.537.91 2.79 0 .8-.197 1.47-.59 2.01-.393.533-.91 1.007-1.55 1.42-.64.407-1.327.817-2.06 1.23-.533.307-1.04.613-1.52.92-.473.307-.88.663-1.22 1.07-.333.407-.553.917-.66 1.53h6.6c.56 0 .84.28.84.84 0 .56-.28.84-.84.84Z" fill="#fff"/><path fill-rule="evenodd" clip-rule="evenodd" d="M183.027 218.577c-15.953 6.967-20.658 11.847-70.875 73.539C39.465 381.409 22.534 407.088 5.71 453.537c-10.442 28.835-15.292 53.421-12.878 65.287 2.44 12.009 13.463 22.879 31.116 30.688 17.315 7.662 13.706 5.666 45.3 25.047 42.664 26.173 92.728 45.5 136.133 52.558 32.656 5.311 33.838 3.577 1.702-2.494-16.016-3.025-36.527-7.746-45.58-10.493-24.591-7.461-80.783-33.596-99.104-46.093-8.863-6.046-22.95-14.038-31.306-17.76-25.005-11.143-36.717-24.013-36.717-40.355 0-9.437 7.602-39.175 15.53-60.748 11.205-30.491 45.732-85.801 62.308-99.807 7.518-6.355 6.422-4.42-10.88 19.174-18.466 25.181-25.371 36.881-31.064 52.647-5.776 15.996-7.96 34.209-4.241 35.369 1.504.471 2.63-5.46 2.773-14.589.21-13.459 1.72-18.066 12.066-36.841 6.502-11.803 18.655-30.229 27.006-40.946 8.351-10.718 14.424-20.619 13.5-22.002-.928-1.385-.533-1.859.878-1.055 1.41.805 17.824-17.113 36.474-39.821 47.155-57.405 53.336-64.319 62.738-70.175 12.97-8.076 28.161-9.142 47.34-3.326 19.425 5.891 20.324 5.977 16.358 1.562-2.615-2.912-1.939-3.109 4.672-1.357 9.509 2.52 12.621 4.12 20.056 10.311 4.616 3.844 6.262 4.206 7.91 1.743 1.689-2.522 3.333-2.351 8.729.917 3.656 2.213 6.649 5.028 6.649 6.251 0 1.226 2.034 1.633 4.52.903 9.82-2.88 20.767 31.275 17.156 53.529-1.858 11.457-10.362 22.347-17.444 22.347-2.874 0-2.596-1.867 1.385-9.302 6.105-11.4 9.306-37.489 4.598-37.489-2.137 0-2.846 2.948-2.205 9.162.521 5.039-.051 8.591-1.271 7.896-1.221-.697-1.456 2.276-.525 6.63.93 4.342.768 6.729-.362 5.299-1.344-1.698-3.983.122-7.634 5.264-3.069 4.324-4.533 7.861-3.254 7.861 1.279 0 3.598-2.197 5.153-4.88 1.555-2.684 3.434-4.317 4.176-3.631.741.685-.892 3.879-3.632 7.096-3.345 3.93-5.816 5.074-7.531 3.49-1.405-1.298-7.302-2.419-13.109-2.494-9.308-.119-10.025-.496-6.049-3.186 3.993-2.705 3.502-3.006-4.358-2.648-9.777.446-9.699.725-4.991-17.634 1.884-7.35 1.995-12.387.329-15.136-2.089-3.451-2.783-2.71-4.259 4.566-.97 4.778-1.082 10.329-.248 12.334.833 2.008.506 3.075-.725 2.373-1.23-.704-2.889.295-3.689 2.218-2.185 5.261-15.239 4.307-20.843-1.526-3.469-3.612-3.935-5.308-1.658-6.043 4.385-1.418 3.988-7.652-.489-7.652-2.011 0-5.27-2.129-7.242-4.731-2.322-3.062-5.105-4.195-7.886-3.207-3.757 1.331-3.565 1.916 1.542 4.637 3.216 1.712 8.033 4.035 10.709 5.163 3.333 1.401 3.93 2.58 1.899 3.738-5.132 2.932-3.228 7.08 5.888 12.816 8.412 5.292 9.118 5.37 15.251 1.655 6.341-3.837 6.412-3.812 4.88 1.829-1.119 4.118-.253 6.42 3.089 8.216 4.498 2.415 4.495 2.497-.03 2.567-2.57.037-8.268-1.659-12.661-3.771-4.394-2.113-9.696-4.567-11.785-5.454-2.089-.886-6.554-5.474-9.921-10.196-7.111-9.973-10.046-10.537-17.217-3.319-11.172 11.241-32.643 59.702-30.564 68.979.509 2.271 2.937-3.159 5.396-12.068 5.401-19.568 20.028-48.019 28.437-55.318 3.368-2.925 6.412-4.873 6.766-4.333.355.543 2.535 4.099 4.849 7.903 4.961 8.16 22.983 17.549 49.472 25.768 22.494 6.979 31.491 7.374 41.699 1.822 13.154-7.152 17.94-17.242 17.831-37.587-.093-17.441-6.753-40.675-14.155-49.378-4.236-4.979-36.096-17.998-57.39-23.452-24.849-6.361-57.831-6.49-72.049-.278Zm-.613 8.483c-7.268 4.026-19.329 16.311-37.3 37.996-14.606 17.627-30.108 35.732-34.448 40.236l-7.893 8.188 5.827-9.358c3.203-5.147 16.996-23.241 30.65-40.212 27.089-33.666 36.97-42.072 50.107-42.636 2.089-.089-1.035 2.515-6.943 5.786Zm84.176-.393c41.642 11.305 48.193 16.894 54.458 46.456 4.649 21.95 3.12 35.568-5.209 46.375-8.219 10.666-10.552 8.055-3.598-4.027 6.948-12.072 8.022-25.753 3.537-45.071-3.051-13.146-12.048-27.036-17.647-27.244-2.028-.075-7.675-2.44-12.549-5.255-9.754-5.631-12.661-6.291-12.661-2.866 0 1.247-4.191-.357-9.311-3.567-11.466-7.19-21-9.621-23.436-5.978-1.35 2.017-4.049 1.82-10.491-.76l-8.673-3.479 12.661-.042c6.964-.024 21.777 2.433 32.919 5.458Zm-86.095 43.532c1.015 3.217 4.195 8.216 7.062 11.113 5.042 5.088 5.052 5.266.342 5.315-4.457.049-4.373.407.964 4.202l5.835 4.148-5.285 6.209c-6.523 7.662-18.31 31.883-17.12 35.182.481 1.334 2.993-2.744 5.586-9.061 2.59-6.319 7.558-15.687 11.04-20.822 7.529-11.094 8.881-18.688 4.001-22.429-1.96-1.502-3.563-3.867-3.563-5.252 0-1.643 1.059-1.544 3.039.285 1.671 1.544 4.804 2.723 6.964 2.623 3.403-.159 3.418-.354.126-1.458-2.089-.699-7.632-4.564-12.319-8.588-8.339-7.159-8.48-7.19-6.672-1.467Zm97.49 11.187c0 3.732-1.598 11.689-3.55 17.68-1.993 6.121-2.429 10.257-.993 9.438 1.621-.926 1.887.571.732 4.099-1.522 4.642-1.256 5.056 1.628 2.515 2.003-1.769 3.345-7.463 3.204-13.597-.152-6.441.574-9.359 1.858-7.487 1.317 1.918 2.122-.608 2.148-6.735.02-5.393-1.102-10.456-2.495-11.251-1.466-.838-2.532 1.41-2.532 5.338Zm-111.104 30.138c-4.684 4.715-10.24 12.346-12.347 16.962-8.941 19.587-17.915 44.653-15.988 44.653 1.147 0 3.517-3.192 5.264-7.094 4.936-11.005 5.822-6.45 1.413 7.26-5.062 15.75-3.041 17.799 3.69 3.741 4.656-9.73 4.821-11.513 1.59-17.212-3.074-5.421-3.097-7.695-.157-15.392 4.155-10.881 16.824-32.127 19.159-32.129.919-.002-2.257 10.149-7.055 22.555-4.799 12.407-8.323 23.672-7.832 25.036.491 1.361 4.667-7.999 9.275-20.803 4.611-12.805 9.977-26.177 11.925-29.715 4.915-8.93 1.167-8.034-8.937 2.138Zm-72.335 28.683c-11.583 13.909-14.062 18.27-8.617 15.163 1.825-1.044 2.233-.641 1.088 1.069-1.007 1.507-2.82 2.173-4.03 1.483-1.88-1.074-11.586 10.269-19.03 22.235-1.882 3.025-1.593 3.067 2.101.3 5.123-3.839 5.513-.824.661 5.088-2.547 3.105-3.755 3.414-4.575 1.17-.646-1.766-2.97.257-5.528 4.812-2.545 4.53-3.115 7.12-1.347 6.109 1.982-1.132 2.618-.601 1.792 1.497-.704 1.788-2.615 2.969-4.249 2.628-3.715-.779-16.102 23.73-14.8 29.281.673 2.866 2.608 1.018 6.454-6.167 3.021-5.643 4.776-11.332 3.897-12.645-.982-1.471-.311-1.649 1.76-.465 2.456 1.401 2.91.837 1.687-2.101-.95-2.286-.636-3.426.729-2.646 1.316.751 4.097-1.673 6.176-5.391 2.081-3.715 8.493-13.309 14.254-21.32 5.758-8.011 9.944-15.05 9.303-15.644-.643-.592-3.57 2.388-6.505 6.623-2.938 4.237-5.358 6.81-5.381 5.722-.076-3.507 10.405-15.661 12.484-14.474 1.106.631 5.996-4.883 10.865-12.255 18.324-27.733 18.622-31.457.81-10.072Zm72.262 9.536c-4.148 14.655-12.818 36.899-18.559 47.603-5.396 10.062-4.689 13.094 1.679 7.21 2.32-2.145 4.872-3.296 5.672-2.557 3.391 3.131-2.497 32.342-9.101 45.163-8.799 17.074-20.305 27.595-42.457 38.822-9.481 4.806-15.485 8.755-13.34 8.773 7.199.068 32.876-6.913 43.022-11.697 8.757-4.127 10.053-4.256 10.053-.999 0 2.576 4.133.498 13.294-6.68 17.202-13.48 31.808-20.171 49.923-22.866 35.687-5.309 71.356 10.738 101.745 45.773 7.245 8.354 13.664 14.739 14.259 14.187.597-.552-1.945-7.122-5.65-14.601l-6.738-13.598 6.371-4.683c3.505-2.576 14.11-7.312 23.57-10.521 23.902-8.109 60.672-8.077 83.037.077 9.141 3.331 13.428 5.884 10.762 6.405-5.052.988-6.067 5.187-1.266 5.236 1.742.017 5.804.684 9.03 1.484 5.657 1.399 5.611 1.2-1.266-5.587-10.983-10.842-30.352-15.853-60.308-15.61-27.551.227-44.473 4.45-64.399 16.071-10.415 6.075-10.583 6.373-6.696 11.856 7.491 10.561 3.999 8.743-12.521-6.517-11.352-10.491-22.626-18.059-36.085-24.226-17.472-8.009-21.607-8.968-38.563-8.947-23.443.028-40.174 5.313-59.829 18.897-7.956 5.495-15.423 9.444-16.598 8.775-1.175-.671-8.463 1.547-16.199 4.927-16.649 7.279-23.666 6.689-10.42-.875 21.747-12.418 35.276-35.126 39.252-65.876 2.102-16.251.848-20.556-5.006-17.212-2.115 1.207-2.345.409-.808-2.787 5.611-11.665 19.004-51.133 18.118-53.395-.55-1.404-2.34 2.185-3.978 7.975Zm1.261 26.87c-2.206 8.123-6.619 62.763-5.178 64.096.63.58 1.167.092 1.197-1.088.028-1.181 1.666-16.861 3.642-34.847 3.517-32.04 3.616-40.219.339-28.161ZM61.088 393.125c-.826 1.987-2.044 3.11-2.707 2.497-.664-.613-.456-2.239.463-3.61 2.497-3.734 3.955-3.009 2.244 1.113Zm125.737 49.748c-7.66 2.363-16.411 5.536-19.45 7.049-4.854 2.42-5.654 2.118-6.619-2.508-.937-4.503-1.145-4.335-1.441 1.175-.423 7.879.61 7.912 17.926.589 34.732-14.692 80.408-7.465 110.873 17.54 6.267 5.145 12.21 9.356 13.205 9.358.996 0 7.045-2.7 13.447-6.001 6.401-3.301 18.12-8.067 26.046-10.589 10.205-3.247 11.82-4.225 5.543-3.352-4.874.676-17.184 4.999-27.35 9.606l-18.491 8.373-11.491-9.786c-25.877-22.036-70.173-31.336-102.198-21.454ZM14.31 452.098c-1.502 3.538-3.877 13.277-5.28 21.641-1.403 8.364-4.135 18-6.07 21.416-1.937 3.416-3.428 8.68-3.32 11.698.213 5.86.986 4.602 3.404-5.543.944-3.96 2.765-5.905 4.844-5.168 2.532.896 3.393-2.503 3.583-14.142.264-16.012 4.427-31.656 8.425-31.656a2.344 2.344 0 0 0 2.335-2.34c0-4.831-5.293-2.096-7.921 4.094Zm351.037.489c-7.886 1.378-4.708 1.846 14.335 2.103 16.036.218 29.801 1.867 39.963 4.789 15.414 4.434 47.353 20.483 52.777 26.521 2.109 2.347 1.861 11.888-.957 36.977-4.323 38.499-14.895 82.017-26.472 108.985-8.372 19.5-26.665 54.381-30.42 58.002-1.337 1.289-7.612-2.494-15.603-9.407-25.249-21.847-54.4-38.502-72.873-41.639-6.037-1.025-3.861.327 6.82 4.234 20.594 7.536 38.624 18.37 62.239 37.398l19.293 15.546 6.331-9.994c30.32-47.858 50.629-113.969 55.673-181.249l1.261-16.848-8.825-7.161c-10.911-8.85-38.925-21.931-54.164-25.29-16.829-3.711-37.885-4.976-49.378-2.967Zm-345.649 13.02c0 5.273 9.734 19.83 13.262 19.83 1.494 0 .547-2.368-2.107-5.264l-4.824-5.264 5.637 4.407c3.102 2.424 5.013 5.342 4.249 6.483-.762 1.142 2.646 3.631 7.576 5.536 11.352 4.382 13.08 4.351 9.03-.157-1.785-1.989-4.76-3.079-6.609-2.422-1.851.656-3.092.375-2.76-.622.331-.999-4.811-7.39-11.425-14.206-7.98-8.221-12.029-11.021-12.029-8.321Zm345.649 4.543c-1.393.398-9.086 2.061-17.093 3.699-14.216 2.906-17.784 5.318-11.395 7.699 1.95.726 1.52 1.25-1.116 1.364-2.355.101-5.062 1.35-6.014 2.775-1.844 2.754 14.165.54 16.626-2.3.696-.802 11.522-1.836 24.056-2.295 12.535-.458 23.509-1.897 24.388-3.196.879-1.298 6.29-1.949 12.028-1.443 5.736.505 10.43.189 10.43-.704 0-3.973-41.799-8.479-51.91-5.599Zm25.031 4.625c-3.13 2.026-14.241 3.87-27.784 4.614-18.027.99-21.549.683-17.505-1.514 6.184-3.362 21.086-5.792 37.915-6.183 11.653-.272 12.203-.042 7.374 3.083Zm66.762 12.405c7.115 3.273 8.288 5.072 8.655 13.302l.425 9.52 1.023-9.223c.836-7.533-.053-9.985-4.856-13.398-3.234-2.3-7.59-4.136-9.679-4.083-2.089.054-.096 1.802 4.432 3.882Zm-346.968 2.009c-.841.777-3.026.861-4.852.185-2.02-.746-1.42-1.301 1.53-1.413 2.669-.101 4.163.452 3.322 1.228Zm33.605 19.454c0 6.833 40.777 40.499 44.684 36.892.752-.695-1.871-2.815-5.832-4.712-9.04-4.328-31.255-22.279-31.255-25.255 0-1.224 4.274.465 9.496 3.752 9.784 6.158 46.063 20.02 51.829 19.804 1.786-.067-4.763-2.961-14.555-6.433-21.03-7.459-49.302-21.328-49.302-24.184 0-1.109-1.14-2.014-2.532-2.014-1.393 0-2.533.968-2.533 2.15ZM3.282 518.19c3.132 10.76 22.818 23.576 41.592 27.081 3.563.664-.271-1.472-8.519-4.75-16.733-6.649-22.696-10.872-29.877-21.161-4.49-6.434-4.756-6.532-3.196-1.17Zm457.679 22.053c-1.727 14.058-2.71 25.962-2.18 26.448 1.711 1.582 7.158-37.762 6.226-44.991-.496-3.861-2.317 4.484-4.046 18.543ZM17.166 525.511c0 3.291 17.265 7.877 29.12 7.734 13.216-.157 28.572-4.644 25.528-7.458-2.2-2.031-54.648-2.298-54.648-.276Zm44.124 1.752c2.125 3.177-13.059 5.142-24.757 3.203l-10.504-1.738 13.927-1.378c7.66-.758 15.285-1.549 16.943-1.76 1.659-.21 3.634.543 4.391 1.673Zm164.785 15.558c5.57 1.696 12.977 3.072 16.459 3.055 3.788-.018 1.246-1.338-6.331-3.284-15.912-4.092-23.734-3.914-10.128.229Zm105.892 11.127c1.332 13.263 10.554 26.818 36.864 54.195 18.582 19.337 31.369 38.82 34.532 52.614l1.843 8.041-14.864-12.268c-8.176-6.75-19.718-15.107-25.646-18.572-5.931-3.464-11.446-8.221-12.259-10.57-.815-2.349-1.972-3.815-2.575-3.259-2.935 2.71 3.561 9.784 16.434 17.903 7.835 4.938 18.997 13.309 24.806 18.604 16.292 14.844 19.607 12.514 11.927-8.39-5.574-15.165-17.073-30.868-39.916-54.511-18.31-18.953-24.066-27.024-28.143-39.48-1.246-3.806-.934-5.053.985-3.956 4.097 2.339 3.424-1.75-1.154-7.002-3.7-4.242-3.885-3.805-2.834 6.651Zm-279.236-6.939c2.48 2.543 44.145 8.366 46.241 6.462 1.124-1.02-5.462-2.565-14.634-3.433-9.171-.867-20.346-2.222-24.83-3.011-4.488-.79-7.536-.797-6.777-.018Zm140.392 1.544c1.727 2.585 18.938 7.929 20.597 6.396.678-.627-3.986-2.784-10.367-4.791-6.381-2.01-10.985-2.73-10.23-1.605Zm58.907-.739c1.742.65 4.591.65 6.33 0 1.743-.649.317-1.18-3.165-1.18s-4.905.531-3.165 1.18Zm18.358 3.13c7.113 1.383 5.24 1.785-9.495 2.031-11.752.198-18.359 1.258-18.359 2.95 0 1.792-4.267 2.218-13.294 1.324-8.719-.863-11.114-.646-6.964.634 9.347 2.882 30.123 2.948 25.322.079-2.598-1.551 3.963-2.278 20.742-2.304 24.517-.035 34.284-2.852 19.417-5.598-4.33-.801-12.003-1.318-17.052-1.147l-9.179.307 8.862 1.724Zm-194.348 6.37c-4.525.52-8.23 1.865-8.23 2.988 0 2.15 36.32 21.512 55.71 29.698 55.412 23.393 118.209 32.482 158.091 22.886 15.594-3.753 20.663-3.271 11.785 1.118-8.194 4.052-6.252 7.164 4.214 6.752l9.496-.375-8.531-.963c-8.359-.946-8.423-1.037-3.125-4.467 2.975-1.925 4.644-4.644 3.71-6.04-1.069-1.598-.509-1.86 1.506-.709 1.869 1.067 4.13.484 5.417-1.395 4.109-5.991 2.324-6.868-5.941-2.919-14.626 6.993-32.995 10.167-58.874 10.179-46.19.021-102.697-16.534-158.026-46.295l-11.154-6.001 9.888-2.828c10.109-2.892 8.63-3.297-5.936-1.629Zm266.243 6.497c4.571 8.813 21.296 26.905 24.874 26.905 1.474 0-2.322-5-8.435-11.113-6.115-6.113-13.132-13.745-15.595-16.961l-4.483-5.849 3.639 7.018Zm110.772 18.132c-5.325 21.87-5.621 24.235-1.972 15.677 3.74-8.769 7.89-27.96 6.049-27.96-.597 0-2.431 5.529-4.077 12.283Zm-68.965 25.901c16.781 15.885 26.353 27.77 31.975 39.716 1.939 4.122 3.562 5.914 3.606 3.984.2-8.998-40.835-58.488-48.495-58.488-1.492 0 4.32 6.656 12.914 14.788Zm-40.338 1.71c-1.53 2.641-2.271 6.591-1.649 8.773.765 2.684 1.31 2.073 1.679-1.876l.545-5.849 2.028 5.849c1.811 5.22 2.054 4.906 2.279-2.924.286-9.941-.876-10.889-4.882-3.973Zm98.931 5.727c-9.379 26.947-18.53 46.021-20.622 42.973-1.702-2.482-2.203-2.237-2.233 1.088-.021 2.379 1.372 3.877 3.127 3.359 3.78-1.108 25.492-49.883 24.013-53.949-.565-1.556-2.494 1.382-4.285 6.529Zm-121.65 9.265c16.029 3.919 20.258 4.305 20.258 1.848 0-.966-2.563-1.916-5.698-2.115-3.135-.199-10.825-.987-17.092-1.752-10.889-1.327-10.775-1.235 2.532 2.019Zm-67.104 8.088c23.198 2.954 65.053 4.805 54.443 2.405-4.875-1.102-22.537-2.532-39.25-3.173-22.028-.847-26.208-.636-15.193.768Z" fill="#40C1FF" fill-opacity=".2"/></g><defs><clipPath id="a"><rect width="470" height="610" rx="25" fill="#fff"/></clipPath></defs></svg>