<svg width="470" height="610" viewBox="0 0 470 610" fill="none" xmlns="http://www.w3.org/2000/svg">
<g clip-path="url(#clip0_98_252)">
<rect width="470" height="610" rx="25" fill="white"/>
<path d="M55.9401 72.12V60.28C55.9401 59.6 56.2201 59.26 56.7801 59.26C57.3401 59.26 57.6201 59.6 57.6201 60.28V70.44H60.8801V60.28C60.8801 59.6 61.1601 59.26 61.7201 59.26C62.2801 59.26 62.5601 59.6 62.5601 60.28V70.44H65.8201V60.28C65.8201 59.6 66.1001 59.26 66.6601 59.26C67.2201 59.26 67.5001 59.6 67.5001 60.28V72.12H55.9401ZM79.4066 72.26C79.24 72.26 79.1033 72.21 78.9966 72.11C78.89 72.0167 78.81 71.8133 78.7566 71.5C78.71 71.1867 78.6866 70.7067 78.6866 70.06L78.9066 70.58C78.4866 71.16 77.96 71.5633 77.3266 71.79C76.7 72.01 75.96 72.12 75.1066 72.12H73.2466C72.52 72.12 71.9266 71.88 71.4666 71.4C71.0133 70.9133 70.7866 70.18 70.7866 69.2C70.7866 68.5867 70.8866 68.07 71.0866 67.65C71.2866 67.2233 71.5966 66.88 72.0166 66.62C72.4366 66.3533 72.9733 66.16 73.6266 66.04C74.28 65.92 75.06 65.86 75.9666 65.86H79.3466L78.5866 66.54V65.06C78.5866 64.7667 78.5366 64.5733 78.4366 64.48C78.3433 64.3867 78.1333 64.34 77.8066 64.34H74.9866C74.3133 64.34 73.7966 64.3567 73.4366 64.39C73.0833 64.4233 72.8366 64.49 72.6966 64.59C72.5566 64.6833 72.48 64.82 72.4666 65C72.44 65.3467 72.3766 65.6033 72.2766 65.77C72.1766 65.9367 71.96 66.02 71.6266 66.02C71.0666 66.02 70.7866 65.66 70.7866 64.94C70.7866 64.1467 71.1166 63.57 71.7766 63.21C72.4366 62.8433 73.46 62.66 74.8466 62.66H77.9466C78.8 62.66 79.4 62.8633 79.7466 63.27C80.0933 63.6767 80.2666 64.38 80.2666 65.38V71.3C80.2666 71.94 79.98 72.26 79.4066 72.26ZM73.3066 70.52H75.1066C76.3666 70.52 77.26 70.2667 77.7866 69.76C78.32 69.2467 78.5866 68.44 78.5866 67.34L78.7066 67.46H75.9666C75.0866 67.46 74.39 67.5033 73.8766 67.59C73.37 67.67 73.0066 67.83 72.7866 68.07C72.5733 68.31 72.4666 68.6667 72.4666 69.14C72.4666 69.5667 72.54 69.9033 72.6866 70.15C72.84 70.3967 73.0466 70.52 73.3066 70.52ZM91.3016 64.34H85.9616C85.6416 64.34 85.4316 64.3933 85.3316 64.5C85.2316 64.6 85.1816 64.82 85.1816 65.16V71.3C85.1816 71.94 84.9016 72.26 84.3416 72.26C83.7816 72.26 83.5016 71.94 83.5016 71.3V65.38C83.5016 64.38 83.675 63.6767 84.0216 63.27C84.3683 62.8633 84.9683 62.66 85.8216 62.66H91.3016C91.9816 62.66 92.3216 62.94 92.3216 63.5C92.3216 64.06 91.9816 64.34 91.3016 64.34ZM104.981 72C104.421 72 104.141 71.72 104.141 71.16V60.84L104.601 60.52L102.401 62.58C102.235 62.74 102.058 62.8367 101.871 62.87C101.685 62.8967 101.501 62.82 101.321 62.64C100.961 62.28 100.981 61.9 101.381 61.5L104.061 58.86C104.341 58.58 104.688 58.44 105.101 58.44C105.581 58.44 105.821 58.72 105.821 59.28V71.16C105.821 71.72 105.541 72 104.981 72Z" fill="white"/>
<path opacity="0.2" fill-rule="evenodd" clip-rule="evenodd" d="M429.534 210.174C429.343 214.12 429.088 221.643 428.967 226.892C428.844 232.141 428.64 236.521 428.511 236.625C428.383 236.73 421.218 236.856 412.589 236.905L396.901 236.996V226.702V216.408H393.993H391.085L390.679 230.521C390.358 241.69 388.807 272.607 388.261 278.741C388.138 280.106 388.61 280.093 379.454 278.998C372.078 278.115 367.861 276.767 365.779 274.625C365.142 273.97 364.55 272.299 364.308 270.472C363.964 267.875 364.133 266.856 365.428 263.686C366.719 260.524 366.947 259.148 366.926 254.647C366.893 247.709 365.868 245.102 362.65 243.765C359.78 242.573 352.342 242.169 347.936 242.967C343.362 243.795 343.108 244.464 343.108 255.674C343.108 260.599 342.912 264.64 342.672 264.655C342.432 264.67 339.881 264.774 337.002 264.887C329.618 265.175 328.386 265.412 326.702 266.868C324.388 268.869 323.32 270.974 322.937 274.285C322.604 277.173 322.65 277.329 323.833 277.329C324.858 277.329 325.08 277.051 325.08 275.768C325.08 272.997 326.722 269.485 328.624 268.191L330.403 266.98H346.061H361.717V270.208C361.717 273.106 361.901 273.623 363.511 275.262C365.575 277.363 366.382 277.849 367.159 277.461C367.464 277.309 367.525 277.43 367.294 277.731C366.574 278.674 371.577 280.003 379.64 281.01C383.839 281.534 387.482 282.067 387.737 282.194C387.991 282.322 388.266 283.872 388.346 285.64C388.522 289.508 389.958 298.045 391.369 303.618C391.934 305.848 392.282 307.831 392.142 308.026C391.83 308.46 336.633 308.497 329.151 308.067L323.739 307.757L324.078 292.973L324.419 278.19L303.96 278.525C292.707 278.709 283.385 278.944 283.244 279.046C283.104 279.15 282.923 280.128 282.843 281.222C282.141 290.821 281.359 300.035 281.102 301.732L280.791 303.79L274.876 303.464C271.624 303.285 267.261 302.958 265.182 302.738C263.103 302.518 257.172 302.076 252.003 301.757L242.604 301.177L242.825 298.78C242.946 297.461 243.354 291.333 243.732 285.163C244.276 276.289 244.27 273.868 243.702 273.585C243.192 273.329 243.301 273.159 244.082 272.994C245.123 272.774 245.187 272.002 245.34 257.64L245.502 242.517H233.335C226.644 242.517 217.595 242.656 213.226 242.825C206.031 243.104 205.283 243.215 205.283 244.001C205.283 244.8 205.882 244.869 212.798 244.869H220.312L220.377 258.941L220.442 273.012L215.916 273.32C213.427 273.49 209.689 273.801 207.609 274.012L203.829 274.395L199.31 271.846L194.791 269.297L180.265 269.623L165.739 269.95V266.181C165.739 264.109 165.571 261.112 165.365 259.522C165.05 257.085 164.815 256.63 163.87 256.63C162.797 256.63 162.767 256.91 163.162 263.206C163.501 268.619 163.432 269.818 162.766 269.989C162.322 270.103 157.935 270.305 153.017 270.437L144.075 270.677L144.371 261.419C144.704 250.999 145.924 245.114 149.949 234.519L152.182 228.639L149.511 227.878C148.041 227.46 146.65 227.204 146.421 227.309C145.227 227.855 140.172 243.579 138.96 250.514L138.261 254.513L128.593 254.65C116.462 254.822 102.254 255.58 101.626 256.087C100.817 256.742 101.82 258.127 102.862 257.796C104.046 257.42 122.592 256.668 131.204 256.646L137.667 256.63L138.003 266.156C138.246 273.029 138.672 276.993 139.534 280.387C140.191 282.975 140.73 285.157 140.731 285.237C140.732 285.317 140.991 285.253 141.308 285.095C141.623 284.937 141.742 285.103 141.57 285.465C141.398 285.827 141.649 287.041 142.127 288.163C142.605 289.285 142.892 290.339 142.766 290.505C142.526 290.818 141.751 290.721 122.123 287.914C92.2344 283.64 75.7118 281.235 57.5724 278.518C53.2545 277.871 49.0022 277.239 48.1224 277.113C46.7145 276.91 46.5121 277.036 46.4318 278.164C46.3818 278.87 46.2905 280.008 46.2289 280.694C46.1015 282.112 44.9274 281.891 77.0539 286.494C85.37 287.686 95.576 289.167 99.734 289.784C103.892 290.401 108.302 291.04 109.535 291.205C111.404 291.454 111.628 291.595 110.886 292.061C110.194 292.494 109.73 295.21 108.798 304.272C107.5 316.91 107.156 317.994 103.921 319.611C99.7555 321.693 97.0042 321.781 81.3126 320.328L66.877 318.991L66.8776 317.095C66.8776 316.053 67.1637 312.871 67.5126 310.025C67.861 307.179 68.5838 300.669 69.1177 295.559L70.0883 286.268H68.7734C67.8028 286.268 67.4539 286.545 67.4411 287.326C67.4318 287.909 67.0567 291.878 66.6078 296.147C66.1588 300.416 65.4697 307.085 65.0754 310.966C64.6817 314.847 64.1787 318.193 63.9577 318.401C63.7367 318.609 59.9201 318.453 55.4759 318.053C51.0318 317.654 41.5074 316.802 34.3108 316.161C27.1143 315.519 19.0018 314.781 16.2831 314.521C13.5644 314.26 9.76986 313.925 7.85078 313.776C5.9317 313.627 3.38049 313.391 2.18077 313.253C0.131428 313.015 0 313.075 0 314.245C0 314.93 0.19656 315.402 0.436154 315.294C0.67633 315.187 2.18077 315.227 3.78 315.384L6.6877 315.67V325.464V335.258L3.79454 335.108C1.49339 334.989 0.862423 335.114 0.712967 335.722C0.609453 336.142 0.995014 336.664 1.57074 336.883C2.14588 337.101 16.4232 337.354 33.2972 337.445L63.9775 337.612L63.7414 339.814C63.6111 341.024 63.4785 344.343 63.4465 347.19L63.3884 352.364L54.2285 352.061C38.7474 351.546 5.65721 350.542 3.19847 350.512L0.872309 350.483L0.559441 352.683L0.246573 354.884L4.92098 355.139C24.527 356.208 84.2075 357.495 90.0263 356.973C92.684 356.735 94.9607 356.676 95.0869 356.84C95.2125 357.005 95.0927 366.756 94.82 378.509C94.5478 390.263 94.364 400.077 94.4123 400.32C94.4606 400.562 90.0513 401.233 84.614 401.809C46.501 405.853 49.2069 405.446 45.2949 407.724C41.5306 409.915 40.3577 411.122 40.6531 412.498C40.699 412.711 40.4833 412.759 40.1745 412.605C39.3184 412.177 37.4918 415.577 38.2484 416.189C39.098 416.877 39.9535 416.341 41.2486 414.313C41.8563 413.36 43.3572 411.819 44.5837 410.889C48.4597 407.95 50.5433 407.218 56.4709 406.709C59.4758 406.45 71.6166 405.175 83.4509 403.875C118.28 400.048 115.027 400.193 126.061 401.975C135.456 403.493 135.552 403.498 139.582 402.75C152.577 400.336 155.502 399.983 155.573 400.82C155.595 401.078 155.929 402.666 156.315 404.348C157.659 410.208 160.505 424.612 160.505 425.56C160.505 426.085 160.309 426.424 160.069 426.313C159.828 426.202 156.231 426.59 152.073 427.175C147.914 427.759 144.358 428.102 144.168 427.936C143.979 427.77 143.373 424.988 142.821 421.754C141.271 412.67 141.316 412.816 140.086 412.816C139.482 412.816 138.988 413.029 138.988 413.29C138.988 413.728 141.244 426.993 141.494 428.025C141.601 428.465 138.695 429.01 129.894 430.199C126.22 430.695 125.777 430.865 126.04 431.678C126.368 432.694 126.214 432.7 135.627 431.323C138.416 430.915 141.045 430.689 141.47 430.821C142.162 431.036 142.326 431.72 142.672 435.839C142.774 437.061 142.67 437.084 130.701 438.436C128.488 438.686 127.939 438.929 127.939 439.66C127.939 440.755 127.983 440.756 135.258 439.869C138.429 439.482 141.583 439.165 142.267 439.163C143.619 439.16 143.85 439.753 144.549 445.049L144.923 447.88L138.03 448.814C131.642 449.68 131.123 449.83 130.944 450.849C130.79 451.729 130.965 451.898 131.816 451.689C132.403 451.545 136.938 450.89 141.896 450.233C146.853 449.576 154 448.592 157.776 448.047C161.553 447.502 164.716 447.132 164.805 447.224C165.322 447.764 166.726 455.926 166.356 456.239C166.11 456.447 161.28 456.973 155.624 457.406C145.906 458.152 145.348 458.247 145.508 459.145C145.701 460.238 145.636 460.238 158.109 459.103C162.39 458.714 166.213 458.495 166.606 458.617C166.999 458.739 167.492 459.863 167.701 461.114C168.028 463.066 168.884 466.021 171.559 474.443C172.243 476.595 176.495 485.882 177.965 488.434C178.597 489.531 179.114 490.542 179.114 490.682C179.114 490.821 180.03 492.434 181.149 494.266C183.433 498.005 183.554 498.436 182.313 498.436C181.833 498.436 181.434 498.701 181.427 499.024C181.393 500.596 179.779 513.109 179.591 513.261C179.472 513.357 170.746 512.579 160.2 511.532C134.001 508.932 132.069 508.871 123.21 510.348C119.254 511.007 113.685 511.892 110.833 512.313L105.649 513.079L104.255 511.951C103.144 511.052 102.517 509.45 101.159 504.042C100.223 500.311 98.4179 493.132 97.149 488.086C95.1637 480.196 94.9555 478.819 95.6597 478.247C96.364 477.674 112.444 475.155 126.116 473.475C128.151 473.225 130.009 472.924 130.244 472.807C130.624 472.617 145.51 473.296 163.612 474.329C169.277 474.653 169.972 474.606 170.458 473.872C171.209 472.737 171.153 472.731 149.746 471.613L131.137 470.642L125.031 471.588C121.673 472.108 113.975 473.193 107.927 473.999C99.1367 475.171 96.1005 475.778 92.8067 477.021C89.7833 478.163 86.0504 478.972 78.7986 480.057C73.3612 480.871 67.7348 481.726 66.2955 481.958C64.8562 482.19 62.5922 482.498 61.2646 482.643L58.8506 482.908L58.1528 480.556C57.4072 478.042 56.6826 477.327 55.6911 478.129C55.2567 478.481 55.2898 479.45 55.8045 481.413C56.835 485.339 56.8734 485.369 60.2335 484.826C61.8083 484.571 69.1107 483.488 76.4608 482.42C83.8103 481.351 90.27 480.283 90.8155 480.047C92.2688 479.418 92.7892 479.518 92.8788 480.442C92.923 480.894 94.0506 485.605 95.3852 490.909C96.7199 496.213 98.4005 502.919 99.1205 505.811C100.295 510.529 100.698 511.361 103.046 513.918C104.486 515.486 105.877 516.613 106.136 516.423C106.396 516.233 106.447 516.306 106.251 516.585C105.794 517.235 106.696 519.63 110.676 528.327C121.222 551.373 120.638 549.485 117.667 550.944C116.645 551.445 116.66 551.558 117.998 553.531C118.768 554.666 119.465 555.665 119.548 555.75C119.669 555.875 127.601 552.203 132.076 549.951C134.608 548.676 138.17 547.142 138.612 547.134C139.036 547.128 141.441 552.744 145.305 562.767C146.173 565.019 147.338 565.854 148.405 564.991C148.573 564.855 147.83 562.579 146.753 559.934C145.676 557.288 144.117 553.372 143.289 551.231C142.461 549.089 141.447 547.066 141.036 546.733C140.427 546.241 141.705 545.439 147.925 542.412C152.125 540.368 156.216 538.346 157.016 537.92C162.708 534.884 177.761 526.768 178.761 526.195C182.351 524.139 188.479 519.001 188.155 518.318C187.988 517.964 188.074 517.786 188.347 517.923C188.619 518.059 189.969 517.09 191.346 515.77C193.653 513.556 193.909 513.434 194.613 514.214C195.409 515.094 199.327 518.923 200.34 519.812C200.66 520.092 202.491 521.801 204.408 523.609C206.325 525.418 208.157 527.125 208.479 527.402C208.8 527.68 210.11 528.925 211.39 530.17C214.704 533.395 217.358 535.886 220.694 538.906C222.293 540.353 224.387 542.269 225.346 543.163C226.306 544.057 228.792 546.373 230.871 548.309C232.95 550.246 234.941 552.042 235.297 552.301C235.651 552.56 237.997 554.677 240.51 557.005C249.182 565.043 261.048 574.997 265.11 577.641C266.189 578.345 266.954 579.015 266.81 579.132C266.666 579.248 261.203 580.199 254.671 581.243C245.361 582.732 242.164 583.069 239.885 582.804C238.286 582.618 234.265 582.453 230.95 582.437L224.922 582.409L219.731 574.177C216.876 569.649 214.287 565.873 213.979 565.786C213.67 565.699 213.548 565.458 213.707 565.249C214.242 564.549 209.465 561.534 207.3 561.206C206.028 561.013 200.499 561.377 193.497 562.116C187.074 562.794 181.759 563.297 181.688 563.235C181.616 563.172 180.372 557.388 178.923 550.382C176.288 537.65 176.285 537.641 173.814 534.505C171.25 531.252 170.152 530.692 169.516 532.315C169.312 532.836 168.901 533.141 168.605 532.992C167.569 532.474 168.081 533.353 170.356 535.996L172.647 538.658L175.871 554.653C177.645 563.451 179.491 572.448 179.974 574.647C180.456 576.846 181.511 582.033 182.317 586.173C183.123 590.313 184.173 595.499 184.651 597.698C185.129 599.898 185.804 603.179 186.151 604.99C186.497 606.801 186.846 608.601 186.925 608.989C187.011 609.411 187.841 609.756 188.993 609.847L190.917 610L190.534 607.73C190.323 606.482 189.652 603.132 189.042 600.286C188.433 597.44 188.108 594.974 188.322 594.807C188.535 594.64 192.766 593.844 197.723 593.038C209.558 591.116 210.19 590.963 210.431 589.953C210.614 589.18 210.336 589.129 207.554 589.427C205.86 589.609 200.711 590.462 196.112 591.322C190.323 592.405 187.679 592.722 187.52 592.352C187.016 591.176 185.018 580.535 185.264 580.335C185.409 580.218 186.767 579.973 188.281 579.791C189.796 579.609 194.241 579.078 198.159 578.612C204.265 577.885 205.283 577.642 205.283 576.911C205.283 575.792 203.724 575.805 194.999 576.997C187.765 577.985 184.348 578.174 184.348 577.587C184.348 577.393 183.819 574.611 183.171 571.404C182.525 568.197 182.067 565.517 182.154 565.449C182.397 565.258 194.42 563.892 200.749 563.335C205.702 562.9 206.626 562.937 208.302 563.638C210.225 564.442 213.469 566.928 213.043 567.272C212.696 567.553 233.125 600.735 233.75 600.905C234.05 600.986 234.134 601.391 233.938 601.805C233.682 602.345 233.799 602.449 234.352 602.172C234.841 601.927 234.982 601.97 234.739 602.288C234.42 602.705 235.747 605.415 237.776 608.49C238.415 609.459 239.538 609.654 239.914 608.862C240.091 608.49 237.383 603.444 233.897 597.65C230.412 591.855 227.391 586.73 227.184 586.261C226.951 585.731 226.53 585.542 226.077 585.763C225.573 586.008 225.594 585.871 226.144 585.322C226.796 584.673 227.991 584.526 232.649 584.526C235.787 584.526 238.989 584.721 239.764 584.959C240.782 585.273 243.896 584.949 250.996 583.793C256.399 582.914 261.098 582.19 261.438 582.184C262.26 582.171 268.991 604.693 268.316 605.201C268.032 605.415 265.705 606.163 263.146 606.862C257.852 608.31 257.474 608.505 258.184 609.434C258.615 609.998 259.547 609.876 264.019 608.669L269.34 607.233L269.864 608.346C270.434 609.559 271.012 609.73 271.958 608.965C272.386 608.618 271.921 606.393 270.409 601.555C263.995 581.03 264.029 581.259 267.363 581.24C268.159 581.236 268.671 580.945 268.671 580.495C268.671 579.868 268.911 579.895 270.27 580.671C272.929 582.191 279.747 584.816 284.373 586.101C290.299 587.748 297.289 589.028 309.379 590.68C314.976 591.445 321.649 592.382 324.208 592.762C333.841 594.193 348.415 595.794 358.81 596.563C367.956 597.24 373.838 597.316 398.064 597.064C425.598 596.778 452.385 596.173 465.405 595.544L471.685 595.24L471.511 592.858L471.338 590.476L465.813 590.441L460.288 590.407L460.37 586.643C460.416 584.573 460.517 579.175 460.597 574.647C460.783 563.988 461.436 557.706 462.992 551.595C463.685 548.879 464.275 546.197 464.305 545.636C464.335 545.076 464.477 544.713 464.622 544.83C464.766 544.947 465.455 543.5 466.152 541.615C466.849 539.73 469.665 533.393 472.409 527.533C482.741 505.467 484.383 499.436 487.057 473.738C488.212 462.643 487.731 458.161 484.61 450.921C483.56 448.487 478.957 440.952 477.437 439.181C476.873 438.523 475.437 436.763 474.246 435.269C473.055 433.776 471.588 432.275 470.986 431.934C470.384 431.593 470.017 431.211 470.172 431.087C470.44 430.87 468.461 428.868 462.335 423.158C460.805 421.732 458.29 419.297 456.747 417.748C455.203 416.2 453.773 414.827 453.567 414.698C453.361 414.568 452.522 413.596 451.704 412.538C450.884 411.48 449.858 410.315 449.424 409.951C448.989 409.586 447.643 408.184 446.432 406.836C444.476 404.658 444.31 404.265 444.946 403.308C445.339 402.716 445.817 401.596 446.009 400.82C446.347 399.446 446.68 399.319 458.441 396.101C465.088 394.282 470.324 392.63 470.077 392.43C469.83 392.23 470.044 392.196 470.552 392.354C471.06 392.511 477.378 390.938 484.593 388.858C499.021 384.699 504.001 383.466 514.268 381.514L521.143 380.207L520.745 377.811C520.525 376.494 520.308 375.379 520.262 375.334C520.128 375.203 508.421 377.379 503.322 378.482C500.763 379.036 494.221 380.768 488.784 382.33C473.354 386.765 446.458 393.998 445.396 393.998C444.841 393.998 444.149 393.353 443.756 392.469C443.381 391.629 442.448 389.914 441.683 388.66L440.291 386.379L441.574 384.191C442.778 382.138 443.436 381.733 452.154 377.668C457.268 375.285 463.807 372.236 466.685 370.893C469.564 369.551 472.704 368.086 473.664 367.64C474.623 367.193 476.978 366.093 478.898 365.194C480.817 364.296 487.49 361.18 493.727 358.269C499.964 355.359 505.316 352.787 505.619 352.554C505.923 352.32 506.763 352.129 507.485 352.129C508.974 352.129 509.361 352.621 515.828 362.714C518.149 366.336 520.107 369.358 520.179 369.429C520.472 369.715 522.222 368.933 522.222 368.517C522.222 368.27 522.026 368.166 521.786 368.286C521.546 368.406 521.303 368.048 521.247 367.491C521.158 366.611 519.555 364.065 512.083 352.939C509.897 349.684 508.514 349.325 504.496 350.97C500.986 352.406 501.116 352.439 498.586 349.486C497.673 348.42 494.701 345.149 491.982 342.217C489.263 339.284 484.206 333.805 480.742 330.041C477.279 326.277 473.877 322.58 473.182 321.824C472.488 321.069 470.415 318.856 468.575 316.906C466.736 314.957 465.231 313.135 465.231 312.859C465.231 312.583 466.409 310.73 467.848 308.741C469.288 306.752 470.465 305.006 470.465 304.86C470.465 304.715 471.075 303.807 471.82 302.841C472.564 301.876 474.095 299.711 475.22 298.029C476.345 296.347 479.226 292.113 481.621 288.62C484.016 285.127 486.772 281.105 487.745 279.682C497.111 265.985 504.431 255.396 504.718 255.127C504.91 254.948 508.418 255.495 512.513 256.343C520.732 258.045 520.5 258.084 521.25 254.88C521.642 253.204 522.258 253.467 514.226 251.881C512.175 251.475 511.173 251.038 511.173 250.547C511.173 250.146 513.674 242.536 516.73 233.636C519.786 224.737 522.149 217.166 521.981 216.814C521.157 215.077 520.071 216.526 518.311 221.706C512.109 239.965 508.618 249.856 508.258 250.19C507.656 250.747 487.931 246.607 484.869 245.281C483.891 244.858 483.715 243.95 484.515 243.456C484.879 243.231 490.819 227.798 490.819 227.078C490.819 226.889 488.791 226.146 486.312 225.425C478.903 223.272 479.063 223.349 479.524 222.167C479.751 221.587 480.821 219.54 481.902 217.618C483.808 214.231 483.836 212.884 481.99 213.466C481.569 213.599 479.919 216.186 478.325 219.215C476.731 222.243 475.269 224.799 475.077 224.895C474.886 224.991 471.094 224.656 466.653 224.15C462.211 223.643 458.526 223.229 458.462 223.229C458.352 223.229 454.928 235.064 454.416 237.212C454.209 238.084 453.893 238.213 452.503 237.988C451.587 237.839 446.421 237.475 441.024 237.177L431.211 236.636L431.366 229.345C431.451 225.334 431.679 217.766 431.873 212.526C432.219 203.193 432.202 203 431.053 203C429.943 203 429.862 203.386 429.534 210.174ZM483.042 226.59C485.56 227.403 487.706 228.124 487.809 228.193C488.003 228.32 482.11 244.014 481.742 244.35C481.536 244.538 460.271 239.542 457.779 238.72C456.893 238.427 456.526 237.995 456.705 237.456C456.855 237.005 457.696 234.202 458.572 231.226C459.448 228.251 460.239 225.743 460.33 225.654C460.546 225.442 475.183 226.97 475.775 227.266C476.025 227.391 476.664 226.957 477.194 226.302C477.725 225.646 478.228 225.111 478.311 225.111C478.395 225.111 480.524 225.776 483.042 226.59ZM379.454 236.936C375.296 237.1 368.335 237.259 363.984 237.288C359.633 237.318 354.464 237.478 352.498 237.644C349.471 237.9 348.924 238.087 348.924 238.863C348.924 239.738 349.261 239.767 356.338 239.506C360.416 239.355 369.445 239.101 376.401 238.941C387.986 238.674 389.05 238.579 389.05 237.815C389.05 236.675 388.145 236.592 379.454 236.936ZM439.87 241.962C440.163 242.346 439.345 274.778 438.695 288.533C438.391 294.971 438.253 295.703 437.4 295.414C435.552 294.786 417.17 289.458 409.985 287.468C405.987 286.36 401.8 285.142 400.681 284.762C397.027 283.519 395.447 283.341 395.447 284.17C395.447 284.594 395.17 284.774 394.801 284.589C394.355 284.366 394.271 282.792 394.532 279.504C394.865 275.301 396.581 244.537 396.602 242.399C396.609 241.63 398.023 241.576 418.092 241.576C429.908 241.576 439.708 241.75 439.87 241.962ZM452.147 242.763C453.746 242.932 457.279 243.596 459.998 244.239C462.716 244.882 467.165 245.93 469.884 246.568C472.602 247.206 479.276 248.875 484.713 250.278C490.15 251.68 495.908 253.055 497.507 253.335C502.848 254.267 502.648 254.137 501.374 255.843C500.761 256.664 499.318 258.763 498.167 260.506C497.017 262.25 495.416 264.521 494.61 265.554C493.805 266.586 493.145 267.508 493.145 267.601C493.145 267.751 490.022 272.342 479.488 287.679C472.857 297.333 472.483 297.794 471.311 297.766C469.541 297.722 460.779 297.072 455.636 296.602C453.077 296.369 449.596 296.132 447.9 296.077C446.203 296.022 444.676 295.794 444.506 295.57C444.19 295.157 445.146 260.95 445.816 248.726L446.184 241.997L447.712 242.227C448.552 242.353 450.548 242.595 452.147 242.763ZM242.884 257.617C242.67 264.926 242.429 270.959 242.348 271.025C242.177 271.163 225.134 272.625 223.695 272.625C222.817 272.625 222.73 271.354 222.73 258.603V244.58L233.001 244.454L243.272 244.329L242.884 257.617ZM361.36 245.401C363.732 246.275 364.337 248.244 364.305 254.984C364.283 259.339 364.015 261.641 363.372 262.981L362.47 264.863H354.097H345.725L345.567 255.615C345.432 247.67 345.541 246.262 346.336 245.618C347.07 245.025 348.578 244.869 353.59 244.869C357.07 244.869 360.567 245.108 361.36 245.401ZM197.053 272.978C198.829 273.948 200.506 274.867 200.779 275.02C201.48 275.414 201.617 276.778 202.083 288.032C202.424 296.29 202.359 298.028 201.709 298.025C200.053 298.017 190.217 297.061 184.929 296.395C181.891 296.013 175.872 295.261 171.554 294.724C167.236 294.188 162.526 293.558 161.086 293.324C159.647 293.09 156.588 292.66 154.289 292.368L150.108 291.838L148.956 288.935C146.033 281.569 143.894 272.66 145.029 272.579C146.274 272.49 185.263 271.357 189.521 271.286C193.597 271.217 193.993 271.306 197.053 272.978ZM242.157 273.919C242.027 274.372 241.536 280.54 241.066 287.625C240.596 294.711 240.085 300.611 239.93 300.736C239.776 300.861 236.431 300.731 232.498 300.448C216.345 299.283 206.119 298.467 205.512 298.294C205.086 298.172 204.732 294.646 204.463 287.837C204.24 282.187 203.937 277.229 203.789 276.818C203.558 276.177 204.772 275.991 212.398 275.49C219.267 275.04 236.542 273.667 241.72 273.161C242.09 273.125 242.287 273.466 242.157 273.919ZM321.71 294.383L321.539 307.438L318.512 307.435C316.847 307.433 312.868 307.111 309.67 306.719C306.471 306.327 299.439 305.597 294.041 305.096C288.644 304.595 284.09 304.073 283.921 303.936C283.753 303.8 283.961 298.502 284.384 292.162L285.153 280.636L303.226 280.511C314.849 280.431 321.404 280.555 321.591 280.858C321.751 281.116 321.805 287.203 321.71 294.383ZM403.297 287.613C417.201 291.656 437.952 297.558 438.261 297.558C438.382 297.558 438.481 299.541 438.481 301.963C438.481 306.075 438.381 306.45 436.976 307.586C436 308.375 434.517 308.919 432.763 309.132C428.802 309.612 400.068 309.012 399.352 308.433C398.223 307.519 394.902 291.818 394.877 287.271C394.867 285.524 395.017 285.257 395.883 285.485C396.442 285.632 399.779 286.59 403.297 287.613ZM123.877 293.32C129.469 294.093 136.568 295.074 139.651 295.5L145.259 296.274L146.476 300.902C149.265 311.495 150.037 318.384 150.037 332.666C150.037 341.728 149.849 345.09 149.31 345.653C148.805 346.182 146.187 346.71 140.732 347.385C124.31 349.418 102.121 351.554 95.4009 351.751L90.4863 351.894L89.7542 348.407C89.011 344.871 87.8124 330.842 87.8124 325.685V322.866L91.7646 323.188C96.7664 323.594 102.548 322.787 105.392 321.284C109.417 319.159 109.948 317.606 111.301 304.027C112.037 296.646 112.744 291.913 113.109 291.913C113.439 291.913 118.284 292.546 123.877 293.32ZM161.243 298.509C175.468 300.456 195.338 302.678 205.283 303.433C210.881 303.858 216.084 304.309 216.845 304.435L218.23 304.664L217.912 313.225C217.62 321.059 217.425 322.285 215.61 327.666L213.626 333.545L193.026 338.078C165.814 344.065 156.8 346.017 156.367 346.015C156.169 346.014 156.137 341.197 156.296 335.311C156.464 329.048 156.303 321.877 155.908 318.022C155.251 311.618 153.504 302.144 152.423 299.122C151.845 297.508 152.148 296.92 153.362 297.297C153.785 297.428 157.331 297.974 161.243 298.509ZM457.09 298.734C462.367 299.124 467.657 299.567 468.844 299.716L471.004 299.987L468.697 303.36C467.428 305.214 465.417 308.165 464.229 309.916L462.067 313.1L451.001 312.792C444.914 312.622 439.808 312.392 439.652 312.28C439.497 312.169 439.931 311.721 440.615 311.287C443.489 309.461 444.291 307.52 444.294 302.392L444.296 297.582L445.895 297.802C446.775 297.924 451.812 298.343 457.09 298.734ZM232.906 305.56C236.425 305.812 247.022 306.558 256.455 307.218C265.888 307.879 273.77 308.568 273.971 308.751C274.171 308.934 274.172 312.365 273.975 316.376L273.614 323.668H246.573C219.86 323.668 219.533 323.656 219.708 322.727C219.806 322.209 220.036 317.941 220.22 313.241L220.556 304.695L223.533 304.899C225.17 305.011 229.388 305.308 232.906 305.56ZM306.18 311.418C311.938 312.068 317.424 312.655 318.371 312.723L320.095 312.848L320.116 318.115C320.135 322.738 320.013 323.409 319.123 323.598C318.565 323.717 309.668 323.781 299.351 323.741L280.593 323.668L280.43 316.868C280.341 313.128 280.38 309.833 280.516 309.546C280.81 308.926 290.099 309.603 306.18 311.418ZM352.218 313.731C352.27 313.763 352.387 316.011 352.477 318.728L352.641 323.668L337.697 323.774L322.754 323.881V318.443V313.005L337.438 313.339C345.515 313.523 352.165 313.699 352.218 313.731ZM396.1 319.904C397.259 323.527 399.434 330.065 400.934 334.435C402.434 338.804 403.444 342.555 403.178 342.77C402.912 342.985 399.69 343.794 396.018 344.567C388.864 346.074 374.069 349.258 368.488 350.491C366.615 350.905 365.01 351.178 364.923 351.098C364.786 350.974 362.414 343.956 358.194 331.195C357.595 329.383 356.578 326.314 355.932 324.373C355.24 322.294 354.755 319.351 354.749 317.206L354.739 313.566L373.203 313.442C383.358 313.374 392.19 313.318 392.83 313.318C393.837 313.318 394.275 314.2 396.1 319.904ZM445.75 314.568C455.665 314.855 464.093 315.096 464.479 315.105C464.864 315.114 465.059 315.279 464.912 315.473C464.638 315.832 473.218 325.422 474.067 325.706C474.325 325.793 474.536 326.066 474.536 326.314C474.536 326.562 474.809 327.021 475.144 327.333C475.479 327.646 478.669 331.077 482.234 334.958C495.951 349.892 497.431 351.419 498.041 351.267C498.387 351.18 498.483 351.261 498.254 351.446C498.026 351.631 498.092 352.165 498.401 352.633C498.975 353.501 498.248 353.907 485.75 359.697C484.402 360.321 480.084 362.334 476.155 364.17C455.847 373.659 445.759 378.352 443.423 379.398C441.52 380.251 440.585 381.061 439.895 382.456C438.636 385.008 437.853 385.76 437.262 384.988C436.757 384.326 430.038 384.124 428.555 384.725C427.833 385.018 427.154 384.285 425.284 381.196C422.55 376.678 422.295 376.13 419.857 369.535C418.852 366.819 417.81 364.067 417.541 363.42C416.504 360.932 408.555 338.198 407.754 335.429C407.454 334.394 406.364 331.112 405.331 328.137C402.921 321.194 400.707 314.375 400.692 313.846C400.681 313.425 413.036 313.623 445.75 314.568ZM25.297 317.322C31.374 317.844 42.5681 318.836 50.1717 319.528L63.9978 320.785L63.8379 328.107L63.6785 335.429L36.4916 335.551L9.30463 335.673V325.761V315.848L11.7762 316.111C13.1352 316.256 19.2199 316.801 25.297 317.322ZM78.2193 322.043C81.7318 322.312 84.7832 322.682 84.9995 322.865C85.2158 323.048 85.4711 325.949 85.5671 329.313L85.741 335.429H76.0182C70.671 335.429 66.2955 335.27 66.2955 335.076C66.2955 334.882 66.2955 331.626 66.2955 327.841V320.959L69.0642 321.256C70.5866 321.419 74.7063 321.774 78.2193 322.043ZM322.145 329.678C324.511 336.972 325.893 340.603 326.363 340.761C326.621 340.848 326.713 341.075 326.567 341.266C326.298 341.618 327.319 345.143 329.917 352.835C330.704 355.164 331.442 357.368 331.558 357.733C331.712 358.221 329.921 358.793 324.79 359.892C301.341 364.915 303.566 364.543 302.692 363.583C302.256 363.106 301.055 361.55 300.021 360.127C298.988 358.704 297.561 356.798 296.849 355.893C293.392 351.495 285.942 339.648 283.389 334.488C282.09 331.863 280.243 325.99 280.619 325.684C280.711 325.61 289.809 325.608 300.838 325.679L320.89 325.808L322.145 329.678ZM234.703 328.137C235.092 329.301 236.629 333.535 238.118 337.546C239.606 341.556 241.702 347.272 242.775 350.247C243.847 353.223 245.397 357.457 246.218 359.656C248.046 364.553 248.051 364.659 246.427 364.979C245.707 365.121 241.717 365.974 237.559 366.875C233.401 367.776 224.896 369.597 218.659 370.922C212.422 372.247 206.833 373.451 206.24 373.598C204.997 373.905 204.957 374.274 207.402 362.949C209.185 354.688 210.449 350.429 216.056 333.782C216.797 331.583 217.697 328.878 218.057 327.77L218.713 325.758L226.354 325.889L233.995 326.02L234.703 328.137ZM274.753 328.019C275.613 332.832 277.529 337.01 282.465 344.837C288.886 355.019 292.369 360.028 297.019 365.772C299.356 368.659 300.517 371.083 303.555 379.415C304.262 381.355 305.862 385.613 307.11 388.877C308.358 392.14 309.379 394.947 309.379 395.114C309.379 395.28 293.539 395.363 274.181 395.296L238.983 395.174L238.957 382.059C238.943 374.845 239.146 368.791 239.408 368.606C239.67 368.421 241.978 367.889 244.537 367.425C251.369 366.185 251.291 366.238 250.25 363.544C249.773 362.311 247.327 355.693 244.815 348.836C242.304 341.979 239.348 333.988 238.248 331.077L236.249 325.785H255.302H274.355L274.753 328.019ZM355.484 330.607C356.374 333.259 357.884 337.863 358.839 340.839C359.795 343.814 360.989 347.262 361.492 348.501C361.995 349.739 362.269 351.043 362.102 351.396C361.934 351.75 360.667 352.258 359.285 352.525C355.041 353.345 346.004 355.272 340.262 356.581C337.257 357.266 334.597 357.656 334.35 357.448C333.945 357.106 328.66 342.037 325.391 331.9C324.681 329.701 323.911 327.426 323.679 326.843L323.257 325.785L338.562 325.785L353.867 325.786L355.484 330.607ZM212.622 336.864C210.72 340.872 205.624 359.047 203.925 367.877L202.661 374.451L198.593 375.285C196.356 375.743 192.082 376.665 189.097 377.335C186.112 378.004 183.609 378.481 183.535 378.395C183.306 378.128 182.11 374.645 180.896 370.712C179.579 366.444 175.769 354.867 173.66 348.724L172.25 344.613L174.664 344.114C178.795 343.259 199.216 338.803 206.737 337.115C211.893 335.958 213.075 335.908 212.622 336.864ZM86.3097 341.553C86.5307 343.758 87.0605 347.041 87.4868 348.851C87.9124 350.66 88.0386 352.252 87.7665 352.388C87.1564 352.692 66.3641 352.341 65.9663 352.02C65.8087 351.892 65.8587 348.584 66.0768 344.667L66.4746 337.546H76.1909H85.9079L86.3097 341.553ZM171.097 348.63C171.688 350.425 172.933 354.117 173.863 356.834C178.702 370.967 180.986 378.557 180.509 378.917C180.033 379.275 161.746 383.391 159.088 383.737C158.111 383.865 157.827 383.355 156.942 379.885C155.088 372.613 154.567 365.515 155.244 356.758C155.584 352.344 155.989 348.568 156.142 348.368C156.295 348.167 158.844 347.527 161.806 346.944C164.769 346.362 167.585 345.709 168.065 345.494C169.561 344.823 169.989 345.266 171.097 348.63ZM409.447 358.981C416.088 377.396 417.263 380.182 420.238 384.561C422.259 387.535 422.283 387.632 421.378 389.168C420.042 391.434 420.237 394.226 421.989 397.935L423.524 401.186L420.971 403.126C419.567 404.194 416.324 406.544 413.765 408.35C411.206 410.156 407.366 412.981 405.23 414.628C401.054 417.848 397.431 420.028 396.656 419.787C396.391 419.705 394.665 417.838 392.821 415.639C390.976 413.439 388.046 409.989 386.309 407.97C382.489 403.532 381.78 402.233 379.71 395.88C377.052 387.722 369.463 364.847 368.164 361.077C367.497 359.142 366.951 357.226 366.951 356.82C366.951 356.289 368.381 355.773 372.04 354.984C374.839 354.381 379.483 353.37 382.362 352.738C385.241 352.106 389.559 351.173 391.957 350.666C394.356 350.159 398.151 349.353 400.39 348.874C402.629 348.396 404.707 348.046 405.008 348.098C405.31 348.149 407.307 353.046 409.447 358.981ZM149.145 352.179C148.932 352.724 148.732 357.78 148.701 363.414L148.646 373.657L141.927 374.622C138.231 375.153 126.965 376.766 116.889 378.207C106.814 379.648 98.2022 380.938 97.7515 381.075C97.0566 381.287 96.9897 379.983 97.3136 372.49C97.5235 367.631 97.6963 362.042 97.6968 360.07L97.6986 356.485L101.915 356.163C111.109 355.461 138.781 352.514 143.64 351.719C145.079 351.484 146.995 351.268 147.895 351.24C149.307 351.195 149.48 351.325 149.145 352.179ZM365.005 359.191C365.374 360.352 367.401 366.446 369.512 372.732C371.622 379.018 373.348 384.422 373.348 384.741C373.348 385.458 346.356 391.872 345.383 391.385C345.176 391.282 344.83 390.31 344.616 389.227C344.402 388.143 343.34 384.805 342.254 381.807C341.17 378.809 339.893 375.087 339.417 373.534C338.94 371.982 337.954 368.971 337.226 366.844C336.498 364.717 336.019 362.897 336.161 362.8C336.693 362.437 362.624 356.932 363.462 357.004C363.977 357.049 364.609 357.946 365.005 359.191ZM334.894 367.301C335.572 369.436 336.665 372.77 337.324 374.71C337.982 376.651 339.014 379.72 339.616 381.532C340.218 383.343 341.241 386.41 341.887 388.347C342.534 390.285 342.877 392.021 342.65 392.205C342.422 392.388 340.731 392.867 338.892 393.268C335.339 394.044 332.911 394.599 323.627 396.755C320.428 397.498 317.637 398.027 317.424 397.931C317.027 397.751 315.912 395.062 313.162 387.647C310.17 379.583 307.55 372.587 307.011 371.23C306.714 370.479 306.471 369.728 306.471 369.56C306.471 369.157 309.358 368.348 314.031 367.441C316.11 367.037 321.082 365.984 325.08 365.101C329.079 364.218 332.645 363.478 333.005 363.457C333.366 363.437 334.216 365.166 334.894 367.301ZM236.232 382.005C236.322 388.864 236.308 394.686 236.202 394.942C236.08 395.237 230.103 395.41 220.064 395.41H204.12L204.196 389.176C204.238 385.748 204.434 381.379 204.633 379.468L204.993 375.993L213.425 374.137C229.794 370.536 234.08 369.635 235.069 369.585C235.986 369.54 236.081 370.56 236.232 382.005ZM150.367 378.78C151.781 384.247 151.73 384.374 147.856 385.012C138.152 386.611 120.547 389.289 119.726 389.292C118.994 389.293 118.563 388.326 117.808 384.988C117.273 382.62 117.043 380.534 117.298 380.354C117.553 380.173 123.519 379.225 130.556 378.248C137.592 377.27 144.658 376.212 146.257 375.897C147.856 375.581 149.248 375.376 149.349 375.44C149.45 375.505 149.909 377.007 150.367 378.78ZM202.016 384.472C201.861 388.806 201.606 393.04 201.448 393.881L201.16 395.41H180.948H160.737L159.564 390.7L158.392 385.991L160.757 385.5C162.058 385.23 164.455 384.707 166.086 384.337C167.716 383.967 172.95 382.837 177.717 381.827C182.483 380.816 189 379.408 192.199 378.697C198.246 377.354 201.224 376.722 201.9 376.64C202.117 376.614 202.17 380.138 202.016 384.472ZM115.674 386.589C116.374 389.759 117.292 393.692 117.715 395.33C118.6 398.758 118.93 398.518 112.819 398.894C110.42 399.041 105.903 399.445 102.781 399.79C99.6595 400.135 97.0426 400.368 96.9659 400.306C96.8891 400.245 96.9025 396.313 96.9955 391.569C97.163 383.058 97.1822 382.942 98.4494 382.854C99.1559 382.804 102.351 382.349 105.549 381.841C115.134 380.321 114.193 379.88 115.674 386.589ZM153.507 391.902C154.32 395.14 154.658 397.503 154.344 397.754C153.456 398.463 135.59 401.453 133.594 401.227C132.562 401.11 129.317 400.577 126.381 400.043L121.043 399.073L120.275 395.712C119.852 393.864 119.506 392.165 119.506 391.935C119.506 391.56 148.054 386.645 150.944 386.522C152.016 386.476 152.287 387.047 153.507 391.902ZM375.67 391.293C376.397 393.428 377.635 397.08 378.422 399.408C379.889 403.754 381.389 405.856 390.941 416.963C392.791 419.114 394.164 421.059 393.992 421.285C393.82 421.51 392.965 421.992 392.091 422.355C372.931 430.326 361.516 434.927 360.9 434.927C360.395 434.927 359.168 432.056 357.331 426.576C355.792 421.984 353.914 416.427 353.157 414.227C351.511 409.443 348.705 401.018 347.393 396.922C346.872 395.295 346.597 393.842 346.782 393.693C347.198 393.356 372.118 387.522 373.413 387.458C374.106 387.424 374.693 388.422 375.67 391.293ZM435.883 389.059C437.128 389.684 441.388 397.743 441.388 399.472C441.388 401.018 439.364 402.716 436.446 403.617C434.257 404.293 433.472 404.343 432.123 403.891C430.453 403.331 427.891 401.31 428.366 400.926C428.508 400.811 427.816 399.084 426.828 397.087C424.326 392.032 424.914 390.343 429.757 388.682C431.9 387.947 433.915 388.07 435.883 389.059ZM345.933 400.232C348.557 407.977 350.084 412.501 353.273 421.989C354.753 426.388 356.44 431.306 357.024 432.918C357.797 435.052 357.907 435.956 357.43 436.246C356.473 436.827 339.161 443.314 335.844 444.334C334.511 444.744 334.472 444.654 325.058 419.167C324.485 417.614 322.685 412.791 321.058 408.449C319.433 404.106 318.102 400.48 318.102 400.391C318.102 400.054 321.543 399.153 329.151 397.496C333.469 396.556 338.049 395.507 339.328 395.165C343.89 393.946 343.772 393.855 345.933 400.232ZM200.912 403.76C200.743 405.506 200.207 411.487 199.721 417.05C199.235 422.613 198.652 428.646 198.426 430.457L198.014 433.75H183.185H168.357L167.929 430.693C167.694 429.011 166.981 425.2 166.345 422.225C165.421 417.905 162.393 402.969 162.164 401.603C162.135 401.431 162.142 401.132 162.181 400.937C162.219 400.743 171.018 400.584 181.735 400.584H201.221L200.912 403.76ZM236.15 417.285L236.184 433.75H218.262C206.638 433.75 200.374 433.585 200.436 433.28C200.953 430.754 203.517 404.546 203.533 401.635L203.539 400.57L219.828 400.695L236.117 400.82L236.15 417.285ZM270.997 417.285V433.986H255.022H239.048L238.885 420.696C238.795 413.386 238.799 405.871 238.893 403.995L239.064 400.584H255.031H270.997V417.285ZM313.97 407.288C315.335 410.975 317.754 417.379 319.345 421.519C320.937 425.659 322.872 430.74 323.646 432.81C324.419 434.879 325.843 438.682 326.811 441.259C327.778 443.836 328.569 446.164 328.569 446.433C328.569 446.703 327.194 447.388 325.516 447.958C323.837 448.527 319.585 449.976 316.067 451.179C312.548 452.382 304.828 454.795 298.911 456.541C292.994 458.289 284.944 460.982 281.022 462.528C277.101 464.073 273.764 465.234 273.608 465.108C273.169 464.753 273.272 401.254 273.711 400.898C273.924 400.726 282.511 400.584 292.793 400.584H311.487L313.97 407.288ZM429.176 407.171C431.627 408.182 435.55 408.406 437.328 407.636C438.659 407.061 439.378 407.622 444.487 413.223C448.938 418.104 455.58 424.826 457.77 426.666C458.675 427.426 459.416 428.198 459.416 428.38C459.416 428.562 457.518 429.88 455.2 431.309C451.103 433.833 450.811 433.929 444.877 434.687C441.519 435.116 435.902 435.875 432.395 436.373C428.888 436.871 425.724 437.279 425.363 437.279C425.003 437.279 424.389 436.379 423.998 435.279C423.609 434.18 422.681 431.692 421.938 429.752C421.194 427.811 420.018 424.709 419.325 422.857C418.57 420.843 417.206 418.6 415.927 417.273L413.791 415.054L417.536 412.406C419.597 410.95 422.339 408.97 423.63 408.006C424.921 407.042 426.184 406.248 426.437 406.241C426.689 406.235 427.922 406.653 429.176 407.171ZM413.904 418.344C414.833 419.314 415.889 420.743 416.25 421.519C417.699 424.63 422.284 437.365 422.03 437.571C421.88 437.692 417.081 438.412 411.365 439.172C405.648 439.931 399.925 440.792 398.645 441.086C395.567 441.791 376.227 448.273 367.081 451.665C365.393 452.291 363.742 452.803 363.412 452.803C363.082 452.803 362.999 453.048 363.226 453.347C363.475 453.672 363.387 453.762 363.006 453.571C362.655 453.396 356.831 455.177 350.062 457.527C343.292 459.878 337.684 461.735 337.597 461.654C337.099 461.184 335.55 450.271 335.944 450.001C336.206 449.822 341.262 447.916 347.179 445.768C361.932 440.41 386.601 430.57 395.737 426.397C401.069 423.962 404.497 422.011 407.368 419.777C409.607 418.035 411.613 416.602 411.826 416.594C412.039 416.586 412.974 417.373 413.904 418.344ZM161.303 428.693C161.466 429.146 161.77 430.702 161.98 432.15L162.362 434.784L154.309 435.633C149.881 436.1 146.126 436.456 145.966 436.426C145.696 436.374 145.469 435.6 144.613 431.81C144.241 430.167 143.506 430.386 155.271 428.633C161.125 427.759 160.968 427.758 161.303 428.693ZM464.497 433.168C468.192 436.971 472.21 441.736 472.21 442.315C472.21 442.564 471.883 442.781 471.483 442.797C471.083 442.814 466.438 444.25 461.161 445.988C443.438 451.827 439.962 452.93 433.55 454.752C430.039 455.75 426.882 456.567 426.535 456.567C426.187 456.567 425.313 454.502 424.593 451.98C423.872 449.457 422.806 445.75 422.224 443.743C421.641 441.735 421.332 440.011 421.536 439.912C421.74 439.812 428.711 438.828 437.027 437.725L452.147 435.719L455.636 433.573C457.555 432.393 459.471 431.156 459.893 430.825C461.112 429.869 461.469 430.05 464.497 433.168ZM197.484 437.161C197.091 438.695 195.623 455.878 195.073 465.387L194.685 472.091H186.009C179.561 472.091 177.282 471.94 177.135 471.503C177.026 471.18 176.5 469.704 175.966 468.224C175.002 465.554 169.228 438.639 169.228 436.818C169.228 435.89 169.569 435.867 183.522 435.867H197.816L197.484 437.161ZM236.105 453.979V472.091H216.623H197.142L197.145 470.327C197.149 466.98 198.853 445.969 199.528 440.925L200.205 435.867H218.155H236.105V453.979ZM270.997 451.099C270.997 462.723 270.825 466.441 270.27 466.796C269.871 467.051 268.366 467.794 266.926 468.446C265.487 469.098 263.095 470.19 261.611 470.873C258.948 472.098 258.784 472.112 248.953 471.985L238.994 471.856L238.99 454.215C238.987 444.512 238.992 436.415 238.999 436.22C239.006 436.026 246.209 435.867 255.005 435.867H270.997V451.099ZM163.574 440.689C164.06 442.824 164.288 444.719 164.081 444.899C163.494 445.411 148.049 447.616 147.626 447.249C147.171 446.854 145.865 439.086 146.207 438.809C146.556 438.526 158.713 436.904 160.87 436.852L162.689 436.808L163.574 440.689ZM418.968 441.16C419.561 443.381 423.552 457.038 425.12 462.21C426.022 465.184 426.714 467.647 426.659 467.684C426.464 467.814 404.452 473.616 403.923 473.677C403.251 473.753 402.829 471.956 401.228 462.212C400.24 456.195 399.447 453.295 397.7 449.313C396.461 446.488 395.447 444.124 395.447 444.058C395.447 443.564 412.389 440.633 417.97 440.162C418.364 440.129 418.813 440.578 418.968 441.16ZM476.362 448.1C480.158 454.221 482.419 463.573 481.285 468.463C480.932 469.986 480.674 470.162 478.154 470.612C476.644 470.882 472.922 471.546 469.884 472.088C465.378 472.892 448.242 478.097 438.19 481.715C437.23 482.06 435.006 482.813 433.247 483.387C431.488 483.962 427.562 485.269 424.524 486.293C421.485 487.316 417.56 488.636 415.801 489.225C411.423 490.692 406.071 492.489 391.085 497.527C375.196 502.868 372.771 503.652 371.313 503.914C370.309 504.094 369.96 503.621 368.759 500.456C367.994 498.439 366.481 494.583 365.396 491.887C364.143 488.773 363.641 486.876 364.019 486.687C364.347 486.523 379.075 482.508 396.75 477.764C414.424 473.02 428.979 469.075 429.093 468.996C429.207 468.918 428.75 466.77 428.075 464.223C427.401 461.676 426.85 459.357 426.85 459.069C426.85 458.781 429.402 457.875 432.52 457.055C438.196 455.562 446.359 453.088 451.274 451.371C459.947 448.342 472.625 444.373 473.337 444.465C473.797 444.524 475.158 446.16 476.362 448.1ZM395.596 450.098C396.795 453.009 397.9 456.343 398.051 457.508C398.201 458.672 398.907 462.952 399.617 467.019C400.328 471.087 400.793 474.499 400.65 474.603C399.825 475.199 363.164 484.736 362.823 484.443C362.596 484.247 361.588 481.918 360.585 479.265C359.581 476.613 358.606 474.443 358.418 474.443C357.846 474.443 344.696 476.774 342.556 477.255C341.453 477.503 340.48 477.649 340.393 477.579C340.175 477.402 337.85 463.946 338.024 463.865C338.102 463.828 339.866 463.205 341.945 462.478C344.024 461.752 346.51 460.883 347.47 460.548C348.429 460.213 353.925 458.321 359.682 456.344C370.907 452.489 377.072 450.337 380.327 449.136C382.777 448.231 392.709 444.901 393.123 444.845C393.285 444.824 394.398 447.188 395.596 450.098ZM331.408 460.213C332.137 464.546 333.106 470.192 333.559 472.758C334.013 475.325 334.319 477.468 334.239 477.521C334.159 477.574 330.823 477.963 326.825 478.385C322.827 478.807 316.023 479.55 311.705 480.036C307.387 480.521 303.696 480.844 303.503 480.753C303.309 480.663 302.973 479.365 302.756 477.869C302.538 476.373 301.77 472.168 301.049 468.524L299.738 461.898L314.299 457.146C322.308 454.533 329.135 452.381 329.47 452.364C329.825 452.346 330.638 455.639 331.408 460.213ZM298.3 466.796C298.67 469.062 299.37 472.82 299.855 475.149C300.955 480.429 302.462 495.734 301.925 496.177C301.496 496.532 299.102 497.084 286.117 499.821C281.48 500.798 272.888 502.619 267.027 503.866C259.564 505.454 256.247 505.976 255.964 505.606C255.742 505.316 254.145 500.418 252.417 494.722C249.848 486.265 249.08 484.341 248.224 484.227C246.483 483.996 270.386 472.288 281.465 467.946C288.71 465.106 296.779 462.336 297.251 462.526C297.458 462.61 297.93 464.531 298.3 466.796ZM480.254 478.677C479.928 481.912 479.438 484.747 479.166 484.978C478.895 485.21 476.297 485.76 473.394 486.201C468.119 487.003 468.117 487.003 467.869 486.016C466.002 478.572 465.306 475.197 465.566 474.856C465.74 474.629 466.455 474.433 467.156 474.421C467.856 474.408 471.047 473.907 474.245 473.306C477.444 472.705 480.238 472.345 480.454 472.505C480.671 472.666 480.581 475.443 480.254 478.677ZM254.105 474.326C254.09 474.52 252.615 475.42 250.829 476.325C247.853 477.834 243.315 480.266 217.786 494.035C212.989 496.622 206.012 500.353 202.283 502.325L195.502 505.911L191.531 499.627C189.346 496.172 187.414 493.417 187.238 493.505C187.06 493.594 186.877 493.31 186.831 492.876C186.783 492.441 185.421 489.605 183.802 486.573C182.183 483.542 180.859 480.779 180.859 480.434C180.859 480.089 180.632 479.605 180.354 479.36C179.591 478.683 178.006 474.556 178.389 474.245C178.895 473.837 254.137 473.917 254.105 474.326ZM463.169 476.727C463.601 477.827 465.316 485.182 465.434 486.438C465.533 487.488 465.455 487.505 449.881 489.811L441.218 491.094L441.602 504.762C441.812 512.279 442.147 523.658 442.345 530.048L442.706 541.667L438.122 540.327C430.931 538.226 430.325 538.004 430.059 537.372C429.922 537.044 428.736 529.473 427.424 520.546C426.112 511.62 424.456 500.97 423.744 496.88C422.867 491.844 422.643 489.326 423.051 489.079C423.381 488.878 425.614 488.066 428.013 487.275C435.618 484.763 449.023 480.246 455.345 478.064C462.434 475.617 462.714 475.569 463.169 476.727ZM358.834 481.153C359.759 483.561 360.19 485.391 359.868 485.551C359.565 485.703 355.604 486.839 351.067 488.077C345.398 489.624 342.704 490.161 342.455 489.795C341.902 488.983 340.655 480.164 341.025 479.681C341.203 479.447 342.464 479.12 343.828 478.954C345.191 478.786 348.269 478.246 350.668 477.752C357.108 476.426 356.998 476.38 358.834 481.153ZM336.648 490.96C337.7 497.198 338.342 502.454 338.073 502.639C337.803 502.825 334.182 503.349 330.024 503.803C325.865 504.257 318.722 505.06 314.149 505.587C309.576 506.114 305.744 506.467 305.634 506.372C305.246 506.036 303.561 483.296 303.891 482.863C304.075 482.622 304.404 482.507 304.621 482.606C304.839 482.705 310.905 482.097 318.102 481.255C325.298 480.413 331.984 479.7 332.96 479.671L334.734 479.618L336.648 490.96ZM248.906 491.262C249.954 494.82 252.495 503.234 254.552 509.962C258.474 522.789 260.587 529.926 262.044 535.275C263.238 539.654 263.323 539.78 266.771 542.368C269.143 544.148 270.132 544.602 271.26 544.428C272.056 544.305 272.569 544.385 272.399 544.607C272.23 544.828 272.762 545.009 273.58 545.009C274.398 545.009 275.068 545.222 275.068 545.481C275.068 545.741 275.836 550.134 276.774 555.243C277.712 560.352 278.663 567.655 278.888 571.471C279.272 578.01 279.363 578.41 280.469 578.41C281.613 578.41 281.634 578.224 281.251 571.368C281.035 567.495 280.21 560.773 279.418 556.432C278.626 552.09 277.977 547.967 277.977 547.269L277.976 546.001L281.174 547.361C282.933 548.11 284.373 548.613 284.373 548.479C284.373 548.041 286.361 549.832 286.47 550.368C286.528 550.655 287.121 553.218 287.786 556.065C288.656 559.783 289.091 564.054 289.333 571.24C289.518 576.74 289.513 581.445 289.322 581.696C288.554 582.701 278.049 578.858 271.87 575.311C267.978 573.077 254.803 562.45 246.55 554.889C243.585 552.172 239.406 548.361 237.265 546.421C235.123 544.48 232.491 542.046 231.415 541.011C230.34 539.976 228.404 538.172 227.113 537.004C225.822 535.835 223.326 533.517 221.566 531.853C218.473 528.926 217.483 528.002 210.442 521.468C208.642 519.797 205.271 516.638 202.952 514.448L198.735 510.465L200.538 509.341C201.53 508.722 205.685 506.524 209.773 504.455C213.86 502.387 221.13 498.504 225.928 495.828C241.867 486.935 245.695 484.875 246.35 484.834C246.716 484.811 247.831 487.615 248.906 491.262ZM479.188 487.518C479.188 488.89 477.282 499.1 476.667 501.021L475.915 503.371L469.556 504.441C460.444 505.974 452.724 507.284 448.367 508.034C446.288 508.393 444.519 508.635 444.436 508.574C444.353 508.513 444.115 504.814 443.906 500.353C443.587 493.509 443.656 492.266 444.348 492.381C445.257 492.533 451.42 491.639 467.558 489.016C473.475 488.054 478.512 487.239 478.752 487.206C478.992 487.173 479.188 487.313 479.188 487.518ZM364.436 495.849C366.131 500.247 367.522 504.2 367.526 504.632C367.53 505.129 366.875 505.535 365.74 505.736C364.754 505.911 359.999 507.082 355.172 508.339C350.345 509.595 346.197 510.522 345.952 510.4C345.708 510.278 345.521 509.812 345.536 509.364C345.551 508.917 345.126 506.116 344.592 503.14C344.057 500.165 343.486 496.46 343.321 494.908L343.021 492.085L351.352 489.877C355.933 488.663 360.058 487.711 360.517 487.761C361.061 487.82 362.428 490.642 364.436 495.849ZM420.829 493.767C422.028 499.826 424.072 514.482 423.754 514.74C423.586 514.875 418.522 515.583 412.501 516.313C406.48 517.042 395.991 518.31 389.193 519.131C382.396 519.952 376.544 520.546 376.191 520.45C375.838 520.355 374.703 517.639 373.669 514.414C372.635 511.189 371.612 508.109 371.397 507.569C370.917 506.371 371.488 506.117 383.525 502.17C388.323 500.597 393.033 499.03 393.993 498.689C394.952 498.348 399.009 496.966 403.007 495.619C407.005 494.272 412.239 492.473 414.637 491.623C417.036 490.772 419.255 490.121 419.568 490.175C419.882 490.23 420.449 491.847 420.829 493.767ZM302.612 500.619C302.816 501.819 302.982 503.696 302.982 504.791C302.982 506.724 302.921 506.789 300.801 507.072C299.602 507.233 297.946 507.366 297.122 507.369C296.271 507.372 295.017 507.898 294.215 508.588C292.846 509.766 292.797 510.067 292.514 518.993L292.223 528.184L289.897 528.321C288.618 528.397 284.419 528.594 280.565 528.759L273.56 529.06L272.809 525.391C271.591 519.444 269.859 512.051 268.972 509.021C268.518 507.469 268.341 506.041 268.58 505.849C269.015 505.497 275.303 504.039 280.447 503.097C281.967 502.819 283.21 502.404 283.21 502.175C283.21 501.946 283.537 501.847 283.937 501.954C284.337 502.062 288.327 501.34 292.805 500.35C297.283 499.36 301.238 498.524 301.594 498.493C301.951 498.462 302.409 499.418 302.612 500.619ZM186.019 502.154C186.956 503.681 188.413 505.885 189.259 507.052C190.248 508.417 190.576 509.285 190.18 509.483C189.841 509.652 189.738 510.021 189.953 510.302C190.171 510.588 190.076 510.679 189.734 510.508C189.399 510.34 187.853 511.392 186.3 512.844C181.771 517.08 176.679 521.177 174.171 522.606C165.051 527.798 154.072 533.475 141.314 539.596C136.037 542.127 130.11 544.995 128.143 545.969C126.176 546.942 124.075 547.864 123.475 548.019C122.29 548.323 122.751 549.244 109.625 520.372C108.463 517.819 107.635 515.473 107.784 515.16C108.029 514.643 110.966 514.135 127.708 511.716C132.797 510.981 133.441 510.992 144.282 512.018C150.486 512.605 160.011 513.499 165.448 514.005C178.711 515.238 179.114 515.3 179.114 516.098C179.114 516.475 179.632 516.783 180.266 516.783C181.625 516.783 181.699 516.542 182.589 509.256C183.482 501.941 183.879 499.377 184.116 499.377C184.226 499.377 185.082 500.626 186.019 502.154ZM339.241 506.551C339.625 508.31 346.109 545.89 348.405 559.662L349.083 563.729L346.745 567.659C345.459 569.821 343.427 573.283 342.229 575.353C341.031 577.423 338.881 581.102 337.451 583.529C335.389 587.028 335.014 588.024 335.636 588.343C336.067 588.565 336.616 588.749 336.857 588.753C337.097 588.757 337.293 588.985 337.293 589.258C337.293 589.532 337.097 589.66 336.857 589.541C336.616 589.423 332.233 588.761 327.116 588.071C321.998 587.38 315.925 586.512 313.619 586.141C311.314 585.77 309.315 585.467 309.179 585.467C309.042 585.467 308.75 584.461 308.531 583.232C308.312 582.004 308.001 580.551 307.841 580.005C307.589 579.148 307.881 578.969 309.979 578.698C313.249 578.275 315.431 577.301 316.934 575.593C318.303 574.038 318.387 574.965 316.008 565.473C315.49 563.403 314.822 560.546 314.524 559.122C314.227 557.699 313.716 555.723 313.39 554.73C313.063 553.737 312.427 551.302 311.977 549.319C311.526 547.337 310.239 542.116 309.115 537.717C307.168 530.097 306.769 526.851 305.674 509.726C305.601 508.576 305.748 508.533 312.577 507.746C316.415 507.303 322.958 506.534 327.116 506.038C331.274 505.541 335.628 505.109 336.792 505.078C338.743 505.026 338.934 505.141 339.241 506.551ZM474.536 506.359C474.536 507.148 468.505 522.289 468.041 522.664C467.933 522.752 465.62 522.288 462.903 521.634C459.54 520.824 455.826 520.347 451.274 520.142L444.587 519.841L444.42 515.254C444.329 512.732 444.329 510.66 444.42 510.652C444.512 510.644 451.129 509.506 459.125 508.123C467.121 506.74 473.86 505.583 474.1 505.551C474.34 505.519 474.536 505.882 474.536 506.359ZM267.143 511.255C267.674 513.908 269.524 522.109 271.254 529.481C272.984 536.853 274.353 542.914 274.298 542.95C274.242 542.986 273.398 542.917 272.422 542.797C271.447 542.676 269.538 541.772 268.179 540.788L265.709 538.998L262.848 529.419C260.346 521.049 259.383 517.87 257.022 510.197C256.744 509.292 256.7 508.407 256.923 508.231C257.445 507.821 263.343 506.532 264.953 506.476C266.064 506.437 266.269 506.884 267.143 511.255ZM369.775 510.002C370.075 511.015 370.997 513.854 371.824 516.313C372.651 518.771 373.708 522.475 374.172 524.545C374.636 526.615 376.08 532.219 377.381 536.999L379.745 545.69V556.895V568.1L375.238 567.963L370.731 567.826L370.581 565.944C369.886 557.223 365.14 538.259 359.944 523.442C357.735 517.143 355.857 511.639 355.769 511.211C355.647 510.605 357.035 510.052 362.008 508.727C369.001 506.863 368.836 506.836 369.775 510.002ZM303.201 510.55C303.377 511.52 303.684 515.278 303.883 518.9C304.083 522.522 304.346 526.203 304.469 527.081L304.694 528.675L301.136 528.375C299.179 528.209 296.941 528.073 296.163 528.073H294.748L294.94 519.441C295.079 513.147 295.341 510.606 295.903 510.058C296.328 509.645 297.767 509.226 299.102 509.128C300.437 509.03 301.832 508.913 302.204 508.868C302.575 508.823 303.024 509.58 303.201 510.55ZM356.01 519.37C362.117 536.562 367.063 555.065 367.862 563.709L368.264 568.061H360.629C356.43 568.061 352.994 567.962 352.994 567.84C352.994 567.718 353.511 566.875 354.142 565.965C354.774 565.056 355.172 564.044 355.027 563.716C354.883 563.389 354.235 559.946 353.589 556.065C351.59 544.064 351.276 542.203 349.813 533.719C346.922 516.957 346.483 514.083 346.683 513.25C346.883 512.42 350.6 511.141 352.355 511.3C352.888 511.347 354.149 514.132 356.01 519.37ZM424.525 517.136C424.525 517.33 425.044 520.876 425.677 525.016C427.621 537.724 427.57 537.156 426.734 536.897C420.238 534.885 420.598 534.912 410.865 535.738C405.817 536.167 401.46 536.405 401.184 536.267C400.907 536.128 400.681 532.345 400.681 527.859V519.703L405.478 519.149C408.117 518.845 413.285 518.21 416.964 517.737C420.642 517.265 423.847 516.857 424.087 516.831C424.328 516.805 424.524 516.941 424.525 517.136ZM398.354 531.311V542.546L393.266 542.854C390.468 543.023 386.714 543.267 384.925 543.396L381.673 543.63L379.779 536.675C377.821 529.486 376.258 523.349 376.256 522.846C376.256 522.687 377.629 522.418 379.309 522.247C380.988 522.076 385.502 521.538 389.341 521.05C393.179 520.562 396.777 520.144 397.337 520.12C398.279 520.079 398.354 520.908 398.354 531.311ZM461.451 523.364C463.69 523.913 465.839 524.446 466.226 524.549C466.726 524.682 466.411 525.872 465.145 528.64C464.163 530.786 462.222 535.295 460.833 538.658L458.307 544.774L456.099 544.649C451.184 544.371 448.781 543.957 446.919 543.068L444.962 542.134L444.766 532.399C444.657 527.044 444.677 522.475 444.808 522.244C445.231 521.504 457.127 522.305 461.451 523.364ZM301.475 530.359L304.91 530.661L307.748 541.951C309.308 548.161 311.095 555.359 311.719 557.946C312.343 560.534 313.379 564.768 314.022 567.355C315.454 573.122 315.477 574.295 314.177 575.244C313.106 576.026 307.799 577.289 307.296 576.882C307.134 576.752 306.201 573.286 305.222 569.181C303.673 562.691 302.976 560.88 299.868 555.292L296.294 548.867L292.6 548.542C289.901 548.305 287.287 547.581 282.911 545.859L276.916 543.502L275.696 538.258C273.846 530.308 273.139 531.109 282.483 530.572C292.187 530.015 296.947 529.961 301.475 530.359ZM426.268 538.839C432.046 540.598 436.461 541.928 440.516 543.134C442.115 543.609 444.12 544.213 444.972 544.476L446.52 544.955L444.228 549.334C442.968 551.742 441.694 554.179 441.397 554.749L440.856 555.786L436.906 554.653C434.734 554.03 427.199 551.91 420.162 549.941C413.125 547.973 405.864 545.923 404.024 545.388L400.681 544.413V541.639C400.681 539.843 400.939 538.784 401.412 538.637C402.622 538.261 416.497 537.173 418.999 537.256C420.278 537.3 423.55 538.012 426.268 538.839ZM398.354 556.3V568.061H390.213H382.071V556.81V545.56L386.287 545.28C393.687 544.79 395.122 544.699 396.755 544.618L398.354 544.539V556.3ZM454.361 546.502C455.899 546.555 457.261 546.734 457.386 546.899C457.513 547.064 457.263 548.452 456.832 549.985C455.464 554.854 454.638 563.667 454.259 577.423L453.891 590.784L450.402 590.937C439.775 591.402 401.865 592.076 385.27 592.096C371.565 592.112 363.502 591.902 357.065 591.361C348.822 590.668 340.672 589.785 340.424 589.558C340.369 589.507 342.936 585.02 346.128 579.587L351.932 569.707L394.031 569.834L436.129 569.96L437.078 568.187C438.225 566.044 443.307 556.295 446.406 550.294C448.503 546.233 448.758 545.95 450.111 546.168C450.911 546.298 452.824 546.447 454.361 546.502ZM421.471 552.365C431.466 555.173 439.644 557.617 439.644 557.796C439.644 557.974 439.391 558.611 439.083 559.21C438.775 559.808 437.662 561.992 436.612 564.062L434.701 567.826L417.691 567.95L400.681 568.075V557.428V546.781L401.989 547.02C402.708 547.151 411.476 549.556 421.471 552.365ZM294.628 550.816C294.67 550.857 295.545 552.372 296.57 554.183C297.596 555.994 299.04 558.534 299.779 559.828C300.517 561.122 301.695 564.615 302.395 567.59C303.095 570.566 304.298 575.629 305.069 578.842C305.839 582.055 306.339 584.79 306.18 584.919C306.02 585.047 302.816 584.635 299.057 584.003L292.223 582.853L291.815 571.977C291.515 563.992 291.089 559.825 290.215 556.298C288.58 549.7 288.496 550.014 291.787 550.41C293.307 550.593 294.585 550.775 294.628 550.816Z" fill="#40C1FF"/>
</g>
<defs>
<clipPath id="clip0_98_252">
<rect width="470" height="610" rx="25" fill="white"/>
</clipPath>
</defs>
</svg>
