<svg width="470" height="610" viewBox="0 0 470 610" fill="none" xmlns="http://www.w3.org/2000/svg">
<g clip-path="url(#clip0_98_254)">
<rect width="470" height="610" rx="25" fill="white"/>
<path d="M53.2838 72.12V60.28C53.2838 59.6 53.5638 59.26 54.1238 59.26C54.6838 59.26 54.9638 59.6 54.9638 60.28V70.44H58.2238V60.28C58.2238 59.6 58.5038 59.26 59.0638 59.26C59.6238 59.26 59.9038 59.6 59.9038 60.28V70.44H63.1638V60.28C63.1638 59.6 63.4438 59.26 64.0038 59.26C64.5638 59.26 64.8438 59.6 64.8438 60.28V72.12H53.2838ZM76.7504 72.26C76.5837 72.26 76.4471 72.21 76.3404 72.11C76.2337 72.0167 76.1537 71.8133 76.1004 71.5C76.0537 71.1867 76.0304 70.7067 76.0304 70.06L76.2504 70.58C75.8304 71.16 75.3037 71.5633 74.6704 71.79C74.0437 72.01 73.3037 72.12 72.4504 72.12H70.5904C69.8637 72.12 69.2704 71.88 68.8104 71.4C68.3571 70.9133 68.1304 70.18 68.1304 69.2C68.1304 68.5867 68.2304 68.07 68.4304 67.65C68.6304 67.2233 68.9404 66.88 69.3604 66.62C69.7804 66.3533 70.3171 66.16 70.9704 66.04C71.6237 65.92 72.4037 65.86 73.3104 65.86H76.6904L75.9304 66.54V65.06C75.9304 64.7667 75.8804 64.5733 75.7804 64.48C75.6871 64.3867 75.4771 64.34 75.1504 64.34H72.3304C71.6571 64.34 71.1404 64.3567 70.7804 64.39C70.4271 64.4233 70.1804 64.49 70.0404 64.59C69.9004 64.6833 69.8237 64.82 69.8104 65C69.7837 65.3467 69.7204 65.6033 69.6204 65.77C69.5204 65.9367 69.3037 66.02 68.9704 66.02C68.4104 66.02 68.1304 65.66 68.1304 64.94C68.1304 64.1467 68.4604 63.57 69.1204 63.21C69.7804 62.8433 70.8037 62.66 72.1904 62.66H75.2904C76.1437 62.66 76.7437 62.8633 77.0904 63.27C77.4371 63.6767 77.6104 64.38 77.6104 65.38V71.3C77.6104 71.94 77.3237 72.26 76.7504 72.26ZM70.6504 70.52H72.4504C73.7104 70.52 74.6037 70.2667 75.1304 69.76C75.6637 69.2467 75.9304 68.44 75.9304 67.34L76.0504 67.46H73.3104C72.4304 67.46 71.7337 67.5033 71.2204 67.59C70.7137 67.67 70.3504 67.83 70.1304 68.07C69.9171 68.31 69.8104 68.6667 69.8104 69.14C69.8104 69.5667 69.8837 69.9033 70.0304 70.15C70.1837 70.3967 70.3904 70.52 70.6504 70.52ZM88.6454 64.34H83.3054C82.9854 64.34 82.7754 64.3933 82.6754 64.5C82.5754 64.6 82.5254 64.82 82.5254 65.16V71.3C82.5254 71.94 82.2454 72.26 81.6854 72.26C81.1254 72.26 80.8454 71.94 80.8454 71.3V65.38C80.8454 64.38 81.0187 63.6767 81.3654 63.27C81.7121 62.8633 82.3121 62.66 83.1654 62.66H88.6454C89.3254 62.66 89.6654 62.94 89.6654 63.5C89.6654 64.06 89.3254 64.34 88.6454 64.34ZM102.525 72C101.358 72 100.455 71.7567 99.8151 71.27C99.1817 70.7767 98.7984 70.02 98.6651 69C98.6384 68.72 98.6984 68.5033 98.8451 68.35C98.9917 68.1967 99.2051 68.12 99.4851 68.12C99.9984 68.12 100.285 68.4 100.345 68.96C100.438 69.48 100.648 69.8367 100.975 70.03C101.302 70.2233 101.818 70.32 102.525 70.32H104.805C105.665 70.32 106.248 70.1667 106.555 69.86C106.868 69.5467 107.025 68.9667 107.025 68.12C107.025 67.28 106.868 66.7033 106.555 66.39C106.248 66.0767 105.665 65.92 104.805 65.92H103.265C102.705 65.92 102.425 65.64 102.425 65.08C102.425 64.52 102.705 64.24 103.265 64.24H105.565C105.985 64.24 106.278 64.0533 106.445 63.68C106.618 63.3 106.705 62.7867 106.705 62.14C106.705 61.3467 106.562 60.8133 106.275 60.54C105.995 60.26 105.465 60.12 104.685 60.12H102.745C102.118 60.12 101.655 60.2033 101.355 60.37C101.055 60.5367 100.865 60.8467 100.785 61.3C100.705 61.8467 100.412 62.12 99.9051 62.12C99.6251 62.12 99.4117 62.0467 99.2651 61.9C99.1184 61.7467 99.0651 61.5267 99.1051 61.24C99.2384 60.3 99.6051 59.6 100.205 59.14C100.812 58.6733 101.658 58.44 102.745 58.44H104.685C105.938 58.44 106.868 58.7433 107.475 59.35C108.082 59.9567 108.385 60.8867 108.385 62.14C108.385 63.3733 108.038 64.2467 107.345 64.76C107.805 65.06 108.145 65.4867 108.365 66.04C108.592 66.5933 108.705 67.2867 108.705 68.12C108.705 69.44 108.388 70.4167 107.755 71.05C107.122 71.6833 106.138 72 104.805 72H102.525Z" fill="white"/>
<path fill-rule="evenodd" clip-rule="evenodd" d="M43.9815 318.519C43.9159 330.354 43.8743 344.644 43.8886 350.274L43.9146 360.51L42.4908 360.916C41.7075 361.139 39.1126 361.78 36.7244 362.34C31.2788 363.618 17.7923 366.858 9.80257 368.808C6.45906 369.623 2.89322 370.489 1.87801 370.732L0.0325667 371.172V373.06V374.948L2.52935 375.95C3.90236 376.501 5.85679 377.249 6.87157 377.611C7.88678 377.973 8.71701 378.326 8.71701 378.396C8.71701 378.504 5.27537 381.628 3.44295 383.183C3.11945 383.457 2.21801 384.269 1.43945 384.986L0.0238822 386.291L0.13678 404.704L0.249678 423.116L14.7653 410.236C22.7489 403.152 29.4051 397.356 29.5566 397.356C29.7082 397.356 31.1876 400.25 32.8441 403.787C34.5007 407.325 35.9671 410.097 36.103 409.95C36.2389 409.801 36.997 407.479 37.7878 404.789C41.4548 392.317 42.6237 388.425 43.1925 386.792C43.7501 385.191 43.8096 386.178 43.8473 397.651L43.889 410.27L34.7452 418.414C27.0746 425.245 25.4133 426.546 24.4324 426.487C23.4315 426.426 23.4141 426.441 24.3108 426.59C25.2344 426.743 23.8653 428.109 12.6789 438.193L0 449.622L0.125056 453.604L0.249678 457.585L14.579 444.855C22.4602 437.854 32.281 429.101 36.4026 425.406L43.8968 418.687L43.8621 423.982L43.8274 429.277L38.8395 430.444C36.096 431.086 33.8329 431.783 33.8103 431.992C33.7873 432.201 35.8398 433.165 38.3718 434.133C40.9033 435.101 43.0792 435.994 43.2073 436.115C43.6016 436.49 6.19114 469.827 5.68918 469.548C5.43212 469.405 5.27537 469.477 5.34093 469.708C5.4065 469.939 4.23627 471.236 2.74081 472.589L0.0208427 475.051L0.135477 488.412L0.249678 501.772L16.5486 487.176C25.5132 479.148 33.7808 471.852 34.921 470.962C36.0613 470.073 36.8998 469.346 36.7843 469.346C36.6688 469.346 37.1247 468.861 37.7982 468.27C38.4712 467.678 40.11 466.238 41.4396 465.07L43.8569 462.946L43.8725 472.772L43.8886 482.598L40.5238 485.576C38.6727 487.214 28.8054 496.069 18.5956 505.254L0.0325667 521.954V528.218V534.481L8.17424 527.181C12.6519 523.166 18.0493 518.37 20.1679 516.524L24.0199 513.166L32.9774 513.08L41.935 512.995L33.3248 512.787L24.7146 512.579L34.1933 504.078L43.6719 495.578L43.7891 504.05C43.8795 510.567 43.7792 512.596 43.3549 512.838C42.9133 513.091 42.9159 513.155 43.3693 513.16C43.7865 513.164 43.9103 513.853 43.8404 515.79L43.7462 518.415L22.4853 537.407C10.7917 547.852 1.03953 556.35 0.813298 556.291C0.587069 556.232 0.517593 556.352 0.658715 556.558C0.799838 556.763 0.716467 557.042 0.473737 557.177C0.181939 557.34 0.0325667 566.295 0.0325667 583.614V609.804H4.48117H8.93022L26.4094 594.059L43.889 578.312V584.773V591.234L39.4309 595.237C36.9788 597.439 34.7317 599.241 34.4373 599.241C34.1429 599.241 33.9019 599.463 33.9019 599.735C33.9019 600.007 31.6565 602.252 28.9127 604.724C26.1684 607.195 23.9213 609.349 23.9191 609.511C23.9165 609.673 28.8484 609.797 34.8789 609.788L45.843 609.772L68.8568 589.196L91.8706 568.621L92.0877 575.617L92.3048 582.613L77.4201 596.111L62.5354 609.609L71.9771 609.714L81.4193 609.82L86.7394 605.038L92.0595 600.256L92.1967 605.128L92.3343 610L92.4255 604.914L92.5171 599.828L116.293 578.653C130.97 565.583 140.191 557.647 140.388 557.917C140.579 558.179 140.71 558.032 140.714 557.553C140.718 557.017 148.554 549.729 164.277 535.635C177.233 524.022 188.167 514.289 188.574 514.005C189.268 513.522 189.316 514.414 189.343 528.413L189.372 543.336L165.155 565.013C143.969 583.978 140.903 586.583 140.655 585.825C140.385 584.995 140.371 585 140.323 585.938C140.252 587.326 140.141 587.448 133.311 593.647C129.335 597.255 126.829 599.241 126.248 599.241C125.615 599.241 125.485 599.363 125.809 599.655C126.133 599.947 124.907 601.307 121.662 604.253C119.128 606.553 116.787 608.743 116.459 609.12C115.893 609.77 117.288 609.804 144.467 609.804H173.07L181.212 602.482L189.354 595.159L189.448 602.58C189.529 608.909 189.563 609.242 189.678 604.843C189.795 600.354 189.909 599.662 190.56 599.508C191.257 599.344 191.256 599.328 190.548 599.286C189.916 599.248 189.788 598.853 189.788 596.948V594.655L212.823 574.059C225.492 562.732 235.946 553.464 236.054 553.464C236.161 553.464 236.25 554.091 236.25 554.857C236.25 555.857 236.097 556.171 235.707 555.973C235.273 555.752 235.273 555.802 235.707 556.224C236.121 556.626 236.25 560.193 236.25 571.251V585.751L228.755 592.496C224.632 596.205 221.006 599.241 220.696 599.241C220.386 599.241 220.233 599.389 220.357 599.569C220.481 599.75 218.106 602.083 215.079 604.753L209.576 609.609L219.313 609.714L229.05 609.82L232.631 606.61L236.212 603.4L236.359 606.7L236.507 610L236.595 606.462L236.684 602.925L238.546 601.278C239.57 600.373 240.791 599.629 241.26 599.626C241.846 599.622 241.943 599.524 241.57 599.31C241.053 599.014 245.298 595.137 276.307 567.575L284.448 560.338V571.266V582.193L275.221 590.531C270.146 595.117 265.556 598.971 265.02 599.097C264.484 599.222 264.167 599.5 264.315 599.716C264.463 599.932 262.168 602.29 259.216 604.956L253.849 609.804H261.497H269.145L274.264 605.14C277.079 602.575 279.839 600.257 280.396 599.988C280.953 599.72 281.409 599.34 281.409 599.144C281.409 598.774 283.782 596.502 284.169 596.502C284.29 596.502 284.406 599.439 284.426 603.029C284.445 606.618 284.556 609.641 284.672 609.745C284.788 609.849 284.882 606.77 284.882 602.902V595.869L306.65 576.329C318.622 565.583 329.244 556.042 330.254 555.127C331.264 554.212 332.2 553.464 332.335 553.464C332.47 553.464 332.602 562.567 332.629 573.692C332.655 584.818 332.768 594.003 332.879 594.103C332.99 594.203 333.081 584.913 333.081 573.458V552.631L355.053 532.996C367.138 522.197 377.385 513.306 377.826 513.239C378.266 513.172 378.534 512.899 378.42 512.634C378.307 512.367 378.709 511.732 379.313 511.22L380.411 510.29V511.5C380.411 512.165 380.167 512.798 379.869 512.907C379.434 513.064 379.434 513.11 379.869 513.135C380.295 513.159 380.411 517.29 380.411 532.402C380.411 542.982 380.503 551.556 380.615 551.455C380.727 551.355 380.836 541.95 380.859 530.556L380.901 509.84L403.307 489.788C415.631 478.76 425.986 469.737 426.319 469.737C426.652 469.737 426.821 469.586 426.695 469.402C426.569 469.218 426.948 468.66 427.538 468.161L428.61 467.253V488.963V510.672L427.395 511.721C426.726 512.298 425.666 512.808 425.038 512.855C424.41 512.902 423.986 513.071 424.096 513.231C424.206 513.392 424.631 513.42 425.042 513.294C425.452 513.169 414.961 522.728 401.728 534.537C388.495 546.346 377.489 555.959 377.271 555.9C377.052 555.841 376.976 555.943 377.102 556.126C377.228 556.31 366.544 566.159 353.361 578.014C333.139 596.196 329.22 599.55 328.305 599.458C327.708 599.398 327.561 599.425 327.979 599.517C328.397 599.61 328.739 599.744 328.739 599.815C328.739 599.885 326.394 602.018 323.528 604.555C320.662 607.091 318.318 609.31 318.318 609.486C318.318 609.661 333.316 609.804 351.646 609.804H384.975L406.793 590.151L428.61 570.497V580.292V590.086L423.209 594.897C420.239 597.543 417.603 599.594 417.352 599.454C417.094 599.311 416.991 599.422 417.114 599.711C417.238 600.002 415.182 602.153 412.332 604.713C409.583 607.183 407.333 609.34 407.333 609.505C407.333 609.669 410.745 609.804 414.915 609.804H422.497L425.305 607.261C426.85 605.863 428.217 604.718 428.342 604.718C428.468 604.718 428.639 605.906 428.722 607.359L428.874 610L428.959 607.016L429.044 604.031L431.702 601.666C433.438 600.121 434.604 599.371 435.067 599.504C435.57 599.647 435.618 599.604 435.235 599.354C434.849 599.102 437.664 596.336 445.125 589.633C450.862 584.481 455.788 580.265 456.072 580.265C456.355 580.265 456.983 581.189 457.468 582.319C457.952 583.449 458.474 584.373 458.627 584.373C458.781 584.373 459.532 582.305 460.296 579.776C461.06 577.248 462.371 572.921 463.209 570.162C464.047 567.403 464.66 565.08 464.57 564.999C464.418 564.862 461.794 565.463 448.244 568.738C442.53 570.118 442.331 570.33 445.646 571.497C446.643 571.849 447.517 572.294 447.588 572.486C447.659 572.679 443.516 576.619 438.381 581.242L429.044 589.648V580.005V570.361L452.818 549.026L476.592 527.691L476.703 560.128L476.813 592.564L467.475 600.858C462.34 605.419 458.137 609.298 458.137 609.478C458.137 609.657 464.257 609.804 471.737 609.804C485.286 609.804 485.34 609.801 486.231 608.924C486.723 608.44 494.772 601.18 504.118 592.791L521.111 577.538L520.997 565.329L520.882 553.121L499.064 572.668L477.246 592.216L477.248 559.636L477.25 527.057L484.949 520.111L492.649 513.166L500.035 513.078L507.421 512.991L500.274 512.873L493.128 512.754L498.314 508.069C501.166 505.492 503.728 503.384 504.007 503.384C504.286 503.384 504.704 503.868 504.936 504.46C505.94 507.017 514.289 524.121 514.533 524.12C514.682 524.12 515.846 520.555 517.119 516.197C518.393 511.84 519.81 507.182 520.267 505.846C521.055 503.545 521.099 501.885 521.099 474.469V445.522L519.037 446.053C516.898 446.605 497.247 451.323 485.493 454.108C481.791 454.985 478.421 455.791 478.003 455.899C477.288 456.084 477.243 455.21 477.243 441.397C477.243 433.313 477.407 426.699 477.607 426.699C477.808 426.699 478.221 427.183 478.526 427.775L479.079 428.851L479.494 427.873C479.722 427.335 480.579 424.564 481.399 421.714C482.219 418.865 483.38 415.008 483.979 413.145C484.579 411.28 484.992 409.685 484.897 409.6C484.803 409.515 483.156 409.806 481.237 410.247C479.319 410.688 477.637 411.049 477.5 411.049C477.363 411.049 477.25 385.492 477.249 354.255C477.248 323.017 477.148 297.371 477.028 297.263C476.907 297.154 476.809 322.779 476.809 354.207V411.349L475.832 411.595C475.295 411.729 472.51 412.378 469.644 413.036C466.778 413.694 464.258 414.388 464.044 414.577C463.817 414.777 464.725 415.348 466.214 415.941L468.773 416.96L450.429 433.384C440.339 442.416 431.401 450.347 430.566 451.008L429.047 452.209L429.046 374.834C429.046 332.277 428.948 297.369 428.828 297.261C428.629 297.082 428.59 317.763 428.606 417.912L428.611 452.749L419.263 461.145C414.122 465.763 403.525 475.307 395.715 482.355C387.904 489.402 381.366 495.168 381.186 495.168C380.795 495.168 381.011 470.76 381.414 469.34C381.568 468.799 381.989 467.479 382.351 466.406C383.287 463.623 383.22 463.086 381.935 463.086H380.855L380.737 445.577L380.619 428.069L380.515 445.745L380.411 463.421L378.132 464.012C374.096 465.058 358.994 468.662 356.529 469.167C355.216 469.436 354.579 469.675 355.113 469.697C356.201 469.742 361.716 471.613 362.391 472.166C362.667 472.392 357.447 477.275 348.062 485.571L333.298 498.62L333.184 483.983C333.122 475.932 332.927 469.346 332.75 469.346C332.574 469.346 332.477 476.08 332.534 484.311L332.637 499.276L325.006 506.16C318.457 512.069 317.211 513.026 316.218 512.917C315.159 512.8 315.146 512.813 316.069 513.076C316.982 513.336 315.566 514.713 301.088 527.643L285.1 541.923L284.972 539.321C284.881 537.459 285.151 535.735 285.922 533.256C286.514 531.352 287.996 526.361 289.216 522.164C290.434 517.968 291.535 514.227 291.66 513.85C291.869 513.225 292.827 513.158 302.606 513.075L313.324 512.984L302.794 512.873C294.996 512.79 292.264 512.639 292.264 512.294C292.264 512.037 293.457 507.858 294.914 503.008C301.011 482.716 302.201 478.725 303.36 474.683C304.03 472.347 304.85 470.19 305.182 469.891C305.515 469.591 305.595 469.346 305.361 469.346C305.106 469.346 305.178 468.524 305.542 467.292C306.453 464.208 306.462 464.224 304.097 464.832C301.082 465.608 285.348 469.346 285.096 469.346C284.979 469.346 284.882 459.984 284.882 448.542C284.882 430.055 284.959 427.662 285.575 427.05C285.955 426.671 286.493 426.408 286.769 426.466C287.045 426.524 287.1 426.49 286.892 426.391C286.493 426.201 331.737 385.227 332.345 385.227C332.539 385.227 332.577 385.403 332.43 385.618C332.282 385.833 332.354 386.009 332.59 386.009C332.825 386.009 333.082 385.707 333.161 385.338C333.24 384.969 333.862 385.947 334.544 387.512C335.225 389.077 335.872 390.276 335.982 390.177C336.433 389.771 342.928 367.402 342.67 367.139C342.517 366.983 340.296 367.364 337.736 367.988L333.081 369.123V333.29C333.081 313.582 332.983 297.545 332.862 297.654C332.742 297.762 332.642 313.889 332.64 333.492L332.636 369.133L330.362 369.722C329.111 370.046 325.743 370.867 322.877 371.547C320.011 372.226 317.509 372.917 317.316 373.08C317.123 373.244 318.344 373.887 320.028 374.509C321.713 375.132 323.092 375.733 323.093 375.845C323.094 375.957 321.336 377.625 319.188 379.552C315.588 382.78 315.153 383.051 313.651 383L312.021 382.944L313.445 383.205L314.869 383.466L299.876 396.952L284.882 410.437V396.876V383.316L286.728 383.166L288.573 383.016L286.728 382.948L284.882 382.879V339.972C284.882 316.374 284.785 297.153 284.666 297.26C284.547 297.367 284.451 322.97 284.453 354.155L284.457 410.854L275.66 418.577C268.367 424.979 266.639 426.307 265.56 426.343C264.414 426.381 264.376 426.417 265.239 426.641C266.108 426.866 264.538 428.41 251.452 440.195L236.684 453.496V434.164C236.684 423.531 236.759 414.905 236.851 414.994C236.943 415.084 238.127 417.534 239.482 420.439C243.039 428.064 243.743 429.438 244.088 429.438C244.258 429.438 244.623 428.602 244.899 427.58C245.175 426.557 246.07 423.52 246.887 420.831C248.293 416.202 256.774 387.827 258.118 383.254C258.463 382.079 261.027 373.488 263.814 364.161C266.601 354.835 268.774 347.107 268.642 346.988C268.51 346.87 266.102 347.317 263.29 347.983C248.084 351.585 238.118 353.965 237.444 354.156C236.725 354.359 236.678 352.802 236.58 325.685L236.475 297L236.254 325.74L236.032 354.48L213.67 359.859C201.371 362.818 190.967 365.246 190.55 365.256C189.836 365.272 189.786 363.315 189.679 331.137L189.566 297L189.459 331.306C189.36 363.596 189.309 365.623 188.594 365.806C188.175 365.912 185.88 366.471 183.492 367.047C177.216 368.56 177.046 368.611 176.897 369.015C176.821 369.218 179.545 370.442 182.948 371.735L189.136 374.086L189.235 381.123L189.334 388.161L168.014 407.137C156.288 417.573 146.295 426.172 145.808 426.246C145.253 426.329 145.108 426.483 145.419 426.656C145.737 426.833 144.979 427.769 143.319 429.249C141.89 430.523 140.721 431.34 140.721 431.066C140.721 430.791 140.534 430.67 140.305 430.797C140.077 430.924 139.988 431.258 140.108 431.54C140.358 432.126 98.4087 469.602 97.6913 469.434C97.4395 469.375 97.337 469.476 97.4625 469.66C97.5884 469.843 96.5285 471.031 95.1069 472.298L92.5219 474.603V463.195V451.787L115.998 430.734C128.91 419.154 139.65 409.623 139.865 409.554C140.09 409.482 140.252 413.694 140.248 419.478C140.243 425.004 140.348 429.624 140.48 429.743C140.612 429.862 140.721 425.11 140.721 419.183C140.721 410.005 140.819 408.333 141.382 407.912C142.193 407.305 142.198 407.309 143.283 409.59C143.768 410.608 144.24 411.441 144.333 411.441C144.619 411.441 149.573 394.638 149.346 394.434C149.23 394.329 147.325 394.679 145.113 395.212C142.902 395.746 141.009 396.182 140.906 396.182C140.804 396.182 140.721 373.969 140.721 346.819C140.721 319.67 140.622 297.545 140.503 297.653C140.383 297.761 140.281 319.97 140.276 347.006C140.268 393.189 140.222 396.184 139.517 396.509C139.104 396.7 136.959 397.252 134.75 397.736C132.541 398.221 130.733 398.756 130.733 398.926C130.733 399.096 131.612 399.56 132.686 399.958C133.76 400.356 134.639 400.874 134.64 401.109C134.641 401.344 128.38 407.066 120.727 413.824C113.074 420.583 103.599 429.018 99.6718 432.568L92.531 439.024V411.049C92.5315 313.03 92.4998 297.085 92.3044 297.261C92.1845 297.369 92.086 329.402 92.0855 368.445L92.0838 439.432L75.1943 454.632C65.5363 463.323 58.1024 469.718 57.8323 469.568C57.5505 469.411 57.4528 469.523 57.5896 469.845C57.7325 470.18 55.3191 472.563 51.2304 476.125C47.606 479.283 44.5703 481.866 44.4839 481.866C44.3979 481.866 44.3328 477.5 44.3393 472.165L44.3515 462.464L51.4888 456.042L58.6257 449.62L60.1745 452.734C61.0265 454.446 62.076 456.544 62.5067 457.395L63.2901 458.943L64.172 456.222C64.657 454.725 65.4938 452.003 66.0309 450.174C66.5685 448.345 67.3518 445.704 67.7713 444.306C68.1907 442.907 68.9476 440.354 69.453 438.633C69.9584 436.911 70.9728 433.566 71.7062 431.199C73.4834 425.467 74.3367 422.312 74.1539 422.148C74.0718 422.073 71.0874 422.727 67.5224 423.601C63.9575 424.475 59.4776 425.521 57.567 425.926C55.6564 426.33 52.0415 427.197 49.5339 427.852C47.0263 428.507 44.8278 429.043 44.6489 429.045C44.47 429.046 44.3232 426.627 44.3232 423.67V418.292L58.5414 405.476C66.3618 398.428 72.8886 392.661 73.0453 392.661C73.2025 392.661 73.5625 393.233 73.8447 393.932L74.3584 395.204L74.7709 394.252C75.5056 392.558 77.8331 384.381 77.632 384.2C77.3593 383.954 66.8108 386.451 66.1195 386.926C65.6887 387.221 65.8937 387.443 66.9732 387.852L68.3935 388.39L56.6838 398.934C50.2439 404.733 44.8278 409.479 44.6489 409.481C44.47 409.483 44.3254 403.454 44.3285 396.084C44.3324 385.993 44.48 382.201 44.9259 380.728C49.0719 367.04 51.2808 359.283 51.0832 359.105C50.9503 358.985 49.3763 359.24 47.5851 359.67L44.3285 360.454L44.2147 328.727C44.1183 301.779 44.0831 300.241 43.9815 318.519ZM380.411 318.128C380.411 328.851 380.506 337.54 380.621 337.436C380.91 337.176 380.934 299.101 380.645 298.84C380.516 298.725 380.411 307.404 380.411 318.128ZM1.87801 330.946L0.0325667 331.345L0.0668702 338.43C0.0855418 342.327 0.173255 345.339 0.261836 345.124C0.350417 344.909 0.739481 343.72 1.12681 342.483C1.62399 340.895 2.04562 340.231 2.56017 340.227C3.15853 340.222 3.17894 340.158 2.67438 339.87C2.15548 339.574 2.24015 338.914 3.21715 335.638C4.41344 331.626 4.60927 330.418 4.04912 330.499C3.87022 330.525 2.89322 330.726 1.87801 330.946ZM380.5 359.893C380.548 371.782 380.645 380.102 380.715 378.38C381.016 370.99 381.034 338.276 380.737 338.277C380.558 338.277 380.451 348.005 380.5 359.893ZM194.946 376.263C197.243 377.142 199.311 378.024 199.54 378.222C200.013 378.632 195.589 382.879 194.687 382.879C194.381 382.879 194.13 383.106 194.13 383.383C194.13 383.66 193.153 384.754 191.959 385.814L189.788 387.741V385.505C189.788 383.995 189.964 383.26 190.331 383.24C190.765 383.215 190.765 383.169 190.331 383.012C189.604 382.747 189.553 374.663 190.278 374.663C190.547 374.663 192.648 375.383 194.946 376.263ZM380.411 383.075C380.411 383.398 380.607 383.662 380.846 383.662C381.084 383.662 381.28 383.398 381.28 383.075C381.28 382.752 381.084 382.488 380.846 382.488C380.607 382.488 380.411 382.752 380.411 383.075ZM1.2536 383.147C1.56711 383.26 1.94184 383.246 2.086 383.116C2.23017 382.986 1.97397 382.893 1.5163 382.91C1.01044 382.929 0.907525 383.022 1.2536 383.147ZM70.9194 383.164C71.8152 383.249 73.2807 383.249 74.176 383.164C75.0718 383.08 74.3389 383.011 72.5477 383.011C70.7565 383.011 70.024 383.08 70.9194 383.164ZM259.182 383.147C259.495 383.26 259.87 383.246 260.014 383.116C260.158 382.986 259.902 382.893 259.444 382.91C258.939 382.929 258.836 383.022 259.182 383.147ZM262.411 383.149C262.829 383.248 263.513 383.248 263.931 383.149C264.349 383.051 264.007 382.97 263.171 382.97C262.335 382.97 261.994 383.051 262.411 383.149ZM380.411 406.028C380.411 418.115 380.523 427.902 380.661 427.779C381.037 427.44 381.113 384.054 380.737 384.053C380.558 384.053 380.411 393.942 380.411 406.028ZM332.43 386.792C332.282 387.007 332.369 387.183 332.621 387.183C332.874 387.183 333.081 387.007 333.081 386.792C333.081 386.577 332.995 386.401 332.89 386.401C332.784 386.401 332.577 386.577 332.43 386.792ZM332.634 406.452C332.605 448.61 332.683 468.726 332.877 468.901C332.989 469.002 333.081 450.745 333.081 428.33C333.081 405.914 332.983 387.574 332.864 387.574C332.745 387.574 332.641 396.069 332.634 406.452ZM235.107 411.075C236.187 413.32 236.25 413.797 236.25 419.878V426.308L225.72 426.399L215.19 426.489L225.72 426.601L236.25 426.713V440.299V453.884L227.678 461.615C222.963 465.867 218.86 469.346 218.559 469.346C218.258 469.346 218.012 469.527 218.012 469.749C218.012 469.97 211.711 475.764 204.009 482.624L190.005 495.097L189.893 471.37L189.781 447.643L201.397 437.171C207.785 431.412 213.35 426.699 213.762 426.699C214.202 426.699 214.421 426.487 214.292 426.186C214.08 425.686 232.836 408.702 233.6 408.702C233.801 408.702 234.479 409.77 235.107 411.075ZM476.679 440.295L476.592 456.239L461.908 459.761C453.832 461.698 447.22 463.451 447.215 463.655C447.21 463.86 450.203 465.171 453.866 466.569C457.528 467.966 460.59 469.251 460.67 469.423C460.75 469.596 461.105 469.737 461.46 469.737C462.206 469.737 468.414 471.992 469.522 472.665C470.173 473.061 467.669 475.456 449.851 491.479C438.621 501.578 429.343 509.916 429.233 510.008C429.123 510.101 429.039 500.418 429.048 488.489L429.063 466.803L451.306 446.751C464.317 435.022 473.876 426.699 474.336 426.699C474.781 426.699 474.999 426.519 474.838 426.283C474.549 425.862 475.786 424.352 476.42 424.352C476.61 424.352 476.727 431.526 476.679 440.295ZM241.026 426.308C241.026 426.523 241.233 426.699 241.486 426.699C241.739 426.699 241.825 426.523 241.677 426.308C241.53 426.093 241.323 425.917 241.217 425.917C241.112 425.917 241.026 426.093 241.026 426.308ZM5.13468 426.6C8.06003 426.668 12.8473 426.668 15.7731 426.6C18.6985 426.533 16.305 426.477 10.4539 426.477C4.60276 426.477 2.20889 426.533 5.13468 426.6ZM36.426 426.575C36.7391 426.688 37.1138 426.674 37.258 426.544C37.4022 426.415 37.146 426.322 36.6883 426.339C36.1824 426.358 36.0795 426.451 36.426 426.575ZM39.004 426.584C39.5412 426.677 40.4209 426.677 40.958 426.584C41.4952 426.491 41.0557 426.415 39.981 426.415C38.9063 426.415 38.4669 426.491 39.004 426.584ZM46.8474 426.575C47.1605 426.688 47.5352 426.674 47.6793 426.544C47.8235 426.415 47.5673 426.322 47.1096 426.339C46.6038 426.358 46.5009 426.451 46.8474 426.575ZM79.6251 426.6C81.7267 426.672 85.0485 426.671 87.0069 426.599C88.9656 426.526 87.2461 426.468 83.1861 426.468C79.1262 426.469 77.5239 426.528 79.6251 426.6ZM96.3214 426.598C97.8142 426.674 100.257 426.674 101.749 426.598C103.242 426.521 102.021 426.459 99.0353 426.459C96.05 426.459 94.8289 426.521 96.3214 426.598ZM122.402 426.575C122.715 426.688 123.09 426.674 123.234 426.544C123.378 426.415 123.122 426.322 122.664 426.339C122.158 426.358 122.056 426.451 122.402 426.575ZM128.692 426.6C130.794 426.672 134.116 426.671 136.074 426.599C138.033 426.526 136.313 426.468 132.253 426.468C128.193 426.469 126.591 426.528 128.692 426.6ZM239.208 426.575C239.521 426.688 239.896 426.674 240.04 426.544C240.184 426.415 239.928 426.322 239.47 426.339C238.964 426.358 238.861 426.451 239.208 426.575ZM250.905 426.6C253.353 426.67 257.358 426.67 259.806 426.6C262.254 426.53 260.251 426.473 255.355 426.473C250.459 426.473 248.456 426.53 250.905 426.6ZM298.205 426.601C303.98 426.663 313.554 426.663 319.482 426.601C325.409 426.54 320.684 426.489 308.982 426.489C297.279 426.489 292.43 426.54 298.205 426.601ZM344.697 426.601C350.965 426.662 361.224 426.662 367.493 426.601C373.763 426.54 368.633 426.49 356.095 426.49C343.557 426.49 338.428 426.54 344.697 426.601ZM393.143 426.601C399.548 426.662 409.905 426.662 416.157 426.601C422.409 426.54 417.168 426.49 404.511 426.49C391.853 426.49 386.738 426.54 393.143 426.601ZM436.995 426.601C440.532 426.667 446.199 426.667 449.588 426.6C452.976 426.535 450.082 426.481 443.156 426.481C436.231 426.481 433.458 426.535 436.995 426.601ZM492.332 426.601C497.646 426.663 506.341 426.663 511.655 426.601C516.969 426.539 512.621 426.488 501.994 426.488C491.366 426.488 487.019 426.539 492.332 426.601ZM284.215 469.295C284.083 469.414 282.859 469.495 281.497 469.476C279.515 469.446 279.324 469.491 280.54 469.699L282.06 469.96L280.54 470.418C279.281 470.797 271.484 472.691 254.921 476.642C253.608 476.955 249.271 477.994 245.284 478.952C241.298 479.909 237.732 480.692 237.36 480.692C236.783 480.692 236.684 479.953 236.684 475.652V470.612L260.457 449.445L284.231 428.278L284.344 448.678C284.405 459.898 284.347 469.175 284.215 469.295ZM179.723 504.432C174.423 509.212 169.897 513.017 169.666 512.888C169.434 512.759 169.363 512.826 169.507 513.036C169.652 513.246 163.234 519.294 155.245 526.476L140.721 539.534V525.959C140.721 518.492 140.574 512.383 140.395 512.383C140.216 512.383 140.117 518.579 140.176 526.151L140.283 539.919L116.511 561.12L92.739 582.321L92.5219 575.424C92.3052 568.538 92.3065 568.526 93.3656 567.449C93.9492 566.856 94.5667 566.504 94.7378 566.666C94.9088 566.829 95.6796 568.327 96.4508 569.995C97.2219 571.663 97.984 573.027 98.1438 573.027C98.3036 573.027 98.7361 571.927 99.1043 570.582C99.473 569.237 101.288 563.062 103.137 556.86C104.987 550.658 106.394 545.488 106.263 545.371C106.133 545.253 103.089 545.881 99.4999 546.767C95.9106 547.653 92.8719 548.378 92.7477 548.378C92.6235 548.378 92.5219 545.342 92.5219 541.632V534.885L104.569 524.026C111.194 518.052 116.873 513.166 117.187 513.166C117.501 513.166 117.658 513.02 117.536 512.841C117.413 512.663 122.399 507.963 128.614 502.398C137.355 494.57 140.004 492.406 140.311 492.843C140.618 493.28 140.709 493.207 140.714 492.519C140.719 491.877 144.11 488.612 152.907 480.781C159.609 474.815 165.52 469.818 166.042 469.678C166.564 469.538 166.699 469.406 166.343 469.385C165.986 469.363 170.969 464.591 177.415 458.779L189.136 448.213L189.248 471.978L189.36 495.742L179.723 504.432ZM92.0738 463.79L92.0538 475.057L71.0566 493.965C59.508 504.363 49.883 512.773 49.6672 512.653C49.4518 512.533 48.9916 512.616 48.6446 512.837C48.1305 513.165 48.1544 513.199 48.774 513.019C49.1917 512.898 49.5339 512.942 49.5339 513.117C49.5339 513.691 47.8626 514.813 47.3949 514.553C47.1344 514.408 47.0341 514.522 47.1609 514.82C47.2829 515.107 46.6945 515.943 45.853 516.678L44.3232 518.014V506.496V494.978L67.8798 473.751C80.8361 462.077 91.5844 452.524 91.7651 452.523C91.9461 452.523 92.0851 457.592 92.0738 463.79ZM3.50635 469.499C3.50635 469.584 3.80943 469.758 4.18026 469.886C4.56672 470.02 4.74084 469.954 4.58886 469.733C4.33397 469.361 3.50635 469.182 3.50635 469.499ZM92.9561 469.499C92.9561 469.584 93.2592 469.758 93.6301 469.886C94.0165 470.02 94.1906 469.954 94.0387 469.733C93.7838 469.361 92.9561 469.182 92.9561 469.499ZM94.693 469.76C94.693 469.988 94.8884 470.066 95.1273 469.933C95.3661 469.799 95.5615 469.613 95.5615 469.518C95.5615 469.423 95.3661 469.346 95.1273 469.346C94.8884 469.346 94.693 469.532 94.693 469.76ZM271.747 469.622C272.284 469.715 273.164 469.715 273.701 469.622C274.238 469.528 273.799 469.452 272.724 469.452C271.65 469.452 271.21 469.528 271.747 469.622ZM276.089 469.605C276.388 469.713 276.877 469.713 277.175 469.605C277.474 469.496 277.229 469.407 276.632 469.407C276.035 469.407 275.791 469.496 276.089 469.605ZM406.899 469.499C406.899 469.584 407.202 469.758 407.573 469.886C407.959 470.02 408.133 469.954 407.981 469.733C407.727 469.361 406.899 469.182 406.899 469.499ZM236.091 480.891C235.988 481.134 234.761 481.562 233.365 481.844C229.563 482.611 226.696 483.426 226.704 483.739C226.708 483.892 228.854 484.81 231.473 485.778L236.235 487.539L236.242 494.391L236.25 501.242L229.84 507.009C226.314 510.18 223.176 512.774 222.866 512.774C222.557 512.774 222.401 512.917 222.521 513.092C222.641 513.267 215.325 520.088 206.263 528.251L189.788 543.092V528.017V512.941L212.91 492.127L236.032 471.311L236.155 475.881C236.223 478.394 236.194 480.649 236.091 480.891ZM380.425 485.002L380.463 496.114L370.993 504.611C363.135 511.66 361.338 513.087 360.437 512.994C359.84 512.932 359.694 512.958 360.111 513.051C360.529 513.144 360.871 513.307 360.871 513.413C360.871 513.519 354.667 519.125 347.085 525.871L333.298 538.137L333.07 528.292L332.841 518.448L332.742 528.62L332.644 538.793L308.763 560.309L284.882 581.824V570.827V559.83L308.608 538.618C325.789 523.257 332.435 517.549 332.701 517.926C332.972 518.311 333.07 518.242 333.076 517.665C333.087 516.695 372.283 481.254 372.94 481.62C373.187 481.758 373.929 483.111 374.59 484.628C375.344 486.359 375.908 487.196 376.106 486.876C376.279 486.595 377.252 483.503 378.268 480.004C379.284 476.506 380.176 473.698 380.251 473.766C380.326 473.833 380.404 478.889 380.425 485.002ZM246.353 491.613C246.596 491.819 240.079 498.014 236.884 500.613C236.774 500.703 236.684 497.858 236.684 494.293V487.809L241.352 489.57C243.919 490.539 246.169 491.458 246.353 491.613ZM140.471 501.819C140.471 506.446 140.533 508.339 140.61 506.025C140.687 503.712 140.687 499.927 140.61 497.613C140.533 495.3 140.471 497.193 140.471 501.819ZM140.355 511.209C140.355 511.747 140.454 511.968 140.574 511.698C140.695 511.43 140.695 510.99 140.574 510.72C140.454 510.452 140.355 510.671 140.355 511.209ZM1.6609 513.061C2.67568 513.143 4.33658 513.143 5.35179 513.061C6.36657 512.979 5.53633 512.911 3.50635 512.911C1.47636 512.911 0.645689 512.979 1.6609 513.061ZM45.0831 513.033C45.3819 513.142 45.8704 513.142 46.1687 513.033C46.4674 512.925 46.223 512.836 45.6259 512.836C45.0289 512.836 44.7848 512.925 45.0831 513.033ZM123.485 513.067C126.545 513.134 131.43 513.134 134.341 513.067C137.253 512.999 134.75 512.944 128.779 512.944C122.809 512.944 120.427 513 123.485 513.067ZM148.428 513.067C151.831 513.133 157.4 513.133 160.803 513.067C164.206 513.001 161.422 512.947 154.616 512.947C147.809 512.947 145.025 513.001 148.428 513.067ZM167.561 513.042C167.874 513.155 168.249 513.141 168.393 513.011C168.537 512.881 168.281 512.788 167.823 512.805C167.318 512.824 167.215 512.917 167.561 513.042ZM198.147 513.067C202.147 513.132 208.693 513.132 212.693 513.067C216.693 513.002 213.42 512.95 205.42 512.95C197.419 512.95 194.146 513.002 198.147 513.067ZM220.971 513.042C221.284 513.155 221.658 513.141 221.803 513.011C221.947 512.881 221.69 512.788 221.233 512.805C220.727 512.824 220.624 512.917 220.971 513.042ZM343.635 513.067C346.455 513.135 350.949 513.135 353.622 513.066C356.296 512.998 353.989 512.942 348.496 512.942C343.003 512.942 340.816 512.999 343.635 513.067ZM391.375 513.067C396.809 513.13 405.7 513.13 411.133 513.067C416.566 513.005 412.12 512.955 401.254 512.955C390.388 512.955 385.942 513.005 391.375 513.067ZM421.779 513.046C422.202 513.145 422.788 513.138 423.082 513.031C423.376 512.924 423.03 512.843 422.314 512.851C421.597 512.859 421.357 512.946 421.779 513.046ZM520.15 513.042C520.463 513.155 520.838 513.141 520.982 513.011C521.126 512.881 520.87 512.788 520.412 512.805C519.906 512.824 519.803 512.917 520.15 513.042ZM280.243 526.762C284.247 535.299 284.422 535.794 284.541 538.893L284.665 542.124L260.667 563.738L236.669 585.351L236.694 569.114L236.718 552.878L256.13 535.369C266.807 525.74 275.661 517.861 275.806 517.861C275.95 517.861 277.947 521.866 280.243 526.762ZM91.9522 542.02L91.8706 548.574L83.9682 550.53C79.622 551.606 75.9537 552.593 75.817 552.723C75.6802 552.853 77.0445 553.54 78.8487 554.249C80.6533 554.958 82.2461 555.708 82.3889 555.916C82.6408 556.283 45.3059 590.242 44.6506 590.242C44.4704 590.242 44.3232 587.459 44.3232 584.057V577.872L56.4502 567.039C63.1203 561.081 68.836 556.265 69.1512 556.336C69.4669 556.408 69.5555 556.385 69.3475 556.286C69.0639 556.151 91.5189 535.467 91.9492 535.467C91.9956 535.467 91.997 538.416 91.9522 542.02ZM380.411 552.486C380.411 552.809 380.488 553.073 380.582 553.073C380.676 553.073 380.865 552.809 381.003 552.486C381.14 552.163 381.063 551.899 380.832 551.899C380.601 551.899 380.411 552.163 380.411 552.486ZM79.4953 556.203C79.4953 556.418 79.7024 556.594 79.9551 556.594C80.2078 556.594 80.2942 556.418 80.1466 556.203C79.999 555.988 79.7923 555.812 79.6867 555.812C79.5812 555.812 79.4953 555.988 79.4953 556.203ZM141.862 556.122C141.745 556.292 142.031 556.458 142.497 556.49C142.963 556.521 143.231 556.382 143.093 556.179C142.785 555.731 142.151 555.701 141.862 556.122ZM144.006 556.245C144.119 556.41 144.59 556.519 145.053 556.488C146.083 556.418 145.794 556.078 144.64 556.001C144.178 555.97 143.893 556.08 144.006 556.245ZM290.749 556.209C290.899 556.428 291.203 556.506 291.426 556.382C292.028 556.047 291.916 555.812 291.153 555.812C290.781 555.812 290.599 555.991 290.749 556.209ZM515.454 556.226C515.454 556.454 515.65 556.532 515.889 556.399C516.128 556.266 516.323 556.079 516.323 555.984C516.323 555.889 516.128 555.812 515.889 555.812C515.65 555.812 515.454 555.999 515.454 556.226ZM140.481 571.658C140.481 578.974 140.54 581.912 140.612 578.186C140.683 574.46 140.683 568.474 140.611 564.883C140.54 561.293 140.481 564.341 140.481 571.658ZM332.49 595.133C332.627 595.455 332.817 595.719 332.91 595.719C333.004 595.719 333.081 595.455 333.081 595.133C333.081 594.81 332.892 594.546 332.66 594.546C332.429 594.546 332.352 594.81 332.49 595.133ZM31.8476 599.512C32.2701 599.611 32.8563 599.605 33.1503 599.497C33.4442 599.39 33.0986 599.309 32.3821 599.317C31.6657 599.325 31.4251 599.412 31.8476 599.512ZM60.7425 599.508C61.0556 599.621 61.4303 599.607 61.5745 599.477C61.7186 599.347 61.4624 599.255 61.0048 599.272C60.4989 599.29 60.396 599.383 60.7425 599.508ZM94.5897 599.517C95.1299 599.611 95.9115 599.607 96.3266 599.509C96.7417 599.412 96.2997 599.335 95.3444 599.339C94.3891 599.344 94.0495 599.424 94.5897 599.517ZM282.169 599.5C282.467 599.608 282.956 599.608 283.254 599.5C283.553 599.391 283.308 599.302 282.711 599.302C282.114 599.302 281.87 599.391 282.169 599.5ZM467.175 599.508C467.488 599.621 467.862 599.607 468.007 599.477C468.151 599.347 467.895 599.255 467.437 599.272C466.931 599.29 466.828 599.383 467.175 599.508Z" fill="#40C1FF" fill-opacity="0.2"/>
</g>
<defs>
<clipPath id="clip0_98_254">
<rect width="470" height="610" rx="25" fill="white"/>
</clipPath>
</defs>
</svg>
