<svg width="470" height="610" fill="none" xmlns="http://www.w3.org/2000/svg"><g clip-path="url(#a)"><rect width="470" height="610" rx="25" fill="#fff"/><path d="M53.284 72.12V60.28c0-.68.28-1.02.84-1.02.56 0 .84.34.84 1.02v10.16h3.26V60.28c0-.68.28-1.02.84-1.02.56 0 .84.34.84 1.02v10.16h3.26V60.28c0-.68.28-1.02.84-1.02.56 0 .84.34.84 1.02v11.84h-11.56Zm23.466.14a.575.575 0 0 1-.41-.15c-.106-.093-.186-.297-.24-.61-.046-.313-.07-.793-.07-1.44l.22.52c-.42.58-.946.983-1.58 1.21-.626.22-1.366.33-2.22.33h-1.86c-.726 0-1.32-.24-1.78-.72-.453-.487-.68-1.22-.68-2.2 0-.613.1-1.13.3-1.55.2-.427.51-.77.93-1.03.42-.267.957-.46 1.61-.58.654-.12 1.434-.18 2.34-.18h3.38l-.76.68v-1.48c0-.293-.05-.487-.15-.58-.093-.093-.303-.14-.63-.14h-2.82c-.673 0-1.19.017-1.55.05-.353.033-.6.1-.74.2a.51.51 0 0 0-.23.41c-.026.347-.09.603-.19.77-.1.167-.316.25-.65.25-.56 0-.84-.36-.84-1.08 0-.793.33-1.37.99-1.73.66-.367 1.684-.55 3.07-.55h3.1c.854 0 1.454.203 1.8.61.347.407.52 1.11.52 2.11v5.92c0 .64-.286.96-.86.96Zm-6.1-1.74h1.8c1.26 0 2.154-.253 2.68-.76.534-.513.8-1.32.8-2.42l.12.12h-2.74c-.88 0-1.576.043-2.09.13-.506.08-.87.24-1.09.48-.213.24-.32.597-.32 1.07 0 .427.074.763.22 1.01.154.247.36.37.62.37Zm17.995-6.18h-5.34c-.32 0-.53.053-.63.16-.1.1-.15.32-.15.66v6.14c0 .64-.28.96-.84.96-.56 0-.84-.32-.84-.96v-5.92c0-1 .174-1.703.52-2.11.347-.407.947-.61 1.8-.61h5.48c.68 0 1.02.28 1.02.84 0 .56-.34.84-1.02.84Zm13.88 7.66c-1.167 0-2.07-.243-2.71-.73-.633-.493-1.017-1.25-1.15-2.27-.027-.28.033-.497.18-.65.147-.153.36-.23.64-.23.513 0 .8.28.86.84.093.52.303.877.63 1.07.327.193.843.29 1.55.29h2.28c.86 0 1.443-.153 1.75-.46.313-.313.47-.893.47-1.74 0-.84-.157-1.417-.47-1.73-.307-.313-.89-.47-1.75-.47h-1.54c-.56 0-.84-.28-.84-.84 0-.56.28-.84.84-.84h2.3c.42 0 .713-.187.88-.56.173-.38.26-.893.26-1.54 0-.793-.143-1.327-.43-1.6-.28-.28-.81-.42-1.59-.42h-1.94c-.627 0-1.09.083-1.39.25-.3.167-.49.477-.57.93-.08.547-.373.82-.88.82-.28 0-.493-.073-.64-.22-.147-.153-.2-.373-.16-.66.133-.94.5-1.64 1.1-2.1.607-.467 1.453-.7 2.54-.7h1.94c1.253 0 2.183.303 2.79.91.607.607.91 1.537.91 2.79 0 1.233-.347 2.107-1.04 2.62.46.3.8.727 1.02 1.28.227.553.34 1.247.34 2.08 0 1.32-.317 2.297-.95 2.93s-1.617.95-2.95.95h-2.28Z" fill="#fff"/><path fill-rule="evenodd" clip-rule="evenodd" d="M43.981 318.519c-.065 11.835-.107 26.125-.092 31.755l.026 10.236-1.424.406c-.783.223-3.378.864-5.767 1.424a4302.749 4302.749 0 0 0-26.921 6.468c-3.344.815-6.91 1.681-7.925 1.924l-1.845.44v3.776l2.496 1.002c1.373.551 3.328 1.299 4.343 1.661 1.015.362 1.845.715 1.845.785 0 .108-3.442 3.232-5.274 4.787a94.277 94.277 0 0 0-2.004 1.803l-1.415 1.305.113 18.413.113 18.412 14.515-12.88c7.984-7.084 14.64-12.88 14.792-12.88.151 0 1.63 2.894 3.287 6.431 1.657 3.538 3.123 6.31 3.259 6.163.136-.149.894-2.471 1.685-5.161 3.667-12.472 4.836-16.364 5.405-17.997.557-1.601.617-.614.654 10.859l.042 12.619-9.144 8.144c-7.67 6.831-9.332 8.132-10.313 8.073-1-.061-1.018-.046-.121.103.923.153-.446 1.519-11.632 11.603L0 449.622l.125 3.982.125 3.981 14.329-12.73a8428.356 8428.356 0 0 0 21.824-19.449l7.494-6.719-.035 5.295-.035 5.295-4.987 1.167c-2.744.642-5.007 1.339-5.03 1.548-.023.209 2.03 1.173 4.562 2.141 2.531.968 4.707 1.861 4.835 1.982.395.375-37.016 33.712-37.518 33.433-.257-.143-.414-.071-.348.16.066.231-1.105 1.528-2.6 2.881l-2.72 2.462.114 13.361.115 13.36 16.299-14.596c8.964-8.028 17.232-15.324 18.372-16.214 1.14-.889 1.979-1.616 1.863-1.616-.115 0 .34-.485 1.014-1.076l3.642-3.2 2.417-2.124.016 9.826.016 9.826-3.365 2.978c-1.851 1.638-11.719 10.493-21.928 19.678l-18.563 16.7V534.481l8.141-7.3c4.478-4.015 9.875-8.811 11.994-10.657l3.852-3.358 8.957-.086 8.958-.085-8.61-.208-8.61-.208 9.478-8.501 9.479-8.5.117 8.472c.09 6.517-.01 8.546-.434 8.788-.442.253-.44.317.014.322.417.004.541.693.471 2.63l-.094 2.625-21.26 18.992C10.791 547.852 1.04 556.35.812 556.291c-.226-.059-.295.061-.154.267.14.205.057.484-.185.619-.292.163-.441 9.118-.441 26.437v26.19H8.93l17.478-15.745 17.48-15.747v12.922l-4.458 4.003c-2.452 2.202-4.7 4.004-4.994 4.004-.294 0-.535.222-.535.494s-2.245 2.517-4.99 4.989c-2.744 2.471-4.99 4.625-4.993 4.787-.003.162 4.93.286 10.96.277l10.964-.016 23.014-20.576 23.014-20.575.217 6.996.217 6.996-14.885 13.498-14.885 13.498 9.442.105 9.442.106 5.32-4.782 5.32-4.782.138 4.872.137 4.872.091-5.086.092-5.086 23.776-21.175c14.677-13.07 23.898-21.006 24.095-20.736.191.262.322.115.326-.364.004-.536 7.84-7.824 23.563-21.918 12.956-11.613 23.89-21.346 24.297-21.63.694-.483.742.409.769 14.408l.029 14.923-24.217 21.677c-21.186 18.965-24.252 21.57-24.5 20.812-.27-.83-.284-.825-.332.113-.071 1.388-.182 1.51-7.012 7.709-3.976 3.608-6.482 5.594-7.063 5.594-.633 0-.763.122-.439.414s-.902 1.652-4.147 4.598c-2.534 2.3-4.875 4.49-5.203 4.867-.566.65.829.684 28.008.684h28.603l8.142-7.322 8.142-7.323.094 7.421c.081 6.329.115 6.662.23 2.263.117-4.489.231-5.181.882-5.335.697-.164.696-.18-.012-.222-.632-.038-.76-.433-.76-2.338v-2.293l23.035-20.596c12.669-11.327 23.123-20.595 23.231-20.595.107 0 .196.627.196 1.393 0 1-.153 1.314-.543 1.116-.434-.221-.434-.171 0 .251.414.402.543 3.969.543 15.027v14.5l-7.495 6.745c-4.123 3.709-7.749 6.745-8.059 6.745-.31 0-.463.148-.339.328.124.181-2.251 2.514-5.278 5.184l-5.503 4.856 9.737.105 9.737.106 3.581-3.21 3.581-3.21.147 3.3.148 3.3.088-3.538.089-3.537 1.862-1.647c1.024-.905 2.245-1.649 2.714-1.652.586-.004.683-.102.31-.316-.517-.296 3.728-4.173 34.737-31.735l8.141-7.237v21.855l-9.227 8.338c-5.075 4.586-9.665 8.44-10.201 8.566-.536.125-.853.403-.705.619.148.216-2.147 2.574-5.099 5.24l-5.367 4.848h15.296l5.119-4.664c2.815-2.565 5.575-4.883 6.132-5.152.557-.268 1.013-.648 1.013-.844 0-.37 2.373-2.642 2.76-2.642.121 0 .237 2.937.257 6.527.019 3.589.13 6.612.246 6.716.116.104.21-2.975.21-6.843v-7.033l21.768-19.54a25606.981 25606.981 0 0 0 23.604-21.202c1.01-.915 1.946-1.663 2.081-1.663s.267 9.103.294 20.228c.026 11.126.139 20.311.25 20.411.111.1.202-9.19.202-20.645v-20.827l21.972-19.635c12.085-10.799 22.332-19.69 22.773-19.757.44-.067.708-.34.594-.605-.113-.267.289-.902.893-1.414l1.098-.93v1.21c0 .665-.244 1.298-.542 1.407-.435.157-.435.203 0 .228.426.024.542 4.155.542 19.267 0 10.58.092 19.154.204 19.053.112-.1.221-9.505.244-20.899l.042-20.716 22.406-20.052c12.324-11.028 22.679-20.051 23.012-20.051.333 0 .502-.151.376-.335-.126-.184.253-.742.843-1.241l1.072-.908v43.419l-1.215 1.049c-.669.577-1.729 1.087-2.357 1.134-.628.047-1.052.216-.942.376.11.161.535.189.946.063.41-.125-10.081 9.434-23.314 21.243s-24.239 21.422-24.457 21.363c-.219-.059-.295.043-.169.226.126.184-10.558 10.033-23.741 21.888-20.222 18.182-24.141 21.536-25.056 21.444-.597-.06-.744-.033-.326.059.418.093.76.227.76.298 0 .07-2.345 2.203-5.211 4.74-2.866 2.536-5.21 4.755-5.21 4.931 0 .175 14.998.318 33.328.318h33.329l21.818-19.653 21.817-19.654v19.589l-5.401 4.811c-2.97 2.646-5.606 4.697-5.857 4.557-.258-.143-.361-.032-.238.257.124.291-1.932 2.442-4.782 5.002-2.749 2.47-4.999 4.627-4.999 4.792 0 .164 3.412.299 7.582.299h7.582l2.808-2.543c1.545-1.398 2.912-2.543 3.037-2.543.126 0 .297 1.188.38 2.641l.152 2.641.085-2.984.085-2.985 2.658-2.365c1.736-1.545 2.902-2.295 3.365-2.162.503.143.551.1.168-.15-.386-.252 2.429-3.018 9.89-9.721 5.737-5.152 10.663-9.368 10.947-9.368.283 0 .911.924 1.396 2.054.484 1.13 1.006 2.054 1.159 2.054.154 0 .905-2.068 1.669-4.597.764-2.528 2.075-6.855 2.913-9.614.838-2.759 1.451-5.082 1.361-5.163-.152-.137-2.776.464-16.326 3.739-5.714 1.38-5.913 1.592-2.598 2.759.997.352 1.871.797 1.942.989.071.193-4.072 4.133-9.207 8.756l-9.337 8.406v-19.287l23.774-21.335 23.774-21.335.111 32.437.11 32.436-9.338 8.294c-5.135 4.561-9.338 8.44-9.338 8.62 0 .179 6.12.326 13.6.326 13.549 0 13.603-.003 14.494-.88.492-.484 8.541-7.744 17.887-16.133l16.993-15.253-.114-12.209-.115-12.208-21.818 19.547-21.818 19.548.002-32.58.002-32.579 7.699-6.946 7.7-6.945 7.386-.088 7.386-.087-7.147-.118-7.146-.119 5.186-4.685c2.852-2.577 5.414-4.685 5.693-4.685.279 0 .697.484.929 1.076 1.004 2.557 9.353 19.661 9.597 19.66.149 0 1.313-3.565 2.586-7.923 1.274-4.357 2.691-9.015 3.148-10.351.788-2.301.832-3.961.832-31.377v-28.947l-2.062.531c-2.139.552-21.79 5.27-33.544 8.055-3.702.877-7.072 1.683-7.49 1.791-.715.185-.76-.689-.76-14.502 0-8.084.164-14.698.364-14.698.201 0 .614.484.919 1.076l.553 1.076.415-.978c.228-.538 1.085-3.309 1.905-6.159.82-2.849 1.981-6.706 2.58-8.569.6-1.865 1.013-3.46.918-3.545-.094-.085-1.741.206-3.66.647-1.918.441-3.6.802-3.737.802s-.25-25.557-.251-56.794c-.001-31.238-.101-56.884-.221-56.992-.121-.109-.219 25.516-.219 56.944v57.142l-.977.246c-.537.134-3.322.783-6.188 1.441-2.866.658-5.386 1.352-5.6 1.541-.227.2.681.771 2.17 1.364l2.559 1.019-18.344 16.424c-10.09 9.032-19.028 16.963-19.863 17.624l-1.519 1.201-.001-77.375c0-42.557-.098-77.465-.218-77.573-.199-.179-.238 20.502-.222 120.651l.005 34.837-9.348 8.396a17206.112 17206.112 0 0 0-23.548 21.21c-7.811 7.047-14.349 12.813-14.529 12.813-.391 0-.175-24.408.228-25.828a85.45 85.45 0 0 1 .937-2.934c.936-2.783.869-3.32-.416-3.32h-1.08l-.118-17.509-.118-17.508-.104 17.676-.104 17.676-2.279.591c-4.036 1.046-19.138 4.65-21.603 5.155-1.313.269-1.95.508-1.416.53 1.088.045 6.603 1.916 7.278 2.469.276.226-4.944 5.109-14.329 13.405l-14.764 13.049-.114-14.637c-.062-8.051-.257-14.637-.434-14.637-.176 0-.273 6.734-.216 14.965l.103 14.965-7.631 6.884c-6.549 5.909-7.795 6.866-8.788 6.757-1.059-.117-1.072-.104-.149.159.913.26-.503 1.637-14.981 14.567l-15.988 14.28-.128-2.602c-.091-1.862.179-3.586.95-6.065.592-1.904 2.074-6.895 3.294-11.092 1.218-4.196 2.319-7.937 2.444-8.314.209-.625 1.167-.692 10.946-.775l10.718-.091-10.53-.111c-7.798-.083-10.53-.234-10.53-.579 0-.257 1.193-4.436 2.65-9.286 6.097-20.292 7.287-24.283 8.446-28.325.67-2.336 1.49-4.493 1.822-4.792.333-.3.413-.545.179-.545-.255 0-.183-.822.181-2.054.911-3.084.92-3.068-1.445-2.46-3.015.776-18.749 4.514-19.001 4.514-.117 0-.214-9.362-.214-20.804 0-18.487.077-20.88.693-21.492.38-.379.918-.642 1.194-.584.276.058.331.024.123-.075-.399-.19 44.845-41.164 45.453-41.164.194 0 .232.176.085.391-.148.215-.076.391.16.391.235 0 .492-.302.571-.671.079-.369.701.609 1.383 2.174.681 1.565 1.328 2.764 1.438 2.665.451-.406 6.946-22.775 6.688-23.038-.153-.156-2.374.225-4.934.849l-4.655 1.135V333.29c0-19.708-.098-35.745-.219-35.636-.12.108-.22 16.235-.222 35.838l-.004 35.641-2.274.589a525.209 525.209 0 0 1-7.485 1.825c-2.866.679-5.368 1.37-5.561 1.533-.193.164 1.028.807 2.712 1.429 1.685.623 3.064 1.224 3.065 1.336.001.112-1.757 1.78-3.905 3.707-3.6 3.228-4.035 3.499-5.537 3.448l-1.63-.056 1.424.261 1.424.261-14.993 13.486-14.994 13.485V383.316l1.846-.15 1.845-.15-1.845-.068-1.846-.069v-42.907c0-23.598-.097-42.819-.216-42.712-.119.107-.215 25.71-.213 56.895l.004 56.699-8.797 7.723c-7.293 6.402-9.021 7.73-10.1 7.766-1.146.038-1.184.074-.321.298.869.225-.701 1.769-13.787 13.554l-14.768 13.301v-19.332c0-10.633.075-19.259.167-19.17.092.09 1.276 2.54 2.631 5.445 3.557 7.625 4.261 8.999 4.606 8.999.17 0 .535-.836.811-1.858.276-1.023 1.171-4.06 1.988-6.749 1.406-4.629 9.887-33.004 11.231-37.577.345-1.175 2.909-9.766 5.696-19.093 2.787-9.326 4.96-17.054 4.828-17.173-.132-.118-2.54.329-5.352.995-15.206 3.602-25.172 5.982-25.846 6.173-.719.203-.766-1.354-.864-28.471L236.475 297l-.221 28.74-.222 28.74-22.362 5.379c-12.299 2.959-22.703 5.387-23.12 5.397-.714.016-.764-1.941-.871-34.119L189.566 297l-.107 34.306c-.099 32.29-.15 34.317-.865 34.5-.419.106-2.714.665-5.102 1.241-6.276 1.513-6.446 1.564-6.595 1.968-.076.203 2.648 1.427 6.051 2.72l6.188 2.351.099 7.037.099 7.038-21.32 18.976c-11.726 10.436-21.719 19.035-22.206 19.109-.555.083-.7.237-.389.41.318.177-.44 1.113-2.1 2.593-1.429 1.274-2.598 2.091-2.598 1.817 0-.275-.187-.396-.416-.269-.228.127-.317.461-.197.743.25.586-41.7 38.062-42.417 37.894-.252-.059-.354.042-.228.226.125.183-.934 1.371-2.356 2.638l-2.585 2.305v-22.816l23.476-21.053c12.912-11.58 23.652-21.111 23.867-21.18.225-.072.387 4.14.383 9.924-.005 5.526.1 10.146.232 10.265.132.119.241-4.633.241-10.56 0-9.178.098-10.85.661-11.271.811-.607.816-.603 1.901 1.678.485 1.018.957 1.851 1.05 1.851.286 0 5.24-16.803 5.013-17.007-.116-.105-2.021.245-4.233.778-2.211.534-4.104.97-4.207.97-.102 0-.185-22.213-.185-49.363 0-27.149-.099-49.274-.218-49.166-.12.108-.222 22.317-.227 49.353-.008 46.183-.054 49.178-.759 49.503-.413.191-2.558.743-4.767 1.227-2.209.485-4.017 1.02-4.017 1.19 0 .17.879.634 1.953 1.032s1.953.916 1.954 1.151c.001.235-6.26 5.957-13.913 12.715-7.653 6.759-17.128 15.194-21.055 18.744l-7.141 6.456v-27.975c0-98.019-.031-113.964-.227-113.788-.12.108-.218 32.141-.219 71.184l-.001 70.987-16.89 15.2c-9.658 8.691-17.092 15.086-17.362 14.936-.282-.157-.38-.045-.242.277.142.335-2.27 2.718-6.36 6.28-3.624 3.158-6.66 5.741-6.746 5.741-.086 0-.151-4.366-.145-9.701l.013-9.701 7.137-6.422 7.137-6.422 1.549 3.114c.852 1.712 1.901 3.81 2.332 4.661l.783 1.548.882-2.721a279.108 279.108 0 0 0 1.859-6.048c.537-1.829 1.32-4.47 1.74-5.868.42-1.399 1.177-3.952 1.682-5.673a643.79 643.79 0 0 1 2.253-7.434c1.777-5.732 2.63-8.887 2.448-9.051-.082-.075-3.067.579-6.632 1.453-3.565.874-8.044 1.92-9.955 2.325-1.91.404-5.526 1.271-8.033 1.926-2.508.655-4.706 1.191-4.885 1.193-.179.001-.326-2.418-.326-5.375v-5.378l14.218-12.816c7.82-7.048 14.348-12.815 14.504-12.815.157 0 .517.572.8 1.271l.513 1.272.413-.952c.735-1.694 3.062-9.871 2.861-10.052-.273-.246-10.821 2.251-11.513 2.726-.43.295-.225.517.854.926l1.42.538-11.71 10.544c-6.44 5.799-11.855 10.545-12.034 10.547-.179.002-.324-6.027-.32-13.397.003-10.091.151-13.883.597-15.356 4.146-13.688 6.355-21.445 6.157-21.623-.133-.12-1.707.135-3.498.565l-3.257.784-.113-31.727c-.097-26.948-.132-28.486-.234-10.208Zm336.43-.391c0 10.723.095 19.412.21 19.308.289-.26.313-38.335.024-38.596-.129-.115-.234 8.564-.234 19.288ZM1.878 330.946l-1.845.399.034 7.085c.019 3.897.106 6.909.195 6.694.088-.215.477-1.404.865-2.641.497-1.588.919-2.252 1.433-2.256.599-.005.619-.069.114-.357-.519-.296-.434-.956.543-4.232 1.196-4.012 1.392-5.22.832-5.139-.179.026-1.156.227-2.171.447ZM380.5 359.893c.048 11.889.145 20.209.215 18.487.301-7.39.319-40.104.022-40.103-.179 0-.286 9.728-.237 21.616Zm-185.554 16.37c2.297.879 4.365 1.761 4.594 1.959.473.41-3.951 4.657-4.853 4.657-.306 0-.557.227-.557.504s-.977 1.371-2.171 2.431l-2.171 1.927v-2.236c0-1.51.176-2.245.543-2.265.434-.025.434-.071 0-.228-.727-.265-.778-8.349-.053-8.349.269 0 2.37.72 4.668 1.6Zm185.465 6.812c0 .323.196.587.435.587.238 0 .434-.264.434-.587 0-.323-.196-.587-.434-.587-.239 0-.435.264-.435.587Zm-379.157.072c.313.113.688.099.832-.031.144-.13-.112-.223-.57-.206-.506.019-.608.112-.262.237Zm69.665.017c.896.085 2.362.085 3.257 0 .896-.084.163-.153-1.628-.153s-2.524.069-1.629.153Zm188.263-.017c.313.113.688.099.832-.031.144-.13-.112-.223-.57-.206-.505.019-.608.112-.262.237Zm3.229.002a3.927 3.927 0 0 0 1.52 0c.418-.098.076-.179-.76-.179s-1.177.081-.76.179Zm118 22.879c0 12.087.112 21.874.25 21.751.376-.339.452-43.725.076-43.726-.179 0-.326 9.889-.326 21.975Zm-47.981-19.236c-.148.215-.061.391.191.391.253 0 .46-.176.46-.391 0-.215-.086-.391-.191-.391-.106 0-.313.176-.46.391Zm.204 19.66c-.029 42.158.049 62.274.243 62.449.112.101.204-18.156.204-40.571 0-22.416-.098-40.756-.217-40.756s-.223 8.495-.23 18.878Zm-97.527 4.623c1.08 2.245 1.143 2.722 1.143 8.803v6.43l-10.53.091-10.53.09 10.53.112 10.53.112v27.171l-8.572 7.731c-4.715 4.252-8.818 7.731-9.119 7.731-.301 0-.547.181-.547.403 0 .221-6.301 6.015-14.003 12.875l-14.004 12.473-.112-23.727-.112-23.727 11.616-10.472c6.388-5.759 11.953-10.472 12.365-10.472.44 0 .659-.212.53-.513-.212-.5 18.544-17.484 19.308-17.484.201 0 .879 1.068 1.507 2.373Zm241.572 29.22-.087 15.944-14.684 3.522c-8.076 1.937-14.688 3.69-14.693 3.894-.005.205 2.988 1.516 6.651 2.914 3.662 1.397 6.724 2.682 6.804 2.854.08.173.435.314.79.314.746 0 6.954 2.255 8.062 2.928.651.396-1.853 2.791-19.671 18.814a21065.367 21065.367 0 0 1-20.618 18.529c-.11.093-.194-9.59-.185-21.519l.015-21.686 22.243-20.052c13.011-11.729 22.57-20.052 23.03-20.052.445 0 .663-.18.502-.416-.289-.421.948-1.931 1.582-1.931.19 0 .307 7.174.259 15.943Zm-235.653-13.987c0 .215.207.391.46.391s.339-.176.191-.391c-.147-.215-.354-.391-.46-.391-.105 0-.191.176-.191.391ZM5.135 426.6c2.925.068 7.712.068 10.638 0 2.925-.067.532-.123-5.32-.123-5.85 0-8.244.056-5.318.123Zm31.291-.025c.313.113.688.099.832-.031.144-.129-.112-.222-.57-.205-.506.019-.608.112-.262.236Zm2.578.009a6.877 6.877 0 0 0 1.954 0c.537-.093.098-.169-.977-.169s-1.514.076-.977.169Zm7.843-.009c.313.113.688.099.832-.031.145-.129-.112-.222-.57-.205-.505.019-.608.112-.262.236Zm32.778.025c2.102.072 5.424.071 7.382-.001 1.959-.073.24-.131-3.82-.131-4.06.001-5.663.06-3.562.132Zm16.696-.002c1.493.076 3.936.076 5.428 0 1.493-.077.272-.139-2.714-.139-2.985 0-4.206.062-2.714.139Zm26.081-.023c.313.113.688.099.832-.031.144-.129-.112-.222-.57-.205-.506.019-.608.112-.262.236Zm6.29.025c2.102.072 5.424.071 7.382-.001 1.959-.073.239-.131-3.821-.131-4.06.001-5.662.06-3.561.132Zm110.516-.025c.313.113.688.099.832-.031.144-.129-.112-.222-.57-.205-.506.019-.609.112-.262.236Zm11.697.025c2.448.07 6.453.07 8.901 0 2.448-.07.445-.127-4.451-.127s-6.899.057-4.45.127Zm47.3.001c5.775.062 15.349.062 21.277 0 5.927-.061 1.202-.112-10.5-.112-11.703 0-16.552.051-10.777.112Zm46.492 0c6.268.061 16.527.061 22.796 0 6.27-.061 1.14-.111-11.398-.111s-17.667.05-11.398.111Zm48.446 0c6.405.061 16.762.061 23.014 0 6.252-.061 1.011-.111-11.646-.111-12.658 0-17.773.05-11.368.111Zm43.852 0c3.537.066 9.204.066 12.593-.001 3.388-.065.494-.119-6.432-.119-6.925 0-9.698.054-6.161.12Zm55.337 0c5.314.062 14.009.062 19.323 0s.966-.113-9.661-.113c-10.628 0-14.975.051-9.662.113Zm-208.117 42.694c-.132.119-1.356.2-2.718.181-1.982-.03-2.173.015-.957.223l1.52.261-1.52.458c-1.259.379-9.056 2.273-25.619 6.224-1.313.313-5.65 1.352-9.637 2.31-3.986.957-7.552 1.74-7.924 1.74-.577 0-.676-.739-.676-5.04v-5.04l23.773-21.167 23.774-21.167.113 20.4c.061 11.22.003 20.497-.129 20.617Zm-104.492 35.137c-5.3 4.78-9.826 8.585-10.057 8.456-.232-.129-.303-.062-.159.148.145.21-6.273 6.258-14.262 13.44l-14.524 13.058v-13.575c0-7.467-.147-13.576-.326-13.576-.179 0-.278 6.196-.219 13.768l.107 13.768-23.772 21.201-23.772 21.201-.217-6.897c-.217-6.886-.216-6.898.844-7.975.583-.593 1.2-.945 1.372-.783.17.163.942 1.661 1.713 3.329.77 1.668 1.533 3.032 1.693 3.032.16 0 .592-1.1.96-2.445.369-1.345 2.184-7.52 4.033-13.722 1.85-6.202 3.257-11.372 3.126-11.489-.13-.118-3.174.51-6.763 1.396-3.59.886-6.628 1.611-6.752 1.611-.124 0-.226-3.036-.226-6.746v-6.747l12.047-10.859c6.625-5.974 12.304-10.86 12.618-10.86.314 0 .471-.146.349-.325-.123-.178 4.863-4.878 11.078-10.443 8.741-7.828 11.39-9.992 11.697-9.555.307.437.398.364.403-.324.005-.642 3.396-3.907 12.193-11.738 6.702-5.966 12.613-10.963 13.135-11.103.522-.14.657-.272.301-.293-.357-.022 4.626-4.794 11.072-10.606l11.721-10.566.112 23.765.112 23.764-9.637 8.69Zm-87.65-40.642-.02 11.267-20.996 18.908c-11.549 10.398-21.174 18.808-21.39 18.688-.215-.12-.675-.037-1.022.184-.515.328-.49.362.129.182.418-.121.76-.077.76.098 0 .574-1.671 1.696-2.14 1.436-.26-.145-.36-.031-.233.267.122.287-.467 1.123-1.308 1.858l-1.53 1.336v-23.036l23.557-21.227c12.956-11.674 23.704-21.227 23.885-21.228.181 0 .32 5.069.309 11.267Zm-88.567 5.709c0 .085.303.259.674.387.387.134.56.068.409-.153-.255-.372-1.083-.551-1.083-.234Zm89.45 0c0 .085.303.259.674.387.386.134.56.068.409-.153-.255-.372-1.083-.551-1.083-.234Zm1.737.261c0 .228.195.306.434.173.24-.134.434-.32.434-.415 0-.095-.195-.172-.434-.172a.426.426 0 0 0-.434.414Zm177.054-.138a6.877 6.877 0 0 0 1.954 0c.537-.094.098-.17-.977-.17-1.074 0-1.514.076-.977.17Zm4.342-.017a1.86 1.86 0 0 0 1.086 0c.299-.109.054-.198-.543-.198-.597 0-.841.089-.543.198Zm130.81-.106c0 .085.303.259.674.387.386.134.56.068.408-.153-.254-.372-1.082-.551-1.082-.234Zm-170.808 11.392c-.103.243-1.33.671-2.726.953-3.802.767-6.669 1.582-6.661 1.895.004.153 2.15 1.071 4.769 2.039l4.762 1.761.007 6.852.008 6.851-6.41 5.767c-3.526 3.171-6.664 5.765-6.974 5.765-.309 0-.465.143-.345.318.12.175-7.196 6.996-16.258 15.159l-16.475 14.841v-30.151l23.122-20.814 23.122-20.816.123 4.57c.068 2.513.039 4.768-.064 5.01Zm144.334 4.111.038 11.112-9.47 8.497c-7.858 7.049-9.655 8.476-10.556 8.383-.597-.062-.743-.036-.326.057.418.093.76.256.76.362 0 .106-6.204 5.712-13.786 12.458l-13.787 12.266-.228-9.845-.229-9.844-.099 10.172-.098 10.173-23.881 21.516-23.881 21.515V559.83l23.726-21.212c17.181-15.361 23.827-21.069 24.093-20.692.271.385.369.316.375-.261.011-.97 39.207-36.411 39.864-36.045.247.138.989 1.491 1.65 3.008.754 1.731 1.318 2.568 1.516 2.248.173-.281 1.146-3.373 2.162-6.872 1.016-3.498 1.908-6.306 1.983-6.238.075.067.153 5.123.174 11.236Zm-134.072 6.611c.243.206-6.274 6.401-9.469 9-.11.09-.2-2.755-.2-6.32v-6.484l4.668 1.761c2.567.969 4.817 1.888 5.001 2.043Zm-105.882 10.206c0 4.627.062 6.52.139 4.206.077-2.313.077-6.098 0-8.412-.077-2.313-.139-.42-.139 4.206Zm-.116 9.39c0 .538.099.759.219.489.121-.268.121-.708 0-.978-.12-.268-.219-.049-.219.489ZM1.661 513.061a27.72 27.72 0 0 0 3.69 0c1.016-.082.185-.15-1.845-.15s-2.86.068-1.845.15Zm43.422-.028c.299.109.787.109 1.086 0 .298-.108.054-.197-.543-.197-.597 0-.841.089-.543.197Zm78.402.034c3.06.067 7.945.067 10.856 0 2.912-.068.409-.123-5.562-.123-5.97 0-8.352.056-5.294.123Zm24.943 0c3.403.066 8.972.066 12.375 0 3.403-.066.619-.12-6.187-.12-6.807 0-9.591.054-6.188.12Zm19.133-.025c.313.113.688.099.832-.031.144-.13-.112-.223-.57-.206-.505.019-.608.112-.262.237Zm30.586.025c4 .065 10.546.065 14.546 0s.727-.117-7.273-.117c-8.001 0-11.274.052-7.273.117Zm22.824-.025c.313.113.687.099.832-.031.144-.13-.113-.223-.57-.206-.506.019-.609.112-.262.237Zm122.664.025c2.82.068 7.314.068 9.987-.001 2.674-.068.367-.124-5.126-.124s-7.68.057-4.861.125Zm47.74 0c5.434.063 14.325.063 19.758 0 5.433-.062.987-.112-9.879-.112s-15.312.05-9.879.112Zm30.404-.021c.423.099 1.009.092 1.303-.015.294-.107-.052-.188-.768-.18-.717.008-.957.095-.535.195Zm98.371-.004c.313.113.688.099.832-.031.144-.13-.112-.223-.57-.206-.506.019-.609.112-.262.237Zm-239.907 13.72c4.004 8.537 4.179 9.032 4.298 12.131l.124 3.231-23.998 21.614-23.998 21.613.025-16.237.024-16.236 19.412-17.509c10.677-9.629 19.531-17.508 19.676-17.508.144 0 2.141 4.005 4.437 8.901ZM91.953 542.02l-.082 6.554-7.903 1.956c-4.346 1.076-8.014 2.063-8.151 2.193-.137.13 1.228.817 3.032 1.526 1.804.709 3.397 1.459 3.54 1.667.252.367-37.083 34.326-37.738 34.326-.18 0-.328-2.783-.328-6.185v-6.185l12.127-10.833c6.67-5.958 12.386-10.774 12.701-10.703.316.072.404.049.197-.05-.284-.135 22.17-20.819 22.601-20.819.047 0 .048 2.949.003 6.553Zm288.458 10.466c0 .323.077.587.171.587.094 0 .283-.264.421-.587.137-.323.06-.587-.171-.587s-.421.264-.421.587Zm-300.916 3.717c0 .215.207.391.46.391s.34-.176.192-.391c-.148-.215-.355-.391-.46-.391-.106 0-.192.176-.192.391Zm62.367-.081c-.117.17.169.336.635.368.466.031.734-.108.596-.311-.308-.448-.942-.478-1.231-.057Zm2.144.123c.113.165.584.274 1.047.243 1.03-.07.741-.41-.413-.487-.462-.031-.747.079-.634.244Zm146.743-.036a.53.53 0 0 0 .677.173c.602-.335.49-.57-.273-.57-.372 0-.554.179-.404.397Zm224.705.017c0 .228.196.306.435.173s.434-.32.434-.415c0-.095-.195-.172-.434-.172a.427.427 0 0 0-.435.414Zm-374.973 15.432c0 7.316.059 10.254.131 6.528a412.49 412.49 0 0 0-.001-13.303c-.071-3.59-.13-.542-.13 6.775Zm192.009 23.475c.137.322.327.586.42.586.094 0 .171-.264.171-.586 0-.323-.189-.587-.421-.587-.231 0-.308.264-.17.587Zm-300.642 4.379c.422.099 1.008.093 1.302-.015.294-.107-.051-.188-.768-.18-.716.008-.957.095-.534.195Zm28.895-.004c.313.113.687.099.831-.031.145-.13-.112-.222-.57-.205-.505.018-.608.111-.261.236Zm33.847.009c.54.094 1.322.09 1.737-.008.415-.097-.027-.174-.983-.17-.955.005-1.294.085-.754.178Zm187.579-.017c.298.108.787.108 1.085 0 .299-.109.054-.198-.543-.198-.597 0-.841.089-.542.198Zm185.006.008c.313.113.687.099.832-.031.144-.13-.112-.222-.57-.205-.506.018-.609.111-.262.236Z" fill="#40C1FF" fill-opacity=".2"/></g><defs><clipPath id="a"><rect width="470" height="610" rx="25" fill="#fff"/></clipPath></defs></svg>