<svg width="40" height="40" fill="none" xmlns="http://www.w3.org/2000/svg"><rect width="40" height="40" rx="20" fill="#55B67B"/><g clip-path="url(#a)"><path d="M20.001 11.2a8.802 8.802 0 0 0-7.105 13.995l-1.122 3.317 3.497-1.09A8.803 8.803 0 0 0 28.801 20c0-4.858-3.942-8.8-8.8-8.8Zm4.029 13.52c-1.597.64-3.502.02-5.585-1.562-2.084-1.582-3.456-3.809-3.548-5.462-.092-1.654 1.254-2.488 1.987-2.483.732.005 1.535 2.344 1.546 2.703.01.363-.896 1.008-.932 1.315-.036.307 1.234 1.823 1.771 2.232.533.405 1.633 1.183 2.201 1.111.564-.077.937-1.208 1.296-1.28.358-.071 2.314.901 2.508 1.152.194.256.174 1.71-1.244 2.273Z" fill="#fff"/></g><defs><clipPath id="a"><rect x="11.201" y="11.199" width="17.6" height="17.6" rx="8.8" fill="#fff"/></clipPath></defs></svg>