<svg width="23" height="23" fill="none" xmlns="http://www.w3.org/2000/svg"><path d="M11.5 0C5.15 0 0 5.151 0 11.5c0 2.542.823 4.884 2.214 6.79L.75 22.627l4.57-1.425a11.475 11.475 0 0 0 6.18 1.8C17.85 23 23 17.848 23 11.5 23 5.15 17.85 0 11.5 0Zm5.265 17.668c-2.088.837-4.576.027-7.299-2.04C6.743 13.56 4.95 10.65 4.83 8.49c-.12-2.161 1.639-3.252 2.596-3.245.956.007 2.007 3.064 2.02 3.532.013.475-1.17 1.318-1.218 1.72-.046.401 1.613 2.381 2.315 2.917.696.528 2.134 1.545 2.877 1.451.736-.1 1.224-1.579 1.692-1.672.469-.094 3.024 1.177 3.278 1.505.255.335.228 2.235-1.625 2.97Z" fill="#12C868"/></svg>